<?xml version="1.0" encoding="UTF-8" standalone="no"?>
<!DOCTYPE svg PUBLIC "-//W3C//DTD SVG 1.1//EN" "http://www.w3.org/Graphics/SVG/1.1/DTD/svg11.dtd">
<svg width="876.0254037844387" height="660.0" viewBox="0 0 876.0254037844387 660.0" xmlns="http://www.w3.org/2000/svg" xmlns:xlink="http://www.w3.org/1999/xlink">
    <polygon points="5.0,5.0 5.0,655.0 871.0254037844387,655.0 871.0254037844387,5.0" fill="white" stroke="black" stroke-linecap="round" stroke-width="1"/>
    <polygon points="26.650635094610966,5.0 48.30127018922193,17.5 48.30127018922193,42.5 26.650635094610966,55.0 5.0,42.5 5.0,17.5" stroke="black" stroke-linecap="round" stroke-width="1" fill="none"/>
    <polygon points="69.9519052838329,5.0 91.60254037844386,17.5 91.60254037844386,42.5 69.9519052838329,55.0 48.30127018922194,42.5 48.30127018922194,17.5" stroke="black" stroke-linecap="round" stroke-width="1" fill="none"/>
    <polygon points="113.25317547305482,5.0 134.90381056766577,17.5 134.90381056766577,42.5 113.25317547305482,55.0 91.60254037844386,42.5 91.60254037844386,17.5" stroke="black" stroke-linecap="round" stroke-width="1" fill="none"/>
    <polygon points="156.55444566227675,5.0 178.20508075688772,17.5 178.20508075688772,42.5 156.55444566227675,55.0 134.9038105676658,42.5 134.9038105676658,17.5" stroke="black" stroke-linecap="round" stroke-width="1" fill="none"/>
    <polygon points="199.85571585149867,5.0 221.50635094610965,17.5 221.50635094610965,42.5 199.85571585149867,55.0 178.20508075688772,42.5 178.20508075688772,17.5" stroke="black" stroke-linecap="round" stroke-width="1" fill="none"/>
    <polygon points="243.15698604072062,5.0 264.8076211353316,17.5 264.8076211353316,42.5 243.15698604072062,55.0 221.50635094610965,42.5 221.50635094610965,17.5" stroke="black" stroke-linecap="round" stroke-width="1" fill="none"/>
    <polygon points="286.4582562299426,5.0 308.10889132455355,17.5 308.10889132455355,42.5 286.4582562299426,55.0 264.8076211353316,42.5 264.8076211353316,17.5" stroke="black" stroke-linecap="round" stroke-width="1" fill="none"/>
    <polygon points="329.7595264191645,5.0 351.4101615137755,17.5 351.4101615137755,42.5 329.7595264191645,55.0 308.1088913245535,42.5 308.1088913245535,17.5" stroke="black" stroke-linecap="round" stroke-width="1" fill="none"/>
    <polygon points="373.0607966083864,5.0 394.7114317029974,17.5 394.7114317029974,42.5 373.0607966083864,55.0 351.41016151377545,42.5 351.41016151377545,17.5" stroke="black" stroke-linecap="round" stroke-width="1" fill="none"/>
    <polygon points="416.36206679760835,5.0 438.0127018922193,17.5 438.0127018922193,42.5 416.36206679760835,55.0 394.71143170299734,42.5 394.71143170299734,17.5" stroke="black" stroke-linecap="round" stroke-width="1" fill="none"/>
    <polygon points="459.6633369868302,5.0 481.31397208144114,17.5 481.31397208144114,42.5 459.6633369868302,55.0 438.0127018922193,42.5 438.0127018922193,17.5" stroke="black" stroke-linecap="round" stroke-width="1" fill="none"/>
    <polygon points="502.9646071760522,5.0 524.6152422706631,17.5 524.6152422706631,42.5 502.9646071760522,55.0 481.31397208144125,42.5 481.31397208144125,17.5" stroke="black" stroke-linecap="round" stroke-width="1" fill="none"/>
    <polygon points="546.2658773652742,5.0 567.9165124598851,17.5 567.9165124598851,42.5 546.2658773652742,55.0 524.6152422706632,42.5 524.6152422706632,17.5" stroke="black" stroke-linecap="round" stroke-width="1" fill="none"/>
    <polygon points="589.567147554496,5.0 611.217782649107,17.5 611.217782649107,42.5 589.567147554496,55.0 567.9165124598851,42.5 567.9165124598851,17.5" stroke="black" stroke-linecap="round" stroke-width="1" fill="none"/>
    <polygon points="632.8684177437179,5.0 654.5190528383289,17.5 654.5190528383289,42.5 632.8684177437179,55.0 611.217782649107,42.5 611.217782649107,17.5" stroke="black" stroke-linecap="round" stroke-width="1" fill="none"/>
    <polygon points="676.1696879329398,5.0 697.8203230275508,17.5 697.8203230275508,42.5 676.1696879329398,55.0 654.5190528383289,42.5 654.5190528383289,17.5" stroke="black" stroke-linecap="round" stroke-width="1" fill="none"/>
    <polygon points="719.4709581221618,5.0 741.1215932167728,17.5 741.1215932167728,42.5 719.4709581221618,55.0 697.8203230275509,42.5 697.8203230275509,17.5" stroke="black" stroke-linecap="round" stroke-width="1" fill="none"/>
    <polygon points="762.7722283113837,5.0 784.4228634059947,17.5 784.4228634059947,42.5 762.7722283113837,55.0 741.1215932167728,42.5 741.1215932167728,17.5" stroke="black" stroke-linecap="round" stroke-width="1" fill="none"/>
    <polygon points="806.0734985006056,5.0 827.7241335952167,17.5 827.7241335952167,42.5 806.0734985006056,55.0 784.4228634059947,42.5 784.4228634059947,17.5" stroke="black" stroke-linecap="round" stroke-width="1" fill="none"/>
    <polygon points="849.3747686898278,5.0 871.0254037844387,17.5 871.0254037844387,42.5 849.3747686898278,55.0 827.7241335952167,42.5 827.7241335952167,17.5" stroke="black" stroke-linecap="round" stroke-width="1" fill="none"/>
    <polygon points="48.30127018922193,42.5 69.9519052838329,55.0 69.9519052838329,80.0 48.30127018922193,92.5 26.650635094610966,80.0 26.650635094610966,55.0" stroke="black" stroke-linecap="round" stroke-width="1" fill="none"/>
    <polygon points="91.60254037844386,42.5 113.25317547305482,55.0 113.25317547305482,80.0 91.60254037844386,92.5 69.9519052838329,80.0 69.9519052838329,55.0" stroke="black" stroke-linecap="round" stroke-width="1" fill="none"/>
    <polygon points="134.9038105676658,42.5 156.55444566227675,55.0 156.55444566227675,80.0 134.9038105676658,92.5 113.25317547305484,80.0 113.25317547305484,55.0" stroke="black" stroke-linecap="round" stroke-width="1" fill="none"/>
    <polygon points="178.20508075688772,42.5 199.85571585149867,55.0 199.85571585149867,80.0 178.20508075688772,92.5 156.55444566227675,80.0 156.55444566227675,55.0" stroke="black" stroke-linecap="round" stroke-width="1" fill="none"/>
    <polygon points="221.50635094610965,42.5 243.15698604072062,55.0 243.15698604072062,80.0 221.50635094610965,92.5 199.85571585149867,80.0 199.85571585149867,55.0" stroke="black" stroke-linecap="round" stroke-width="1" fill="none"/>
    <polygon points="264.8076211353316,42.5 286.4582562299426,55.0 286.4582562299426,80.0 264.8076211353316,92.5 243.15698604072062,80.0 243.15698604072062,55.0" stroke="black" stroke-linecap="round" stroke-width="1" fill="none"/>
    <polygon points="308.1088913245535,42.5 329.7595264191645,55.0 329.7595264191645,80.0 308.1088913245535,92.5 286.45825622994255,80.0 286.45825622994255,55.0" stroke="black" stroke-linecap="round" stroke-width="1" fill="none"/>
    <polygon points="351.41016151377545,42.5 373.0607966083864,55.0 373.0607966083864,80.0 351.41016151377545,92.5 329.75952641916444,80.0 329.75952641916444,55.0" stroke="black" stroke-linecap="round" stroke-width="1" fill="none"/>
    <polygon points="394.71143170299734,42.5 416.36206679760835,55.0 416.36206679760835,80.0 394.71143170299734,92.5 373.0607966083864,80.0 373.0607966083864,55.0" stroke="black" stroke-linecap="round" stroke-width="1" fill="none"/>
    <polygon points="438.0127018922193,42.5 459.6633369868302,55.0 459.6633369868302,80.0 438.0127018922193,92.5 416.36206679760835,80.0 416.36206679760835,55.0" stroke="black" stroke-linecap="round" stroke-width="1" fill="none"/>
    <polygon points="481.31397208144125,42.5 502.9646071760522,55.0 502.9646071760522,80.0 481.31397208144125,92.5 459.6633369868303,80.0 459.6633369868303,55.0" stroke="black" stroke-linecap="round" stroke-width="1" fill="none"/>
    <polygon points="524.6152422706632,42.5 546.2658773652742,55.0 546.2658773652742,80.0 524.6152422706632,92.5 502.96460717605225,80.0 502.96460717605225,55.0" stroke="black" stroke-linecap="round" stroke-width="1" fill="none"/>
    <polygon points="567.9165124598851,42.5 589.567147554496,55.0 589.567147554496,80.0 567.9165124598851,92.5 546.2658773652742,80.0 546.2658773652742,55.0" stroke="black" stroke-linecap="round" stroke-width="1" fill="none"/>
    <polygon points="611.217782649107,42.5 632.8684177437179,55.0 632.8684177437179,80.0 611.217782649107,92.5 589.5671475544962,80.0 589.5671475544962,55.0" stroke="black" stroke-linecap="round" stroke-width="1" fill="none"/>
    <polygon points="654.5190528383289,42.5 676.1696879329398,55.0 676.1696879329398,80.0 654.5190528383289,92.5 632.8684177437179,80.0 632.8684177437179,55.0" stroke="black" stroke-linecap="round" stroke-width="1" fill="none"/>
    <polygon points="697.8203230275509,42.5 719.4709581221618,55.0 719.4709581221618,80.0 697.8203230275509,92.5 676.16968793294,80.0 676.16968793294,55.0" stroke="black" stroke-linecap="round" stroke-width="1" fill="none"/>
    <polygon points="741.1215932167728,42.5 762.7722283113837,55.0 762.7722283113837,80.0 741.1215932167728,92.5 719.4709581221618,80.0 719.4709581221618,55.0" stroke="black" stroke-linecap="round" stroke-width="1" fill="none"/>
    <polygon points="784.4228634059947,42.5 806.0734985006056,55.0 806.0734985006056,80.0 784.4228634059947,92.5 762.7722283113837,80.0 762.7722283113837,55.0" stroke="black" stroke-linecap="round" stroke-width="1" fill="none"/>
    <polygon points="827.7241335952167,42.5 849.3747686898278,55.0 849.3747686898278,80.0 827.7241335952167,92.5 806.0734985006056,80.0 806.0734985006056,55.0" stroke="black" stroke-linecap="round" stroke-width="1" fill="none"/>
    <polygon points="26.650635094610966,80.0 48.30127018922193,92.5 48.30127018922193,117.5 26.650635094610966,130.0 5.0,117.5 5.0,92.5" stroke="black" stroke-linecap="round" stroke-width="1" fill="none"/>
    <polygon points="69.9519052838329,80.0 91.60254037844386,92.5 91.60254037844386,117.5 69.9519052838329,130.0 48.30127018922194,117.5 48.30127018922194,92.5" stroke="black" stroke-linecap="round" stroke-width="1" fill="none"/>
    <polygon points="113.25317547305482,80.0 134.90381056766577,92.5 134.90381056766577,117.5 113.25317547305482,130.0 91.60254037844386,117.5 91.60254037844386,92.5" stroke="black" stroke-linecap="round" stroke-width="1" fill="none"/>
    <polygon points="156.55444566227675,80.0 178.20508075688772,92.5 178.20508075688772,117.5 156.55444566227675,130.0 134.9038105676658,117.5 134.9038105676658,92.5" stroke="black" stroke-linecap="round" stroke-width="1" fill="none"/>
    <polygon points="199.85571585149867,80.0 221.50635094610965,92.5 221.50635094610965,117.5 199.85571585149867,130.0 178.20508075688772,117.5 178.20508075688772,92.5" stroke="black" stroke-linecap="round" stroke-width="1" fill="none"/>
    <polygon points="243.15698604072062,80.0 264.8076211353316,92.5 264.8076211353316,117.5 243.15698604072062,130.0 221.50635094610965,117.5 221.50635094610965,92.5" stroke="black" stroke-linecap="round" stroke-width="1" fill="none"/>
    <polygon points="286.4582562299426,80.0 308.10889132455355,92.5 308.10889132455355,117.5 286.4582562299426,130.0 264.8076211353316,117.5 264.8076211353316,92.5" stroke="black" stroke-linecap="round" stroke-width="1" fill="none"/>
    <polygon points="329.7595264191645,80.0 351.4101615137755,92.5 351.4101615137755,117.5 329.7595264191645,130.0 308.1088913245535,117.5 308.1088913245535,92.5" stroke="black" stroke-linecap="round" stroke-width="1" fill="none"/>
    <polygon points="373.0607966083864,80.0 394.7114317029974,92.5 394.7114317029974,117.5 373.0607966083864,130.0 351.41016151377545,117.5 351.41016151377545,92.5" stroke="black" stroke-linecap="round" stroke-width="1" fill="none"/>
    <polygon points="416.36206679760835,80.0 438.0127018922193,92.5 438.0127018922193,117.5 416.36206679760835,130.0 394.71143170299734,117.5 394.71143170299734,92.5" stroke="black" stroke-linecap="round" stroke-width="1" fill="none"/>
    <polygon points="459.6633369868302,80.0 481.31397208144114,92.5 481.31397208144114,117.5 459.6633369868302,130.0 438.0127018922193,117.5 438.0127018922193,92.5" stroke="black" stroke-linecap="round" stroke-width="1" fill="none"/>
    <polygon points="502.9646071760522,80.0 524.6152422706631,92.5 524.6152422706631,117.5 502.9646071760522,130.0 481.31397208144125,117.5 481.31397208144125,92.5" stroke="black" stroke-linecap="round" stroke-width="1" fill="none"/>
    <polygon points="546.2658773652742,80.0 567.9165124598851,92.5 567.9165124598851,117.5 546.2658773652742,130.0 524.6152422706632,117.5 524.6152422706632,92.5" stroke="black" stroke-linecap="round" stroke-width="1" fill="none"/>
    <polygon points="589.567147554496,80.0 611.217782649107,92.5 611.217782649107,117.5 589.567147554496,130.0 567.9165124598851,117.5 567.9165124598851,92.5" stroke="black" stroke-linecap="round" stroke-width="1" fill="none"/>
    <polygon points="632.8684177437179,80.0 654.5190528383289,92.5 654.5190528383289,117.5 632.8684177437179,130.0 611.217782649107,117.5 611.217782649107,92.5" stroke="black" stroke-linecap="round" stroke-width="1" fill="none"/>
    <polygon points="676.1696879329398,80.0 697.8203230275508,92.5 697.8203230275508,117.5 676.1696879329398,130.0 654.5190528383289,117.5 654.5190528383289,92.5" stroke="black" stroke-linecap="round" stroke-width="1" fill="none"/>
    <polygon points="719.4709581221618,80.0 741.1215932167728,92.5 741.1215932167728,117.5 719.4709581221618,130.0 697.8203230275509,117.5 697.8203230275509,92.5" stroke="black" stroke-linecap="round" stroke-width="1" fill="none"/>
    <polygon points="762.7722283113837,80.0 784.4228634059947,92.5 784.4228634059947,117.5 762.7722283113837,130.0 741.1215932167728,117.5 741.1215932167728,92.5" stroke="black" stroke-linecap="round" stroke-width="1" fill="none"/>
    <polygon points="806.0734985006056,80.0 827.7241335952167,92.5 827.7241335952167,117.5 806.0734985006056,130.0 784.4228634059947,117.5 784.4228634059947,92.5" stroke="black" stroke-linecap="round" stroke-width="1" fill="none"/>
    <polygon points="849.3747686898278,80.0 871.0254037844387,92.5 871.0254037844387,117.5 849.3747686898278,130.0 827.7241335952167,117.5 827.7241335952167,92.5" stroke="black" stroke-linecap="round" stroke-width="1" fill="none"/>
    <polygon points="48.30127018922193,117.5 69.9519052838329,130.0 69.9519052838329,155.0 48.30127018922193,167.5 26.650635094610966,155.0 26.650635094610966,130.0" stroke="black" stroke-linecap="round" stroke-width="1" fill="none"/>
    <polygon points="91.60254037844386,117.5 113.25317547305482,130.0 113.25317547305482,155.0 91.60254037844386,167.5 69.9519052838329,155.0 69.9519052838329,130.0" stroke="black" stroke-linecap="round" stroke-width="1" fill="none"/>
    <polygon points="134.9038105676658,117.5 156.55444566227675,130.0 156.55444566227675,155.0 134.9038105676658,167.5 113.25317547305484,155.0 113.25317547305484,130.0" stroke="black" stroke-linecap="round" stroke-width="1" fill="none"/>
    <polygon points="178.20508075688772,117.5 199.85571585149867,130.0 199.85571585149867,155.0 178.20508075688772,167.5 156.55444566227675,155.0 156.55444566227675,130.0" stroke="black" stroke-linecap="round" stroke-width="1" fill="none"/>
    <polygon points="221.50635094610965,117.5 243.15698604072062,130.0 243.15698604072062,155.0 221.50635094610965,167.5 199.85571585149867,155.0 199.85571585149867,130.0" stroke="black" stroke-linecap="round" stroke-width="1" fill="none"/>
    <polygon points="264.8076211353316,117.5 286.4582562299426,130.0 286.4582562299426,155.0 264.8076211353316,167.5 243.15698604072062,155.0 243.15698604072062,130.0" stroke="black" stroke-linecap="round" stroke-width="1" fill="none"/>
    <polygon points="308.1088913245535,117.5 329.7595264191645,130.0 329.7595264191645,155.0 308.1088913245535,167.5 286.45825622994255,155.0 286.45825622994255,130.0" stroke="black" stroke-linecap="round" stroke-width="1" fill="none"/>
    <polygon points="351.41016151377545,117.5 373.0607966083864,130.0 373.0607966083864,155.0 351.41016151377545,167.5 329.75952641916444,155.0 329.75952641916444,130.0" stroke="black" stroke-linecap="round" stroke-width="1" fill="none"/>
    <polygon points="394.71143170299734,117.5 416.36206679760835,130.0 416.36206679760835,155.0 394.71143170299734,167.5 373.0607966083864,155.0 373.0607966083864,130.0" stroke="black" stroke-linecap="round" stroke-width="1" fill="none"/>
    <polygon points="438.0127018922193,117.5 459.6633369868302,130.0 459.6633369868302,155.0 438.0127018922193,167.5 416.36206679760835,155.0 416.36206679760835,130.0" stroke="black" stroke-linecap="round" stroke-width="1" fill="none"/>
    <polygon points="481.31397208144125,117.5 502.9646071760522,130.0 502.9646071760522,155.0 481.31397208144125,167.5 459.6633369868303,155.0 459.6633369868303,130.0" stroke="black" stroke-linecap="round" stroke-width="1" fill="none"/>
    <polygon points="524.6152422706632,117.5 546.2658773652742,130.0 546.2658773652742,155.0 524.6152422706632,167.5 502.96460717605225,155.0 502.96460717605225,130.0" stroke="black" stroke-linecap="round" stroke-width="1" fill="none"/>
    <polygon points="567.9165124598851,117.5 589.567147554496,130.0 589.567147554496,155.0 567.9165124598851,167.5 546.2658773652742,155.0 546.2658773652742,130.0" stroke="black" stroke-linecap="round" stroke-width="1" fill="none"/>
    <polygon points="611.217782649107,117.5 632.8684177437179,130.0 632.8684177437179,155.0 611.217782649107,167.5 589.5671475544962,155.0 589.5671475544962,130.0" stroke="black" stroke-linecap="round" stroke-width="1" fill="none"/>
    <polygon points="654.5190528383289,117.5 676.1696879329398,130.0 676.1696879329398,155.0 654.5190528383289,167.5 632.8684177437179,155.0 632.8684177437179,130.0" stroke="black" stroke-linecap="round" stroke-width="1" fill="none"/>
    <polygon points="697.8203230275509,117.5 719.4709581221618,130.0 719.4709581221618,155.0 697.8203230275509,167.5 676.16968793294,155.0 676.16968793294,130.0" stroke="black" stroke-linecap="round" stroke-width="1" fill="none"/>
    <polygon points="741.1215932167728,117.5 762.7722283113837,130.0 762.7722283113837,155.0 741.1215932167728,167.5 719.4709581221618,155.0 719.4709581221618,130.0" stroke="black" stroke-linecap="round" stroke-width="1" fill="none"/>
    <polygon points="784.4228634059947,117.5 806.0734985006056,130.0 806.0734985006056,155.0 784.4228634059947,167.5 762.7722283113837,155.0 762.7722283113837,130.0" stroke="black" stroke-linecap="round" stroke-width="1" fill="none"/>
    <polygon points="827.7241335952167,117.5 849.3747686898278,130.0 849.3747686898278,155.0 827.7241335952167,167.5 806.0734985006056,155.0 806.0734985006056,130.0" stroke="black" stroke-linecap="round" stroke-width="1" fill="none"/>
    <polygon points="26.650635094610966,155.0 48.30127018922193,167.5 48.30127018922193,192.5 26.650635094610966,205.0 5.0,192.5 5.0,167.5" stroke="black" stroke-linecap="round" stroke-width="1" fill="none"/>
    <polygon points="69.9519052838329,155.0 91.60254037844386,167.5 91.60254037844386,192.5 69.9519052838329,205.0 48.30127018922194,192.5 48.30127018922194,167.5" stroke="black" stroke-linecap="round" stroke-width="1" fill="none"/>
    <polygon points="113.25317547305482,155.0 134.90381056766577,167.5 134.90381056766577,192.5 113.25317547305482,205.0 91.60254037844386,192.5 91.60254037844386,167.5" stroke="black" stroke-linecap="round" stroke-width="1" fill="none"/>
    <polygon points="156.55444566227675,155.0 178.20508075688772,167.5 178.20508075688772,192.5 156.55444566227675,205.0 134.9038105676658,192.5 134.9038105676658,167.5" stroke="black" stroke-linecap="round" stroke-width="1" fill="none"/>
    <polygon points="199.85571585149867,155.0 221.50635094610965,167.5 221.50635094610965,192.5 199.85571585149867,205.0 178.20508075688772,192.5 178.20508075688772,167.5" stroke="black" stroke-linecap="round" stroke-width="1" fill="none"/>
    <polygon points="243.15698604072062,155.0 264.8076211353316,167.5 264.8076211353316,192.5 243.15698604072062,205.0 221.50635094610965,192.5 221.50635094610965,167.5" stroke="black" stroke-linecap="round" stroke-width="1" fill="none"/>
    <polygon points="286.4582562299426,155.0 308.10889132455355,167.5 308.10889132455355,192.5 286.4582562299426,205.0 264.8076211353316,192.5 264.8076211353316,167.5" stroke="black" stroke-linecap="round" stroke-width="1" fill="none"/>
    <polygon points="329.7595264191645,155.0 351.4101615137755,167.5 351.4101615137755,192.5 329.7595264191645,205.0 308.1088913245535,192.5 308.1088913245535,167.5" stroke="black" stroke-linecap="round" stroke-width="1" fill="none"/>
    <polygon points="373.0607966083864,155.0 394.7114317029974,167.5 394.7114317029974,192.5 373.0607966083864,205.0 351.41016151377545,192.5 351.41016151377545,167.5" stroke="black" stroke-linecap="round" stroke-width="1" fill="none"/>
    <polygon points="416.36206679760835,155.0 438.0127018922193,167.5 438.0127018922193,192.5 416.36206679760835,205.0 394.71143170299734,192.5 394.71143170299734,167.5" stroke="black" stroke-linecap="round" stroke-width="1" fill="none"/>
    <polygon points="459.6633369868302,155.0 481.31397208144114,167.5 481.31397208144114,192.5 459.6633369868302,205.0 438.0127018922193,192.5 438.0127018922193,167.5" stroke="black" stroke-linecap="round" stroke-width="1" fill="none"/>
    <polygon points="502.9646071760522,155.0 524.6152422706631,167.5 524.6152422706631,192.5 502.9646071760522,205.0 481.31397208144125,192.5 481.31397208144125,167.5" stroke="black" stroke-linecap="round" stroke-width="1" fill="none"/>
    <polygon points="546.2658773652742,155.0 567.9165124598851,167.5 567.9165124598851,192.5 546.2658773652742,205.0 524.6152422706632,192.5 524.6152422706632,167.5" stroke="black" stroke-linecap="round" stroke-width="1" fill="none"/>
    <polygon points="589.567147554496,155.0 611.217782649107,167.5 611.217782649107,192.5 589.567147554496,205.0 567.9165124598851,192.5 567.9165124598851,167.5" stroke="black" stroke-linecap="round" stroke-width="1" fill="none"/>
    <polygon points="632.8684177437179,155.0 654.5190528383289,167.5 654.5190528383289,192.5 632.8684177437179,205.0 611.217782649107,192.5 611.217782649107,167.5" stroke="black" stroke-linecap="round" stroke-width="1" fill="none"/>
    <polygon points="676.1696879329398,155.0 697.8203230275508,167.5 697.8203230275508,192.5 676.1696879329398,205.0 654.5190528383289,192.5 654.5190528383289,167.5" stroke="black" stroke-linecap="round" stroke-width="1" fill="none"/>
    <polygon points="719.4709581221618,155.0 741.1215932167728,167.5 741.1215932167728,192.5 719.4709581221618,205.0 697.8203230275509,192.5 697.8203230275509,167.5" stroke="black" stroke-linecap="round" stroke-width="1" fill="none"/>
    <polygon points="762.7722283113837,155.0 784.4228634059947,167.5 784.4228634059947,192.5 762.7722283113837,205.0 741.1215932167728,192.5 741.1215932167728,167.5" stroke="black" stroke-linecap="round" stroke-width="1" fill="none"/>
    <polygon points="806.0734985006056,155.0 827.7241335952167,167.5 827.7241335952167,192.5 806.0734985006056,205.0 784.4228634059947,192.5 784.4228634059947,167.5" stroke="black" stroke-linecap="round" stroke-width="1" fill="none"/>
    <polygon points="849.3747686898278,155.0 871.0254037844387,167.5 871.0254037844387,192.5 849.3747686898278,205.0 827.7241335952167,192.5 827.7241335952167,167.5" stroke="black" stroke-linecap="round" stroke-width="1" fill="none"/>
    <polygon points="48.30127018922193,192.5 69.9519052838329,205.0 69.9519052838329,230.0 48.30127018922193,242.5 26.650635094610966,230.0 26.650635094610966,205.0" stroke="black" stroke-linecap="round" stroke-width="1" fill="none"/>
    <polygon points="91.60254037844386,192.5 113.25317547305482,205.0 113.25317547305482,230.0 91.60254037844386,242.5 69.9519052838329,230.0 69.9519052838329,205.0" stroke="black" stroke-linecap="round" stroke-width="1" fill="none"/>
    <polygon points="134.9038105676658,192.5 156.55444566227675,205.0 156.55444566227675,230.0 134.9038105676658,242.5 113.25317547305484,230.0 113.25317547305484,205.0" stroke="black" stroke-linecap="round" stroke-width="1" fill="none"/>
    <polygon points="178.20508075688772,192.5 199.85571585149867,205.0 199.85571585149867,230.0 178.20508075688772,242.5 156.55444566227675,230.0 156.55444566227675,205.0" stroke="black" stroke-linecap="round" stroke-width="1" fill="none"/>
    <polygon points="221.50635094610965,192.5 243.15698604072062,205.0 243.15698604072062,230.0 221.50635094610965,242.5 199.85571585149867,230.0 199.85571585149867,205.0" stroke="black" stroke-linecap="round" stroke-width="1" fill="none"/>
    <polygon points="264.8076211353316,192.5 286.4582562299426,205.0 286.4582562299426,230.0 264.8076211353316,242.5 243.15698604072062,230.0 243.15698604072062,205.0" stroke="black" stroke-linecap="round" stroke-width="1" fill="none"/>
    <polygon points="308.1088913245535,192.5 329.7595264191645,205.0 329.7595264191645,230.0 308.1088913245535,242.5 286.45825622994255,230.0 286.45825622994255,205.0" stroke="black" stroke-linecap="round" stroke-width="1" fill="none"/>
    <polygon points="351.41016151377545,192.5 373.0607966083864,205.0 373.0607966083864,230.0 351.41016151377545,242.5 329.75952641916444,230.0 329.75952641916444,205.0" stroke="black" stroke-linecap="round" stroke-width="1" fill="none"/>
    <polygon points="394.71143170299734,192.5 416.36206679760835,205.0 416.36206679760835,230.0 394.71143170299734,242.5 373.0607966083864,230.0 373.0607966083864,205.0" stroke="black" stroke-linecap="round" stroke-width="1" fill="none"/>
    <polygon points="438.0127018922193,192.5 459.6633369868302,205.0 459.6633369868302,230.0 438.0127018922193,242.5 416.36206679760835,230.0 416.36206679760835,205.0" stroke="black" stroke-linecap="round" stroke-width="1" fill="none"/>
    <polygon points="481.31397208144125,192.5 502.9646071760522,205.0 502.9646071760522,230.0 481.31397208144125,242.5 459.6633369868303,230.0 459.6633369868303,205.0" stroke="black" stroke-linecap="round" stroke-width="1" fill="none"/>
    <polygon points="524.6152422706632,192.5 546.2658773652742,205.0 546.2658773652742,230.0 524.6152422706632,242.5 502.96460717605225,230.0 502.96460717605225,205.0" stroke="black" stroke-linecap="round" stroke-width="1" fill="none"/>
    <polygon points="567.9165124598851,192.5 589.567147554496,205.0 589.567147554496,230.0 567.9165124598851,242.5 546.2658773652742,230.0 546.2658773652742,205.0" stroke="black" stroke-linecap="round" stroke-width="1" fill="none"/>
    <polygon points="611.217782649107,192.5 632.8684177437179,205.0 632.8684177437179,230.0 611.217782649107,242.5 589.5671475544962,230.0 589.5671475544962,205.0" stroke="black" stroke-linecap="round" stroke-width="1" fill="none"/>
    <polygon points="654.5190528383289,192.5 676.1696879329398,205.0 676.1696879329398,230.0 654.5190528383289,242.5 632.8684177437179,230.0 632.8684177437179,205.0" stroke="black" stroke-linecap="round" stroke-width="1" fill="none"/>
    <polygon points="697.8203230275509,192.5 719.4709581221618,205.0 719.4709581221618,230.0 697.8203230275509,242.5 676.16968793294,230.0 676.16968793294,205.0" stroke="black" stroke-linecap="round" stroke-width="1" fill="none"/>
    <polygon points="741.1215932167728,192.5 762.7722283113837,205.0 762.7722283113837,230.0 741.1215932167728,242.5 719.4709581221618,230.0 719.4709581221618,205.0" stroke="black" stroke-linecap="round" stroke-width="1" fill="none"/>
    <polygon points="784.4228634059947,192.5 806.0734985006056,205.0 806.0734985006056,230.0 784.4228634059947,242.5 762.7722283113837,230.0 762.7722283113837,205.0" stroke="black" stroke-linecap="round" stroke-width="1" fill="none"/>
    <polygon points="827.7241335952167,192.5 849.3747686898278,205.0 849.3747686898278,230.0 827.7241335952167,242.5 806.0734985006056,230.0 806.0734985006056,205.0" stroke="black" stroke-linecap="round" stroke-width="1" fill="none"/>
    <polygon points="26.650635094610966,230.0 48.30127018922193,242.5 48.30127018922193,267.5 26.650635094610966,280.0 5.0,267.5 5.0,242.5" stroke="black" stroke-linecap="round" stroke-width="1" fill="none"/>
    <polygon points="69.9519052838329,230.0 91.60254037844386,242.5 91.60254037844386,267.5 69.9519052838329,280.0 48.30127018922194,267.5 48.30127018922194,242.5" stroke="black" stroke-linecap="round" stroke-width="1" fill="none"/>
    <polygon points="113.25317547305482,230.0 134.90381056766577,242.5 134.90381056766577,267.5 113.25317547305482,280.0 91.60254037844386,267.5 91.60254037844386,242.5" stroke="black" stroke-linecap="round" stroke-width="1" fill="none"/>
    <polygon points="156.55444566227675,230.0 178.20508075688772,242.5 178.20508075688772,267.5 156.55444566227675,280.0 134.9038105676658,267.5 134.9038105676658,242.5" stroke="black" stroke-linecap="round" stroke-width="1" fill="none"/>
    <polygon points="199.85571585149867,230.0 221.50635094610965,242.5 221.50635094610965,267.5 199.85571585149867,280.0 178.20508075688772,267.5 178.20508075688772,242.5" stroke="black" stroke-linecap="round" stroke-width="1" fill="none"/>
    <polygon points="243.15698604072062,230.0 264.8076211353316,242.5 264.8076211353316,267.5 243.15698604072062,280.0 221.50635094610965,267.5 221.50635094610965,242.5" stroke="black" stroke-linecap="round" stroke-width="1" fill="none"/>
    <polygon points="286.4582562299426,230.0 308.10889132455355,242.5 308.10889132455355,267.5 286.4582562299426,280.0 264.8076211353316,267.5 264.8076211353316,242.5" stroke="black" stroke-linecap="round" stroke-width="1" fill="none"/>
    <polygon points="329.7595264191645,230.0 351.4101615137755,242.5 351.4101615137755,267.5 329.7595264191645,280.0 308.1088913245535,267.5 308.1088913245535,242.5" stroke="black" stroke-linecap="round" stroke-width="1" fill="none"/>
    <polygon points="373.0607966083864,230.0 394.7114317029974,242.5 394.7114317029974,267.5 373.0607966083864,280.0 351.41016151377545,267.5 351.41016151377545,242.5" stroke="black" stroke-linecap="round" stroke-width="1" fill="none"/>
    <polygon points="416.36206679760835,230.0 438.0127018922193,242.5 438.0127018922193,267.5 416.36206679760835,280.0 394.71143170299734,267.5 394.71143170299734,242.5" stroke="black" stroke-linecap="round" stroke-width="1" fill="none"/>
    <polygon points="459.6633369868302,230.0 481.31397208144114,242.5 481.31397208144114,267.5 459.6633369868302,280.0 438.0127018922193,267.5 438.0127018922193,242.5" stroke="black" stroke-linecap="round" stroke-width="1" fill="none"/>
    <polygon points="502.9646071760522,230.0 524.6152422706631,242.5 524.6152422706631,267.5 502.9646071760522,280.0 481.31397208144125,267.5 481.31397208144125,242.5" stroke="black" stroke-linecap="round" stroke-width="1" fill="none"/>
    <polygon points="546.2658773652742,230.0 567.9165124598851,242.5 567.9165124598851,267.5 546.2658773652742,280.0 524.6152422706632,267.5 524.6152422706632,242.5" stroke="black" stroke-linecap="round" stroke-width="1" fill="none"/>
    <polygon points="589.567147554496,230.0 611.217782649107,242.5 611.217782649107,267.5 589.567147554496,280.0 567.9165124598851,267.5 567.9165124598851,242.5" stroke="black" stroke-linecap="round" stroke-width="1" fill="none"/>
    <polygon points="632.8684177437179,230.0 654.5190528383289,242.5 654.5190528383289,267.5 632.8684177437179,280.0 611.217782649107,267.5 611.217782649107,242.5" stroke="black" stroke-linecap="round" stroke-width="1" fill="none"/>
    <polygon points="676.1696879329398,230.0 697.8203230275508,242.5 697.8203230275508,267.5 676.1696879329398,280.0 654.5190528383289,267.5 654.5190528383289,242.5" stroke="black" stroke-linecap="round" stroke-width="1" fill="none"/>
    <polygon points="719.4709581221618,230.0 741.1215932167728,242.5 741.1215932167728,267.5 719.4709581221618,280.0 697.8203230275509,267.5 697.8203230275509,242.5" stroke="black" stroke-linecap="round" stroke-width="1" fill="none"/>
    <polygon points="762.7722283113837,230.0 784.4228634059947,242.5 784.4228634059947,267.5 762.7722283113837,280.0 741.1215932167728,267.5 741.1215932167728,242.5" stroke="black" stroke-linecap="round" stroke-width="1" fill="none"/>
    <polygon points="806.0734985006056,230.0 827.7241335952167,242.5 827.7241335952167,267.5 806.0734985006056,280.0 784.4228634059947,267.5 784.4228634059947,242.5" stroke="black" stroke-linecap="round" stroke-width="1" fill="none"/>
    <polygon points="849.3747686898278,230.0 871.0254037844387,242.5 871.0254037844387,267.5 849.3747686898278,280.0 827.7241335952167,267.5 827.7241335952167,242.5" stroke="black" stroke-linecap="round" stroke-width="1" fill="none"/>
    <polygon points="48.30127018922193,267.5 69.9519052838329,280.0 69.9519052838329,305.0 48.30127018922193,317.5 26.650635094610966,305.0 26.650635094610966,280.0" stroke="black" stroke-linecap="round" stroke-width="1" fill="none"/>
    <polygon points="91.60254037844386,267.5 113.25317547305482,280.0 113.25317547305482,305.0 91.60254037844386,317.5 69.9519052838329,305.0 69.9519052838329,280.0" stroke="black" stroke-linecap="round" stroke-width="1" fill="none"/>
    <polygon points="134.9038105676658,267.5 156.55444566227675,280.0 156.55444566227675,305.0 134.9038105676658,317.5 113.25317547305484,305.0 113.25317547305484,280.0" stroke="black" stroke-linecap="round" stroke-width="1" fill="none"/>
    <polygon points="178.20508075688772,267.5 199.85571585149867,280.0 199.85571585149867,305.0 178.20508075688772,317.5 156.55444566227675,305.0 156.55444566227675,280.0" stroke="black" stroke-linecap="round" stroke-width="1" fill="none"/>
    <polygon points="221.50635094610965,267.5 243.15698604072062,280.0 243.15698604072062,305.0 221.50635094610965,317.5 199.85571585149867,305.0 199.85571585149867,280.0" stroke="black" stroke-linecap="round" stroke-width="1" fill="none"/>
    <polygon points="264.8076211353316,267.5 286.4582562299426,280.0 286.4582562299426,305.0 264.8076211353316,317.5 243.15698604072062,305.0 243.15698604072062,280.0" stroke="black" stroke-linecap="round" stroke-width="1" fill="none"/>
    <polygon points="308.1088913245535,267.5 329.7595264191645,280.0 329.7595264191645,305.0 308.1088913245535,317.5 286.45825622994255,305.0 286.45825622994255,280.0" stroke="black" stroke-linecap="round" stroke-width="1" fill="none"/>
    <polygon points="351.41016151377545,267.5 373.0607966083864,280.0 373.0607966083864,305.0 351.41016151377545,317.5 329.75952641916444,305.0 329.75952641916444,280.0" stroke="black" stroke-linecap="round" stroke-width="1" fill="none"/>
    <polygon points="394.71143170299734,267.5 416.36206679760835,280.0 416.36206679760835,305.0 394.71143170299734,317.5 373.0607966083864,305.0 373.0607966083864,280.0" stroke="black" stroke-linecap="round" stroke-width="1" fill="none"/>
    <polygon points="438.0127018922193,267.5 459.6633369868302,280.0 459.6633369868302,305.0 438.0127018922193,317.5 416.36206679760835,305.0 416.36206679760835,280.0" stroke="black" stroke-linecap="round" stroke-width="1" fill="none"/>
    <polygon points="481.31397208144125,267.5 502.9646071760522,280.0 502.9646071760522,305.0 481.31397208144125,317.5 459.6633369868303,305.0 459.6633369868303,280.0" stroke="black" stroke-linecap="round" stroke-width="1" fill="none"/>
    <polygon points="524.6152422706632,267.5 546.2658773652742,280.0 546.2658773652742,305.0 524.6152422706632,317.5 502.96460717605225,305.0 502.96460717605225,280.0" stroke="black" stroke-linecap="round" stroke-width="1" fill="none"/>
    <polygon points="567.9165124598851,267.5 589.567147554496,280.0 589.567147554496,305.0 567.9165124598851,317.5 546.2658773652742,305.0 546.2658773652742,280.0" stroke="black" stroke-linecap="round" stroke-width="1" fill="none"/>
    <polygon points="611.217782649107,267.5 632.8684177437179,280.0 632.8684177437179,305.0 611.217782649107,317.5 589.5671475544962,305.0 589.5671475544962,280.0" stroke="black" stroke-linecap="round" stroke-width="1" fill="none"/>
    <polygon points="654.5190528383289,267.5 676.1696879329398,280.0 676.1696879329398,305.0 654.5190528383289,317.5 632.8684177437179,305.0 632.8684177437179,280.0" stroke="black" stroke-linecap="round" stroke-width="1" fill="none"/>
    <polygon points="697.8203230275509,267.5 719.4709581221618,280.0 719.4709581221618,305.0 697.8203230275509,317.5 676.16968793294,305.0 676.16968793294,280.0" stroke="black" stroke-linecap="round" stroke-width="1" fill="none"/>
    <polygon points="741.1215932167728,267.5 762.7722283113837,280.0 762.7722283113837,305.0 741.1215932167728,317.5 719.4709581221618,305.0 719.4709581221618,280.0" stroke="black" stroke-linecap="round" stroke-width="1" fill="none"/>
    <polygon points="784.4228634059947,267.5 806.0734985006056,280.0 806.0734985006056,305.0 784.4228634059947,317.5 762.7722283113837,305.0 762.7722283113837,280.0" stroke="black" stroke-linecap="round" stroke-width="1" fill="none"/>
    <polygon points="827.7241335952167,267.5 849.3747686898278,280.0 849.3747686898278,305.0 827.7241335952167,317.5 806.0734985006056,305.0 806.0734985006056,280.0" stroke="black" stroke-linecap="round" stroke-width="1" fill="none"/>
    <polygon points="26.650635094610966,305.0 48.30127018922193,317.5 48.30127018922193,342.5 26.650635094610966,355.0 5.0,342.5 5.0,317.5" stroke="black" stroke-linecap="round" stroke-width="1" fill="none"/>
    <polygon points="69.9519052838329,305.0 91.60254037844386,317.5 91.60254037844386,342.5 69.9519052838329,355.0 48.30127018922194,342.5 48.30127018922194,317.5" stroke="black" stroke-linecap="round" stroke-width="1" fill="none"/>
    <polygon points="113.25317547305482,305.0 134.90381056766577,317.5 134.90381056766577,342.5 113.25317547305482,355.0 91.60254037844386,342.5 91.60254037844386,317.5" stroke="black" stroke-linecap="round" stroke-width="1" fill="none"/>
    <polygon points="156.55444566227675,305.0 178.20508075688772,317.5 178.20508075688772,342.5 156.55444566227675,355.0 134.9038105676658,342.5 134.9038105676658,317.5" stroke="black" stroke-linecap="round" stroke-width="1" fill="none"/>
    <polygon points="199.85571585149867,305.0 221.50635094610965,317.5 221.50635094610965,342.5 199.85571585149867,355.0 178.20508075688772,342.5 178.20508075688772,317.5" stroke="black" stroke-linecap="round" stroke-width="1" fill="none"/>
    <polygon points="243.15698604072062,305.0 264.8076211353316,317.5 264.8076211353316,342.5 243.15698604072062,355.0 221.50635094610965,342.5 221.50635094610965,317.5" stroke="black" stroke-linecap="round" stroke-width="1" fill="none"/>
    <polygon points="286.4582562299426,305.0 308.10889132455355,317.5 308.10889132455355,342.5 286.4582562299426,355.0 264.8076211353316,342.5 264.8076211353316,317.5" stroke="black" stroke-linecap="round" stroke-width="1" fill="none"/>
    <polygon points="329.7595264191645,305.0 351.4101615137755,317.5 351.4101615137755,342.5 329.7595264191645,355.0 308.1088913245535,342.5 308.1088913245535,317.5" stroke="black" stroke-linecap="round" stroke-width="1" fill="none"/>
    <polygon points="373.0607966083864,305.0 394.7114317029974,317.5 394.7114317029974,342.5 373.0607966083864,355.0 351.41016151377545,342.5 351.41016151377545,317.5" stroke="black" stroke-linecap="round" stroke-width="1" fill="none"/>
    <polygon points="416.36206679760835,305.0 438.0127018922193,317.5 438.0127018922193,342.5 416.36206679760835,355.0 394.71143170299734,342.5 394.71143170299734,317.5" stroke="black" stroke-linecap="round" stroke-width="1" fill="none"/>
    <polygon points="459.6633369868302,305.0 481.31397208144114,317.5 481.31397208144114,342.5 459.6633369868302,355.0 438.0127018922193,342.5 438.0127018922193,317.5" stroke="black" stroke-linecap="round" stroke-width="1" fill="none"/>
    <polygon points="502.9646071760522,305.0 524.6152422706631,317.5 524.6152422706631,342.5 502.9646071760522,355.0 481.31397208144125,342.5 481.31397208144125,317.5" stroke="black" stroke-linecap="round" stroke-width="1" fill="none"/>
    <polygon points="546.2658773652742,305.0 567.9165124598851,317.5 567.9165124598851,342.5 546.2658773652742,355.0 524.6152422706632,342.5 524.6152422706632,317.5" stroke="black" stroke-linecap="round" stroke-width="1" fill="none"/>
    <polygon points="589.567147554496,305.0 611.217782649107,317.5 611.217782649107,342.5 589.567147554496,355.0 567.9165124598851,342.5 567.9165124598851,317.5" stroke="black" stroke-linecap="round" stroke-width="1" fill="none"/>
    <polygon points="632.8684177437179,305.0 654.5190528383289,317.5 654.5190528383289,342.5 632.8684177437179,355.0 611.217782649107,342.5 611.217782649107,317.5" stroke="black" stroke-linecap="round" stroke-width="1" fill="none"/>
    <polygon points="676.1696879329398,305.0 697.8203230275508,317.5 697.8203230275508,342.5 676.1696879329398,355.0 654.5190528383289,342.5 654.5190528383289,317.5" stroke="black" stroke-linecap="round" stroke-width="1" fill="none"/>
    <polygon points="719.4709581221618,305.0 741.1215932167728,317.5 741.1215932167728,342.5 719.4709581221618,355.0 697.8203230275509,342.5 697.8203230275509,317.5" stroke="black" stroke-linecap="round" stroke-width="1" fill="none"/>
    <polygon points="762.7722283113837,305.0 784.4228634059947,317.5 784.4228634059947,342.5 762.7722283113837,355.0 741.1215932167728,342.5 741.1215932167728,317.5" stroke="black" stroke-linecap="round" stroke-width="1" fill="none"/>
    <polygon points="806.0734985006056,305.0 827.7241335952167,317.5 827.7241335952167,342.5 806.0734985006056,355.0 784.4228634059947,342.5 784.4228634059947,317.5" stroke="black" stroke-linecap="round" stroke-width="1" fill="none"/>
    <polygon points="849.3747686898278,305.0 871.0254037844387,317.5 871.0254037844387,342.5 849.3747686898278,355.0 827.7241335952167,342.5 827.7241335952167,317.5" stroke="black" stroke-linecap="round" stroke-width="1" fill="none"/>
    <polygon points="48.30127018922193,342.5 69.9519052838329,355.0 69.9519052838329,380.0 48.30127018922193,392.5 26.650635094610966,380.0 26.650635094610966,355.0" stroke="black" stroke-linecap="round" stroke-width="1" fill="none"/>
    <polygon points="91.60254037844386,342.5 113.25317547305482,355.0 113.25317547305482,380.0 91.60254037844386,392.5 69.9519052838329,380.0 69.9519052838329,355.0" stroke="black" stroke-linecap="round" stroke-width="1" fill="none"/>
    <polygon points="134.9038105676658,342.5 156.55444566227675,355.0 156.55444566227675,380.0 134.9038105676658,392.5 113.25317547305484,380.0 113.25317547305484,355.0" stroke="black" stroke-linecap="round" stroke-width="1" fill="none"/>
    <polygon points="178.20508075688772,342.5 199.85571585149867,355.0 199.85571585149867,380.0 178.20508075688772,392.5 156.55444566227675,380.0 156.55444566227675,355.0" stroke="black" stroke-linecap="round" stroke-width="1" fill="none"/>
    <polygon points="221.50635094610965,342.5 243.15698604072062,355.0 243.15698604072062,380.0 221.50635094610965,392.5 199.85571585149867,380.0 199.85571585149867,355.0" stroke="black" stroke-linecap="round" stroke-width="1" fill="none"/>
    <polygon points="264.8076211353316,342.5 286.4582562299426,355.0 286.4582562299426,380.0 264.8076211353316,392.5 243.15698604072062,380.0 243.15698604072062,355.0" stroke="black" stroke-linecap="round" stroke-width="1" fill="none"/>
    <polygon points="308.1088913245535,342.5 329.7595264191645,355.0 329.7595264191645,380.0 308.1088913245535,392.5 286.45825622994255,380.0 286.45825622994255,355.0" stroke="black" stroke-linecap="round" stroke-width="1" fill="none"/>
    <polygon points="351.41016151377545,342.5 373.0607966083864,355.0 373.0607966083864,380.0 351.41016151377545,392.5 329.75952641916444,380.0 329.75952641916444,355.0" stroke="black" stroke-linecap="round" stroke-width="1" fill="none"/>
    <polygon points="394.71143170299734,342.5 416.36206679760835,355.0 416.36206679760835,380.0 394.71143170299734,392.5 373.0607966083864,380.0 373.0607966083864,355.0" stroke="black" stroke-linecap="round" stroke-width="1" fill="none"/>
    <polygon points="438.0127018922193,342.5 459.6633369868302,355.0 459.6633369868302,380.0 438.0127018922193,392.5 416.36206679760835,380.0 416.36206679760835,355.0" stroke="black" stroke-linecap="round" stroke-width="1" fill="none"/>
    <polygon points="481.31397208144125,342.5 502.9646071760522,355.0 502.9646071760522,380.0 481.31397208144125,392.5 459.6633369868303,380.0 459.6633369868303,355.0" stroke="black" stroke-linecap="round" stroke-width="1" fill="none"/>
    <polygon points="524.6152422706632,342.5 546.2658773652742,355.0 546.2658773652742,380.0 524.6152422706632,392.5 502.96460717605225,380.0 502.96460717605225,355.0" stroke="black" stroke-linecap="round" stroke-width="1" fill="none"/>
    <polygon points="567.9165124598851,342.5 589.567147554496,355.0 589.567147554496,380.0 567.9165124598851,392.5 546.2658773652742,380.0 546.2658773652742,355.0" stroke="black" stroke-linecap="round" stroke-width="1" fill="none"/>
    <polygon points="611.217782649107,342.5 632.8684177437179,355.0 632.8684177437179,380.0 611.217782649107,392.5 589.5671475544962,380.0 589.5671475544962,355.0" stroke="black" stroke-linecap="round" stroke-width="1" fill="none"/>
    <polygon points="654.5190528383289,342.5 676.1696879329398,355.0 676.1696879329398,380.0 654.5190528383289,392.5 632.8684177437179,380.0 632.8684177437179,355.0" stroke="black" stroke-linecap="round" stroke-width="1" fill="none"/>
    <polygon points="697.8203230275509,342.5 719.4709581221618,355.0 719.4709581221618,380.0 697.8203230275509,392.5 676.16968793294,380.0 676.16968793294,355.0" stroke="black" stroke-linecap="round" stroke-width="1" fill="none"/>
    <polygon points="741.1215932167728,342.5 762.7722283113837,355.0 762.7722283113837,380.0 741.1215932167728,392.5 719.4709581221618,380.0 719.4709581221618,355.0" stroke="black" stroke-linecap="round" stroke-width="1" fill="none"/>
    <polygon points="784.4228634059947,342.5 806.0734985006056,355.0 806.0734985006056,380.0 784.4228634059947,392.5 762.7722283113837,380.0 762.7722283113837,355.0" stroke="black" stroke-linecap="round" stroke-width="1" fill="none"/>
    <polygon points="827.7241335952167,342.5 849.3747686898278,355.0 849.3747686898278,380.0 827.7241335952167,392.5 806.0734985006056,380.0 806.0734985006056,355.0" stroke="black" stroke-linecap="round" stroke-width="1" fill="none"/>
    <polygon points="26.650635094610966,380.0 48.30127018922193,392.5 48.30127018922193,417.5 26.650635094610966,430.0 5.0,417.5 5.0,392.5" stroke="black" stroke-linecap="round" stroke-width="1" fill="none"/>
    <polygon points="69.9519052838329,380.0 91.60254037844386,392.5 91.60254037844386,417.5 69.9519052838329,430.0 48.30127018922194,417.5 48.30127018922194,392.5" stroke="black" stroke-linecap="round" stroke-width="1" fill="none"/>
    <polygon points="113.25317547305482,380.0 134.90381056766577,392.5 134.90381056766577,417.5 113.25317547305482,430.0 91.60254037844386,417.5 91.60254037844386,392.5" stroke="black" stroke-linecap="round" stroke-width="1" fill="none"/>
    <polygon points="156.55444566227675,380.0 178.20508075688772,392.5 178.20508075688772,417.5 156.55444566227675,430.0 134.9038105676658,417.5 134.9038105676658,392.5" stroke="black" stroke-linecap="round" stroke-width="1" fill="none"/>
    <polygon points="199.85571585149867,380.0 221.50635094610965,392.5 221.50635094610965,417.5 199.85571585149867,430.0 178.20508075688772,417.5 178.20508075688772,392.5" stroke="black" stroke-linecap="round" stroke-width="1" fill="none"/>
    <polygon points="243.15698604072062,380.0 264.8076211353316,392.5 264.8076211353316,417.5 243.15698604072062,430.0 221.50635094610965,417.5 221.50635094610965,392.5" stroke="black" stroke-linecap="round" stroke-width="1" fill="none"/>
    <polygon points="286.4582562299426,380.0 308.10889132455355,392.5 308.10889132455355,417.5 286.4582562299426,430.0 264.8076211353316,417.5 264.8076211353316,392.5" stroke="black" stroke-linecap="round" stroke-width="1" fill="none"/>
    <polygon points="329.7595264191645,380.0 351.4101615137755,392.5 351.4101615137755,417.5 329.7595264191645,430.0 308.1088913245535,417.5 308.1088913245535,392.5" stroke="black" stroke-linecap="round" stroke-width="1" fill="none"/>
    <polygon points="373.0607966083864,380.0 394.7114317029974,392.5 394.7114317029974,417.5 373.0607966083864,430.0 351.41016151377545,417.5 351.41016151377545,392.5" stroke="black" stroke-linecap="round" stroke-width="1" fill="none"/>
    <polygon points="416.36206679760835,380.0 438.0127018922193,392.5 438.0127018922193,417.5 416.36206679760835,430.0 394.71143170299734,417.5 394.71143170299734,392.5" stroke="black" stroke-linecap="round" stroke-width="1" fill="none"/>
    <polygon points="459.6633369868302,380.0 481.31397208144114,392.5 481.31397208144114,417.5 459.6633369868302,430.0 438.0127018922193,417.5 438.0127018922193,392.5" stroke="black" stroke-linecap="round" stroke-width="1" fill="none"/>
    <polygon points="502.9646071760522,380.0 524.6152422706631,392.5 524.6152422706631,417.5 502.9646071760522,430.0 481.31397208144125,417.5 481.31397208144125,392.5" stroke="black" stroke-linecap="round" stroke-width="1" fill="none"/>
    <polygon points="546.2658773652742,380.0 567.9165124598851,392.5 567.9165124598851,417.5 546.2658773652742,430.0 524.6152422706632,417.5 524.6152422706632,392.5" stroke="black" stroke-linecap="round" stroke-width="1" fill="none"/>
    <polygon points="589.567147554496,380.0 611.217782649107,392.5 611.217782649107,417.5 589.567147554496,430.0 567.9165124598851,417.5 567.9165124598851,392.5" stroke="black" stroke-linecap="round" stroke-width="1" fill="none"/>
    <polygon points="632.8684177437179,380.0 654.5190528383289,392.5 654.5190528383289,417.5 632.8684177437179,430.0 611.217782649107,417.5 611.217782649107,392.5" stroke="black" stroke-linecap="round" stroke-width="1" fill="none"/>
    <polygon points="676.1696879329398,380.0 697.8203230275508,392.5 697.8203230275508,417.5 676.1696879329398,430.0 654.5190528383289,417.5 654.5190528383289,392.5" stroke="black" stroke-linecap="round" stroke-width="1" fill="none"/>
    <polygon points="719.4709581221618,380.0 741.1215932167728,392.5 741.1215932167728,417.5 719.4709581221618,430.0 697.8203230275509,417.5 697.8203230275509,392.5" stroke="black" stroke-linecap="round" stroke-width="1" fill="none"/>
    <polygon points="762.7722283113837,380.0 784.4228634059947,392.5 784.4228634059947,417.5 762.7722283113837,430.0 741.1215932167728,417.5 741.1215932167728,392.5" stroke="black" stroke-linecap="round" stroke-width="1" fill="none"/>
    <polygon points="806.0734985006056,380.0 827.7241335952167,392.5 827.7241335952167,417.5 806.0734985006056,430.0 784.4228634059947,417.5 784.4228634059947,392.5" stroke="black" stroke-linecap="round" stroke-width="1" fill="none"/>
    <polygon points="849.3747686898278,380.0 871.0254037844387,392.5 871.0254037844387,417.5 849.3747686898278,430.0 827.7241335952167,417.5 827.7241335952167,392.5" stroke="black" stroke-linecap="round" stroke-width="1" fill="none"/>
    <polygon points="48.30127018922193,417.5 69.9519052838329,430.0 69.9519052838329,455.0 48.30127018922193,467.5 26.650635094610966,455.0 26.650635094610966,430.0" stroke="black" stroke-linecap="round" stroke-width="1" fill="none"/>
    <polygon points="91.60254037844386,417.5 113.25317547305482,430.0 113.25317547305482,455.0 91.60254037844386,467.5 69.9519052838329,455.0 69.9519052838329,430.0" stroke="black" stroke-linecap="round" stroke-width="1" fill="none"/>
    <polygon points="134.9038105676658,417.5 156.55444566227675,430.0 156.55444566227675,455.0 134.9038105676658,467.5 113.25317547305484,455.0 113.25317547305484,430.0" stroke="black" stroke-linecap="round" stroke-width="1" fill="none"/>
    <polygon points="178.20508075688772,417.5 199.85571585149867,430.0 199.85571585149867,455.0 178.20508075688772,467.5 156.55444566227675,455.0 156.55444566227675,430.0" stroke="black" stroke-linecap="round" stroke-width="1" fill="none"/>
    <polygon points="221.50635094610965,417.5 243.15698604072062,430.0 243.15698604072062,455.0 221.50635094610965,467.5 199.85571585149867,455.0 199.85571585149867,430.0" stroke="black" stroke-linecap="round" stroke-width="1" fill="none"/>
    <polygon points="264.8076211353316,417.5 286.4582562299426,430.0 286.4582562299426,455.0 264.8076211353316,467.5 243.15698604072062,455.0 243.15698604072062,430.0" stroke="black" stroke-linecap="round" stroke-width="1" fill="none"/>
    <polygon points="308.1088913245535,417.5 329.7595264191645,430.0 329.7595264191645,455.0 308.1088913245535,467.5 286.45825622994255,455.0 286.45825622994255,430.0" stroke="black" stroke-linecap="round" stroke-width="1" fill="none"/>
    <polygon points="351.41016151377545,417.5 373.0607966083864,430.0 373.0607966083864,455.0 351.41016151377545,467.5 329.75952641916444,455.0 329.75952641916444,430.0" stroke="black" stroke-linecap="round" stroke-width="1" fill="none"/>
    <polygon points="394.71143170299734,417.5 416.36206679760835,430.0 416.36206679760835,455.0 394.71143170299734,467.5 373.0607966083864,455.0 373.0607966083864,430.0" stroke="black" stroke-linecap="round" stroke-width="1" fill="none"/>
    <polygon points="438.0127018922193,417.5 459.6633369868302,430.0 459.6633369868302,455.0 438.0127018922193,467.5 416.36206679760835,455.0 416.36206679760835,430.0" stroke="black" stroke-linecap="round" stroke-width="1" fill="none"/>
    <polygon points="481.31397208144125,417.5 502.9646071760522,430.0 502.9646071760522,455.0 481.31397208144125,467.5 459.6633369868303,455.0 459.6633369868303,430.0" stroke="black" stroke-linecap="round" stroke-width="1" fill="none"/>
    <polygon points="524.6152422706632,417.5 546.2658773652742,430.0 546.2658773652742,455.0 524.6152422706632,467.5 502.96460717605225,455.0 502.96460717605225,430.0" stroke="black" stroke-linecap="round" stroke-width="1" fill="none"/>
    <polygon points="567.9165124598851,417.5 589.567147554496,430.0 589.567147554496,455.0 567.9165124598851,467.5 546.2658773652742,455.0 546.2658773652742,430.0" stroke="black" stroke-linecap="round" stroke-width="1" fill="none"/>
    <polygon points="611.217782649107,417.5 632.8684177437179,430.0 632.8684177437179,455.0 611.217782649107,467.5 589.5671475544962,455.0 589.5671475544962,430.0" stroke="black" stroke-linecap="round" stroke-width="1" fill="none"/>
    <polygon points="654.5190528383289,417.5 676.1696879329398,430.0 676.1696879329398,455.0 654.5190528383289,467.5 632.8684177437179,455.0 632.8684177437179,430.0" stroke="black" stroke-linecap="round" stroke-width="1" fill="none"/>
    <polygon points="697.8203230275509,417.5 719.4709581221618,430.0 719.4709581221618,455.0 697.8203230275509,467.5 676.16968793294,455.0 676.16968793294,430.0" stroke="black" stroke-linecap="round" stroke-width="1" fill="none"/>
    <polygon points="741.1215932167728,417.5 762.7722283113837,430.0 762.7722283113837,455.0 741.1215932167728,467.5 719.4709581221618,455.0 719.4709581221618,430.0" stroke="black" stroke-linecap="round" stroke-width="1" fill="none"/>
    <polygon points="784.4228634059947,417.5 806.0734985006056,430.0 806.0734985006056,455.0 784.4228634059947,467.5 762.7722283113837,455.0 762.7722283113837,430.0" stroke="black" stroke-linecap="round" stroke-width="1" fill="none"/>
    <polygon points="827.7241335952167,417.5 849.3747686898278,430.0 849.3747686898278,455.0 827.7241335952167,467.5 806.0734985006056,455.0 806.0734985006056,430.0" stroke="black" stroke-linecap="round" stroke-width="1" fill="none"/>
    <polygon points="26.650635094610966,455.0 48.30127018922193,467.5 48.30127018922193,492.5 26.650635094610966,505.0 5.0,492.5 5.0,467.5" stroke="black" stroke-linecap="round" stroke-width="1" fill="none"/>
    <polygon points="69.9519052838329,455.0 91.60254037844386,467.5 91.60254037844386,492.5 69.9519052838329,505.0 48.30127018922194,492.5 48.30127018922194,467.5" stroke="black" stroke-linecap="round" stroke-width="1" fill="none"/>
    <polygon points="113.25317547305482,455.0 134.90381056766577,467.5 134.90381056766577,492.5 113.25317547305482,505.0 91.60254037844386,492.5 91.60254037844386,467.5" stroke="black" stroke-linecap="round" stroke-width="1" fill="none"/>
    <polygon points="156.55444566227675,455.0 178.20508075688772,467.5 178.20508075688772,492.5 156.55444566227675,505.0 134.9038105676658,492.5 134.9038105676658,467.5" stroke="black" stroke-linecap="round" stroke-width="1" fill="none"/>
    <polygon points="199.85571585149867,455.0 221.50635094610965,467.5 221.50635094610965,492.5 199.85571585149867,505.0 178.20508075688772,492.5 178.20508075688772,467.5" stroke="black" stroke-linecap="round" stroke-width="1" fill="none"/>
    <polygon points="243.15698604072062,455.0 264.8076211353316,467.5 264.8076211353316,492.5 243.15698604072062,505.0 221.50635094610965,492.5 221.50635094610965,467.5" stroke="black" stroke-linecap="round" stroke-width="1" fill="none"/>
    <polygon points="286.4582562299426,455.0 308.10889132455355,467.5 308.10889132455355,492.5 286.4582562299426,505.0 264.8076211353316,492.5 264.8076211353316,467.5" stroke="black" stroke-linecap="round" stroke-width="1" fill="none"/>
    <polygon points="329.7595264191645,455.0 351.4101615137755,467.5 351.4101615137755,492.5 329.7595264191645,505.0 308.1088913245535,492.5 308.1088913245535,467.5" stroke="black" stroke-linecap="round" stroke-width="1" fill="none"/>
    <polygon points="373.0607966083864,455.0 394.7114317029974,467.5 394.7114317029974,492.5 373.0607966083864,505.0 351.41016151377545,492.5 351.41016151377545,467.5" stroke="black" stroke-linecap="round" stroke-width="1" fill="none"/>
    <polygon points="416.36206679760835,455.0 438.0127018922193,467.5 438.0127018922193,492.5 416.36206679760835,505.0 394.71143170299734,492.5 394.71143170299734,467.5" stroke="black" stroke-linecap="round" stroke-width="1" fill="none"/>
    <polygon points="459.6633369868302,455.0 481.31397208144114,467.5 481.31397208144114,492.5 459.6633369868302,505.0 438.0127018922193,492.5 438.0127018922193,467.5" stroke="black" stroke-linecap="round" stroke-width="1" fill="none"/>
    <polygon points="502.9646071760522,455.0 524.6152422706631,467.5 524.6152422706631,492.5 502.9646071760522,505.0 481.31397208144125,492.5 481.31397208144125,467.5" stroke="black" stroke-linecap="round" stroke-width="1" fill="none"/>
    <polygon points="546.2658773652742,455.0 567.9165124598851,467.5 567.9165124598851,492.5 546.2658773652742,505.0 524.6152422706632,492.5 524.6152422706632,467.5" stroke="black" stroke-linecap="round" stroke-width="1" fill="none"/>
    <polygon points="589.567147554496,455.0 611.217782649107,467.5 611.217782649107,492.5 589.567147554496,505.0 567.9165124598851,492.5 567.9165124598851,467.5" stroke="black" stroke-linecap="round" stroke-width="1" fill="none"/>
    <polygon points="632.8684177437179,455.0 654.5190528383289,467.5 654.5190528383289,492.5 632.8684177437179,505.0 611.217782649107,492.5 611.217782649107,467.5" stroke="black" stroke-linecap="round" stroke-width="1" fill="none"/>
    <polygon points="676.1696879329398,455.0 697.8203230275508,467.5 697.8203230275508,492.5 676.1696879329398,505.0 654.5190528383289,492.5 654.5190528383289,467.5" stroke="black" stroke-linecap="round" stroke-width="1" fill="none"/>
    <polygon points="719.4709581221618,455.0 741.1215932167728,467.5 741.1215932167728,492.5 719.4709581221618,505.0 697.8203230275509,492.5 697.8203230275509,467.5" stroke="black" stroke-linecap="round" stroke-width="1" fill="none"/>
    <polygon points="762.7722283113837,455.0 784.4228634059947,467.5 784.4228634059947,492.5 762.7722283113837,505.0 741.1215932167728,492.5 741.1215932167728,467.5" stroke="black" stroke-linecap="round" stroke-width="1" fill="none"/>
    <polygon points="806.0734985006056,455.0 827.7241335952167,467.5 827.7241335952167,492.5 806.0734985006056,505.0 784.4228634059947,492.5 784.4228634059947,467.5" stroke="black" stroke-linecap="round" stroke-width="1" fill="none"/>
    <polygon points="849.3747686898278,455.0 871.0254037844387,467.5 871.0254037844387,492.5 849.3747686898278,505.0 827.7241335952167,492.5 827.7241335952167,467.5" stroke="black" stroke-linecap="round" stroke-width="1" fill="none"/>
    <polygon points="48.30127018922193,492.5 69.9519052838329,505.0 69.9519052838329,530.0 48.30127018922193,542.5 26.650635094610966,530.0 26.650635094610966,505.0" stroke="black" stroke-linecap="round" stroke-width="1" fill="none"/>
    <polygon points="91.60254037844386,492.5 113.25317547305482,505.0 113.25317547305482,530.0 91.60254037844386,542.5 69.9519052838329,530.0 69.9519052838329,505.0" stroke="black" stroke-linecap="round" stroke-width="1" fill="none"/>
    <polygon points="134.9038105676658,492.5 156.55444566227675,505.0 156.55444566227675,530.0 134.9038105676658,542.5 113.25317547305484,530.0 113.25317547305484,505.0" stroke="black" stroke-linecap="round" stroke-width="1" fill="none"/>
    <polygon points="178.20508075688772,492.5 199.85571585149867,505.0 199.85571585149867,530.0 178.20508075688772,542.5 156.55444566227675,530.0 156.55444566227675,505.0" stroke="black" stroke-linecap="round" stroke-width="1" fill="none"/>
    <polygon points="221.50635094610965,492.5 243.15698604072062,505.0 243.15698604072062,530.0 221.50635094610965,542.5 199.85571585149867,530.0 199.85571585149867,505.0" stroke="black" stroke-linecap="round" stroke-width="1" fill="none"/>
    <polygon points="264.8076211353316,492.5 286.4582562299426,505.0 286.4582562299426,530.0 264.8076211353316,542.5 243.15698604072062,530.0 243.15698604072062,505.0" stroke="black" stroke-linecap="round" stroke-width="1" fill="none"/>
    <polygon points="308.1088913245535,492.5 329.7595264191645,505.0 329.7595264191645,530.0 308.1088913245535,542.5 286.45825622994255,530.0 286.45825622994255,505.0" stroke="black" stroke-linecap="round" stroke-width="1" fill="none"/>
    <polygon points="351.41016151377545,492.5 373.0607966083864,505.0 373.0607966083864,530.0 351.41016151377545,542.5 329.75952641916444,530.0 329.75952641916444,505.0" stroke="black" stroke-linecap="round" stroke-width="1" fill="none"/>
    <polygon points="394.71143170299734,492.5 416.36206679760835,505.0 416.36206679760835,530.0 394.71143170299734,542.5 373.0607966083864,530.0 373.0607966083864,505.0" stroke="black" stroke-linecap="round" stroke-width="1" fill="none"/>
    <polygon points="438.0127018922193,492.5 459.6633369868302,505.0 459.6633369868302,530.0 438.0127018922193,542.5 416.36206679760835,530.0 416.36206679760835,505.0" stroke="black" stroke-linecap="round" stroke-width="1" fill="none"/>
    <polygon points="481.31397208144125,492.5 502.9646071760522,505.0 502.9646071760522,530.0 481.31397208144125,542.5 459.6633369868303,530.0 459.6633369868303,505.0" stroke="black" stroke-linecap="round" stroke-width="1" fill="none"/>
    <polygon points="524.6152422706632,492.5 546.2658773652742,505.0 546.2658773652742,530.0 524.6152422706632,542.5 502.96460717605225,530.0 502.96460717605225,505.0" stroke="black" stroke-linecap="round" stroke-width="1" fill="none"/>
    <polygon points="567.9165124598851,492.5 589.567147554496,505.0 589.567147554496,530.0 567.9165124598851,542.5 546.2658773652742,530.0 546.2658773652742,505.0" stroke="black" stroke-linecap="round" stroke-width="1" fill="none"/>
    <polygon points="611.217782649107,492.5 632.8684177437179,505.0 632.8684177437179,530.0 611.217782649107,542.5 589.5671475544962,530.0 589.5671475544962,505.0" stroke="black" stroke-linecap="round" stroke-width="1" fill="none"/>
    <polygon points="654.5190528383289,492.5 676.1696879329398,505.0 676.1696879329398,530.0 654.5190528383289,542.5 632.8684177437179,530.0 632.8684177437179,505.0" stroke="black" stroke-linecap="round" stroke-width="1" fill="none"/>
    <polygon points="697.8203230275509,492.5 719.4709581221618,505.0 719.4709581221618,530.0 697.8203230275509,542.5 676.16968793294,530.0 676.16968793294,505.0" stroke="black" stroke-linecap="round" stroke-width="1" fill="none"/>
    <polygon points="741.1215932167728,492.5 762.7722283113837,505.0 762.7722283113837,530.0 741.1215932167728,542.5 719.4709581221618,530.0 719.4709581221618,505.0" stroke="black" stroke-linecap="round" stroke-width="1" fill="none"/>
    <polygon points="784.4228634059947,492.5 806.0734985006056,505.0 806.0734985006056,530.0 784.4228634059947,542.5 762.7722283113837,530.0 762.7722283113837,505.0" stroke="black" stroke-linecap="round" stroke-width="1" fill="none"/>
    <polygon points="827.7241335952167,492.5 849.3747686898278,505.0 849.3747686898278,530.0 827.7241335952167,542.5 806.0734985006056,530.0 806.0734985006056,505.0" stroke="black" stroke-linecap="round" stroke-width="1" fill="none"/>
    <polygon points="26.650635094610966,530.0 48.30127018922193,542.5 48.30127018922193,567.5 26.650635094610966,580.0 5.0,567.5 5.0,542.5" stroke="black" stroke-linecap="round" stroke-width="1" fill="none"/>
    <polygon points="69.9519052838329,530.0 91.60254037844386,542.5 91.60254037844386,567.5 69.9519052838329,580.0 48.30127018922194,567.5 48.30127018922194,542.5" stroke="black" stroke-linecap="round" stroke-width="1" fill="none"/>
    <polygon points="113.25317547305482,530.0 134.90381056766577,542.5 134.90381056766577,567.5 113.25317547305482,580.0 91.60254037844386,567.5 91.60254037844386,542.5" stroke="black" stroke-linecap="round" stroke-width="1" fill="none"/>
    <polygon points="156.55444566227675,530.0 178.20508075688772,542.5 178.20508075688772,567.5 156.55444566227675,580.0 134.9038105676658,567.5 134.9038105676658,542.5" stroke="black" stroke-linecap="round" stroke-width="1" fill="none"/>
    <polygon points="199.85571585149867,530.0 221.50635094610965,542.5 221.50635094610965,567.5 199.85571585149867,580.0 178.20508075688772,567.5 178.20508075688772,542.5" stroke="black" stroke-linecap="round" stroke-width="1" fill="none"/>
    <polygon points="243.15698604072062,530.0 264.8076211353316,542.5 264.8076211353316,567.5 243.15698604072062,580.0 221.50635094610965,567.5 221.50635094610965,542.5" stroke="black" stroke-linecap="round" stroke-width="1" fill="none"/>
    <polygon points="286.4582562299426,530.0 308.10889132455355,542.5 308.10889132455355,567.5 286.4582562299426,580.0 264.8076211353316,567.5 264.8076211353316,542.5" stroke="black" stroke-linecap="round" stroke-width="1" fill="none"/>
    <polygon points="329.7595264191645,530.0 351.4101615137755,542.5 351.4101615137755,567.5 329.7595264191645,580.0 308.1088913245535,567.5 308.1088913245535,542.5" stroke="black" stroke-linecap="round" stroke-width="1" fill="none"/>
    <polygon points="373.0607966083864,530.0 394.7114317029974,542.5 394.7114317029974,567.5 373.0607966083864,580.0 351.41016151377545,567.5 351.41016151377545,542.5" stroke="black" stroke-linecap="round" stroke-width="1" fill="none"/>
    <polygon points="416.36206679760835,530.0 438.0127018922193,542.5 438.0127018922193,567.5 416.36206679760835,580.0 394.71143170299734,567.5 394.71143170299734,542.5" stroke="black" stroke-linecap="round" stroke-width="1" fill="none"/>
    <polygon points="459.6633369868302,530.0 481.31397208144114,542.5 481.31397208144114,567.5 459.6633369868302,580.0 438.0127018922193,567.5 438.0127018922193,542.5" stroke="black" stroke-linecap="round" stroke-width="1" fill="none"/>
    <polygon points="502.9646071760522,530.0 524.6152422706631,542.5 524.6152422706631,567.5 502.9646071760522,580.0 481.31397208144125,567.5 481.31397208144125,542.5" stroke="black" stroke-linecap="round" stroke-width="1" fill="none"/>
    <polygon points="546.2658773652742,530.0 567.9165124598851,542.5 567.9165124598851,567.5 546.2658773652742,580.0 524.6152422706632,567.5 524.6152422706632,542.5" stroke="black" stroke-linecap="round" stroke-width="1" fill="none"/>
    <polygon points="589.567147554496,530.0 611.217782649107,542.5 611.217782649107,567.5 589.567147554496,580.0 567.9165124598851,567.5 567.9165124598851,542.5" stroke="black" stroke-linecap="round" stroke-width="1" fill="none"/>
    <polygon points="632.8684177437179,530.0 654.5190528383289,542.5 654.5190528383289,567.5 632.8684177437179,580.0 611.217782649107,567.5 611.217782649107,542.5" stroke="black" stroke-linecap="round" stroke-width="1" fill="none"/>
    <polygon points="676.1696879329398,530.0 697.8203230275508,542.5 697.8203230275508,567.5 676.1696879329398,580.0 654.5190528383289,567.5 654.5190528383289,542.5" stroke="black" stroke-linecap="round" stroke-width="1" fill="none"/>
    <polygon points="719.4709581221618,530.0 741.1215932167728,542.5 741.1215932167728,567.5 719.4709581221618,580.0 697.8203230275509,567.5 697.8203230275509,542.5" stroke="black" stroke-linecap="round" stroke-width="1" fill="none"/>
    <polygon points="762.7722283113837,530.0 784.4228634059947,542.5 784.4228634059947,567.5 762.7722283113837,580.0 741.1215932167728,567.5 741.1215932167728,542.5" stroke="black" stroke-linecap="round" stroke-width="1" fill="none"/>
    <polygon points="806.0734985006056,530.0 827.7241335952167,542.5 827.7241335952167,567.5 806.0734985006056,580.0 784.4228634059947,567.5 784.4228634059947,542.5" stroke="black" stroke-linecap="round" stroke-width="1" fill="none"/>
    <polygon points="849.3747686898278,530.0 871.0254037844387,542.5 871.0254037844387,567.5 849.3747686898278,580.0 827.7241335952167,567.5 827.7241335952167,542.5" stroke="black" stroke-linecap="round" stroke-width="1" fill="none"/>
    <polygon points="48.30127018922193,567.5 69.9519052838329,580.0 69.9519052838329,605.0 48.30127018922193,617.5 26.650635094610966,605.0 26.650635094610966,580.0" stroke="black" stroke-linecap="round" stroke-width="1" fill="none"/>
    <polygon points="91.60254037844386,567.5 113.25317547305482,580.0 113.25317547305482,605.0 91.60254037844386,617.5 69.9519052838329,605.0 69.9519052838329,580.0" stroke="black" stroke-linecap="round" stroke-width="1" fill="none"/>
    <polygon points="134.9038105676658,567.5 156.55444566227675,580.0 156.55444566227675,605.0 134.9038105676658,617.5 113.25317547305484,605.0 113.25317547305484,580.0" stroke="black" stroke-linecap="round" stroke-width="1" fill="none"/>
    <polygon points="178.20508075688772,567.5 199.85571585149867,580.0 199.85571585149867,605.0 178.20508075688772,617.5 156.55444566227675,605.0 156.55444566227675,580.0" stroke="black" stroke-linecap="round" stroke-width="1" fill="none"/>
    <polygon points="221.50635094610965,567.5 243.15698604072062,580.0 243.15698604072062,605.0 221.50635094610965,617.5 199.85571585149867,605.0 199.85571585149867,580.0" stroke="black" stroke-linecap="round" stroke-width="1" fill="none"/>
    <polygon points="264.8076211353316,567.5 286.4582562299426,580.0 286.4582562299426,605.0 264.8076211353316,617.5 243.15698604072062,605.0 243.15698604072062,580.0" stroke="black" stroke-linecap="round" stroke-width="1" fill="none"/>
    <polygon points="308.1088913245535,567.5 329.7595264191645,580.0 329.7595264191645,605.0 308.1088913245535,617.5 286.45825622994255,605.0 286.45825622994255,580.0" stroke="black" stroke-linecap="round" stroke-width="1" fill="none"/>
    <polygon points="351.41016151377545,567.5 373.0607966083864,580.0 373.0607966083864,605.0 351.41016151377545,617.5 329.75952641916444,605.0 329.75952641916444,580.0" stroke="black" stroke-linecap="round" stroke-width="1" fill="none"/>
    <polygon points="394.71143170299734,567.5 416.36206679760835,580.0 416.36206679760835,605.0 394.71143170299734,617.5 373.0607966083864,605.0 373.0607966083864,580.0" stroke="black" stroke-linecap="round" stroke-width="1" fill="none"/>
    <polygon points="438.0127018922193,567.5 459.6633369868302,580.0 459.6633369868302,605.0 438.0127018922193,617.5 416.36206679760835,605.0 416.36206679760835,580.0" stroke="black" stroke-linecap="round" stroke-width="1" fill="none"/>
    <polygon points="481.31397208144125,567.5 502.9646071760522,580.0 502.9646071760522,605.0 481.31397208144125,617.5 459.6633369868303,605.0 459.6633369868303,580.0" stroke="black" stroke-linecap="round" stroke-width="1" fill="none"/>
    <polygon points="524.6152422706632,567.5 546.2658773652742,580.0 546.2658773652742,605.0 524.6152422706632,617.5 502.96460717605225,605.0 502.96460717605225,580.0" stroke="black" stroke-linecap="round" stroke-width="1" fill="none"/>
    <polygon points="567.9165124598851,567.5 589.567147554496,580.0 589.567147554496,605.0 567.9165124598851,617.5 546.2658773652742,605.0 546.2658773652742,580.0" stroke="black" stroke-linecap="round" stroke-width="1" fill="none"/>
    <polygon points="611.217782649107,567.5 632.8684177437179,580.0 632.8684177437179,605.0 611.217782649107,617.5 589.5671475544962,605.0 589.5671475544962,580.0" stroke="black" stroke-linecap="round" stroke-width="1" fill="none"/>
    <polygon points="654.5190528383289,567.5 676.1696879329398,580.0 676.1696879329398,605.0 654.5190528383289,617.5 632.8684177437179,605.0 632.8684177437179,580.0" stroke="black" stroke-linecap="round" stroke-width="1" fill="none"/>
    <polygon points="697.8203230275509,567.5 719.4709581221618,580.0 719.4709581221618,605.0 697.8203230275509,617.5 676.16968793294,605.0 676.16968793294,580.0" stroke="black" stroke-linecap="round" stroke-width="1" fill="none"/>
    <polygon points="741.1215932167728,567.5 762.7722283113837,580.0 762.7722283113837,605.0 741.1215932167728,617.5 719.4709581221618,605.0 719.4709581221618,580.0" stroke="black" stroke-linecap="round" stroke-width="1" fill="none"/>
    <polygon points="784.4228634059947,567.5 806.0734985006056,580.0 806.0734985006056,605.0 784.4228634059947,617.5 762.7722283113837,605.0 762.7722283113837,580.0" stroke="black" stroke-linecap="round" stroke-width="1" fill="none"/>
    <polygon points="827.7241335952167,567.5 849.3747686898278,580.0 849.3747686898278,605.0 827.7241335952167,617.5 806.0734985006056,605.0 806.0734985006056,580.0" stroke="black" stroke-linecap="round" stroke-width="1" fill="none"/>
    <polygon points="26.650635094610966,605.0 48.30127018922193,617.5 48.30127018922193,642.5 26.650635094610966,655.0 5.0,642.5 5.0,617.5" stroke="black" stroke-linecap="round" stroke-width="1" fill="none"/>
    <polygon points="69.9519052838329,605.0 91.60254037844386,617.5 91.60254037844386,642.5 69.9519052838329,655.0 48.30127018922194,642.5 48.30127018922194,617.5" stroke="black" stroke-linecap="round" stroke-width="1" fill="none"/>
    <polygon points="113.25317547305482,605.0 134.90381056766577,617.5 134.90381056766577,642.5 113.25317547305482,655.0 91.60254037844386,642.5 91.60254037844386,617.5" stroke="black" stroke-linecap="round" stroke-width="1" fill="none"/>
    <polygon points="156.55444566227675,605.0 178.20508075688772,617.5 178.20508075688772,642.5 156.55444566227675,655.0 134.9038105676658,642.5 134.9038105676658,617.5" stroke="black" stroke-linecap="round" stroke-width="1" fill="none"/>
    <polygon points="199.85571585149867,605.0 221.50635094610965,617.5 221.50635094610965,642.5 199.85571585149867,655.0 178.20508075688772,642.5 178.20508075688772,617.5" stroke="black" stroke-linecap="round" stroke-width="1" fill="none"/>
    <polygon points="243.15698604072062,605.0 264.8076211353316,617.5 264.8076211353316,642.5 243.15698604072062,655.0 221.50635094610965,642.5 221.50635094610965,617.5" stroke="black" stroke-linecap="round" stroke-width="1" fill="none"/>
    <polygon points="286.4582562299426,605.0 308.10889132455355,617.5 308.10889132455355,642.5 286.4582562299426,655.0 264.8076211353316,642.5 264.8076211353316,617.5" stroke="black" stroke-linecap="round" stroke-width="1" fill="none"/>
    <polygon points="329.7595264191645,605.0 351.4101615137755,617.5 351.4101615137755,642.5 329.7595264191645,655.0 308.1088913245535,642.5 308.1088913245535,617.5" stroke="black" stroke-linecap="round" stroke-width="1" fill="none"/>
    <polygon points="373.0607966083864,605.0 394.7114317029974,617.5 394.7114317029974,642.5 373.0607966083864,655.0 351.41016151377545,642.5 351.41016151377545,617.5" stroke="black" stroke-linecap="round" stroke-width="1" fill="none"/>
    <polygon points="416.36206679760835,605.0 438.0127018922193,617.5 438.0127018922193,642.5 416.36206679760835,655.0 394.71143170299734,642.5 394.71143170299734,617.5" stroke="black" stroke-linecap="round" stroke-width="1" fill="none"/>
    <polygon points="459.6633369868302,605.0 481.31397208144114,617.5 481.31397208144114,642.5 459.6633369868302,655.0 438.0127018922193,642.5 438.0127018922193,617.5" stroke="black" stroke-linecap="round" stroke-width="1" fill="none"/>
    <polygon points="502.9646071760522,605.0 524.6152422706631,617.5 524.6152422706631,642.5 502.9646071760522,655.0 481.31397208144125,642.5 481.31397208144125,617.5" stroke="black" stroke-linecap="round" stroke-width="1" fill="none"/>
    <polygon points="546.2658773652742,605.0 567.9165124598851,617.5 567.9165124598851,642.5 546.2658773652742,655.0 524.6152422706632,642.5 524.6152422706632,617.5" stroke="black" stroke-linecap="round" stroke-width="1" fill="none"/>
    <polygon points="589.567147554496,605.0 611.217782649107,617.5 611.217782649107,642.5 589.567147554496,655.0 567.9165124598851,642.5 567.9165124598851,617.5" stroke="black" stroke-linecap="round" stroke-width="1" fill="none"/>
    <polygon points="632.8684177437179,605.0 654.5190528383289,617.5 654.5190528383289,642.5 632.8684177437179,655.0 611.217782649107,642.5 611.217782649107,617.5" stroke="black" stroke-linecap="round" stroke-width="1" fill="none"/>
    <polygon points="676.1696879329398,605.0 697.8203230275508,617.5 697.8203230275508,642.5 676.1696879329398,655.0 654.5190528383289,642.5 654.5190528383289,617.5" stroke="black" stroke-linecap="round" stroke-width="1" fill="none"/>
    <polygon points="719.4709581221618,605.0 741.1215932167728,617.5 741.1215932167728,642.5 719.4709581221618,655.0 697.8203230275509,642.5 697.8203230275509,617.5" stroke="black" stroke-linecap="round" stroke-width="1" fill="none"/>
    <polygon points="762.7722283113837,605.0 784.4228634059947,617.5 784.4228634059947,642.5 762.7722283113837,655.0 741.1215932167728,642.5 741.1215932167728,617.5" stroke="black" stroke-linecap="round" stroke-width="1" fill="none"/>
    <polygon points="806.0734985006056,605.0 827.7241335952167,617.5 827.7241335952167,642.5 806.0734985006056,655.0 784.4228634059947,642.5 784.4228634059947,617.5" stroke="black" stroke-linecap="round" stroke-width="1" fill="none"/>
    <polygon points="849.3747686898278,605.0 871.0254037844387,617.5 871.0254037844387,642.5 849.3747686898278,655.0 827.7241335952167,642.5 827.7241335952167,617.5" stroke="black" stroke-linecap="round" stroke-width="1" fill="none"/>
</svg>
