<?xml version="1.0" encoding="UTF-8" standalone="no"?>
<!DOCTYPE svg PUBLIC "-//W3C//DTD SVG 1.1//EN" "http://www.w3.org/Graphics/SVG/1.1/DTD/svg11.dtd">
<svg width="443.0127018922193" height="360.0" viewBox="0 0 443.0127018922193 360.0" xmlns="http://www.w3.org/2000/svg" xmlns:xlink="http://www.w3.org/1999/xlink">
    <polygon points="5.0,5.0 5.0,355.0 438.0127018922193,355.0 438.0127018922193,5.0" fill="white" stroke="black" stroke-linecap="round" stroke-width="1"/>
    <polygon points="26.650635094610966,5.0 48.30127018922193,17.5 48.30127018922193,42.5 26.650635094610966,55.0 5.0,42.5 5.0,17.5" stroke="black" stroke-linecap="round" stroke-width="1" fill="none"/>
    <polygon points="69.9519052838329,5.0 91.60254037844386,17.5 91.60254037844386,42.5 69.9519052838329,55.0 48.30127018922194,42.5 48.30127018922194,17.5" stroke="black" stroke-linecap="round" stroke-width="1" fill="none"/>
    <polygon points="113.25317547305482,5.0 134.90381056766577,17.5 134.90381056766577,42.5 113.25317547305482,55.0 91.60254037844386,42.5 91.60254037844386,17.5" stroke="black" stroke-linecap="round" stroke-width="1" fill="none"/>
    <polygon points="156.55444566227675,5.0 178.20508075688772,17.5 178.20508075688772,42.5 156.55444566227675,55.0 134.9038105676658,42.5 134.9038105676658,17.5" stroke="black" stroke-linecap="round" stroke-width="1" fill="none"/>
    <polygon points="199.85571585149867,5.0 221.50635094610965,17.5 221.50635094610965,42.5 199.85571585149867,55.0 178.20508075688772,42.5 178.20508075688772,17.5" stroke="black" stroke-linecap="round" stroke-width="1" fill="none"/>
    <polygon points="243.15698604072062,5.0 264.8076211353316,17.5 264.8076211353316,42.5 243.15698604072062,55.0 221.50635094610965,42.5 221.50635094610965,17.5" stroke="black" stroke-linecap="round" stroke-width="1" fill="none"/>
    <polygon points="286.4582562299426,5.0 308.10889132455355,17.5 308.10889132455355,42.5 286.4582562299426,55.0 264.8076211353316,42.5 264.8076211353316,17.5" stroke="black" stroke-linecap="round" stroke-width="1" fill="none"/>
    <polygon points="329.7595264191645,5.0 351.4101615137755,17.5 351.4101615137755,42.5 329.7595264191645,55.0 308.1088913245535,42.5 308.1088913245535,17.5" stroke="black" stroke-linecap="round" stroke-width="1" fill="none"/>
    <polygon points="373.0607966083864,5.0 394.7114317029974,17.5 394.7114317029974,42.5 373.0607966083864,55.0 351.41016151377545,42.5 351.41016151377545,17.5" stroke="black" stroke-linecap="round" stroke-width="1" fill="none"/>
    <polygon points="416.36206679760835,5.0 438.0127018922193,17.5 438.0127018922193,42.5 416.36206679760835,55.0 394.71143170299734,42.5 394.71143170299734,17.5" stroke="black" stroke-linecap="round" stroke-width="1" fill="none"/>
    <polygon points="48.30127018922193,42.5 69.9519052838329,55.0 69.9519052838329,80.0 48.30127018922193,92.5 26.650635094610966,80.0 26.650635094610966,55.0" stroke="black" stroke-linecap="round" stroke-width="1" fill="none"/>
    <polygon points="91.60254037844386,42.5 113.25317547305482,55.0 113.25317547305482,80.0 91.60254037844386,92.5 69.9519052838329,80.0 69.9519052838329,55.0" stroke="black" stroke-linecap="round" stroke-width="1" fill="none"/>
    <polygon points="134.9038105676658,42.5 156.55444566227675,55.0 156.55444566227675,80.0 134.9038105676658,92.5 113.25317547305484,80.0 113.25317547305484,55.0" stroke="black" stroke-linecap="round" stroke-width="1" fill="none"/>
    <polygon points="178.20508075688772,42.5 199.85571585149867,55.0 199.85571585149867,80.0 178.20508075688772,92.5 156.55444566227675,80.0 156.55444566227675,55.0" stroke="black" stroke-linecap="round" stroke-width="1" fill="none"/>
    <polygon points="221.50635094610965,42.5 243.15698604072062,55.0 243.15698604072062,80.0 221.50635094610965,92.5 199.85571585149867,80.0 199.85571585149867,55.0" stroke="black" stroke-linecap="round" stroke-width="1" fill="none"/>
    <polygon points="264.8076211353316,42.5 286.4582562299426,55.0 286.4582562299426,80.0 264.8076211353316,92.5 243.15698604072062,80.0 243.15698604072062,55.0" stroke="black" stroke-linecap="round" stroke-width="1" fill="none"/>
    <polygon points="308.1088913245535,42.5 329.7595264191645,55.0 329.7595264191645,80.0 308.1088913245535,92.5 286.45825622994255,80.0 286.45825622994255,55.0" stroke="black" stroke-linecap="round" stroke-width="1" fill="none"/>
    <polygon points="351.41016151377545,42.5 373.0607966083864,55.0 373.0607966083864,80.0 351.41016151377545,92.5 329.75952641916444,80.0 329.75952641916444,55.0" stroke="black" stroke-linecap="round" stroke-width="1" fill="none"/>
    <polygon points="394.71143170299734,42.5 416.36206679760835,55.0 416.36206679760835,80.0 394.71143170299734,92.5 373.0607966083864,80.0 373.0607966083864,55.0" stroke="black" stroke-linecap="round" stroke-width="1" fill="none"/>
    <polygon points="26.650635094610966,80.0 48.30127018922193,92.5 48.30127018922193,117.5 26.650635094610966,130.0 5.0,117.5 5.0,92.5" stroke="black" stroke-linecap="round" stroke-width="1" fill="none"/>
    <polygon points="69.9519052838329,80.0 91.60254037844386,92.5 91.60254037844386,117.5 69.9519052838329,130.0 48.30127018922194,117.5 48.30127018922194,92.5" stroke="black" stroke-linecap="round" stroke-width="1" fill="none"/>
    <polygon points="113.25317547305482,80.0 134.90381056766577,92.5 134.90381056766577,117.5 113.25317547305482,130.0 91.60254037844386,117.5 91.60254037844386,92.5" stroke="black" stroke-linecap="round" stroke-width="1" fill="none"/>
    <polygon points="156.55444566227675,80.0 178.20508075688772,92.5 178.20508075688772,117.5 156.55444566227675,130.0 134.9038105676658,117.5 134.9038105676658,92.5" stroke="black" stroke-linecap="round" stroke-width="1" fill="none"/>
    <polygon points="199.85571585149867,80.0 221.50635094610965,92.5 221.50635094610965,117.5 199.85571585149867,130.0 178.20508075688772,117.5 178.20508075688772,92.5" stroke="black" stroke-linecap="round" stroke-width="1" fill="none"/>
    <polygon points="243.15698604072062,80.0 264.8076211353316,92.5 264.8076211353316,117.5 243.15698604072062,130.0 221.50635094610965,117.5 221.50635094610965,92.5" stroke="black" stroke-linecap="round" stroke-width="1" fill="none"/>
    <polygon points="286.4582562299426,80.0 308.10889132455355,92.5 308.10889132455355,117.5 286.4582562299426,130.0 264.8076211353316,117.5 264.8076211353316,92.5" stroke="black" stroke-linecap="round" stroke-width="1" fill="none"/>
    <polygon points="329.7595264191645,80.0 351.4101615137755,92.5 351.4101615137755,117.5 329.7595264191645,130.0 308.1088913245535,117.5 308.1088913245535,92.5" stroke="black" stroke-linecap="round" stroke-width="1" fill="none"/>
    <polygon points="373.0607966083864,80.0 394.7114317029974,92.5 394.7114317029974,117.5 373.0607966083864,130.0 351.41016151377545,117.5 351.41016151377545,92.5" stroke="black" stroke-linecap="round" stroke-width="1" fill="none"/>
    <polygon points="416.36206679760835,80.0 438.0127018922193,92.5 438.0127018922193,117.5 416.36206679760835,130.0 394.71143170299734,117.5 394.71143170299734,92.5" stroke="black" stroke-linecap="round" stroke-width="1" fill="none"/>
    <polygon points="48.30127018922193,117.5 69.9519052838329,130.0 69.9519052838329,155.0 48.30127018922193,167.5 26.650635094610966,155.0 26.650635094610966,130.0" stroke="black" stroke-linecap="round" stroke-width="1" fill="none"/>
    <polygon points="91.60254037844386,117.5 113.25317547305482,130.0 113.25317547305482,155.0 91.60254037844386,167.5 69.9519052838329,155.0 69.9519052838329,130.0" stroke="black" stroke-linecap="round" stroke-width="1" fill="none"/>
    <polygon points="134.9038105676658,117.5 156.55444566227675,130.0 156.55444566227675,155.0 134.9038105676658,167.5 113.25317547305484,155.0 113.25317547305484,130.0" stroke="black" stroke-linecap="round" stroke-width="1" fill="none"/>
    <polygon points="178.20508075688772,117.5 199.85571585149867,130.0 199.85571585149867,155.0 178.20508075688772,167.5 156.55444566227675,155.0 156.55444566227675,130.0" stroke="black" stroke-linecap="round" stroke-width="1" fill="none"/>
    <polygon points="221.50635094610965,117.5 243.15698604072062,130.0 243.15698604072062,155.0 221.50635094610965,167.5 199.85571585149867,155.0 199.85571585149867,130.0" stroke="black" stroke-linecap="round" stroke-width="1" fill="none"/>
    <polygon points="264.8076211353316,117.5 286.4582562299426,130.0 286.4582562299426,155.0 264.8076211353316,167.5 243.15698604072062,155.0 243.15698604072062,130.0" stroke="black" stroke-linecap="round" stroke-width="1" fill="none"/>
    <polygon points="308.1088913245535,117.5 329.7595264191645,130.0 329.7595264191645,155.0 308.1088913245535,167.5 286.45825622994255,155.0 286.45825622994255,130.0" stroke="black" stroke-linecap="round" stroke-width="1" fill="none"/>
    <polygon points="351.41016151377545,117.5 373.0607966083864,130.0 373.0607966083864,155.0 351.41016151377545,167.5 329.75952641916444,155.0 329.75952641916444,130.0" stroke="black" stroke-linecap="round" stroke-width="1" fill="none"/>
    <polygon points="394.71143170299734,117.5 416.36206679760835,130.0 416.36206679760835,155.0 394.71143170299734,167.5 373.0607966083864,155.0 373.0607966083864,130.0" stroke="black" stroke-linecap="round" stroke-width="1" fill="none"/>
    <polygon points="26.650635094610966,155.0 48.30127018922193,167.5 48.30127018922193,192.5 26.650635094610966,205.0 5.0,192.5 5.0,167.5" stroke="black" stroke-linecap="round" stroke-width="1" fill="none"/>
    <polygon points="69.9519052838329,155.0 91.60254037844386,167.5 91.60254037844386,192.5 69.9519052838329,205.0 48.30127018922194,192.5 48.30127018922194,167.5" stroke="black" stroke-linecap="round" stroke-width="1" fill="none"/>
    <polygon points="113.25317547305482,155.0 134.90381056766577,167.5 134.90381056766577,192.5 113.25317547305482,205.0 91.60254037844386,192.5 91.60254037844386,167.5" stroke="black" stroke-linecap="round" stroke-width="1" fill="none"/>
    <polygon points="156.55444566227675,155.0 178.20508075688772,167.5 178.20508075688772,192.5 156.55444566227675,205.0 134.9038105676658,192.5 134.9038105676658,167.5" stroke="black" stroke-linecap="round" stroke-width="1" fill="none"/>
    <polygon points="199.85571585149867,155.0 221.50635094610965,167.5 221.50635094610965,192.5 199.85571585149867,205.0 178.20508075688772,192.5 178.20508075688772,167.5" stroke="black" stroke-linecap="round" stroke-width="1" fill="none"/>
    <polygon points="243.15698604072062,155.0 264.8076211353316,167.5 264.8076211353316,192.5 243.15698604072062,205.0 221.50635094610965,192.5 221.50635094610965,167.5" stroke="black" stroke-linecap="round" stroke-width="1" fill="none"/>
    <polygon points="286.4582562299426,155.0 308.10889132455355,167.5 308.10889132455355,192.5 286.4582562299426,205.0 264.8076211353316,192.5 264.8076211353316,167.5" stroke="black" stroke-linecap="round" stroke-width="1" fill="none"/>
    <polygon points="329.7595264191645,155.0 351.4101615137755,167.5 351.4101615137755,192.5 329.7595264191645,205.0 308.1088913245535,192.5 308.1088913245535,167.5" stroke="black" stroke-linecap="round" stroke-width="1" fill="none"/>
    <polygon points="373.0607966083864,155.0 394.7114317029974,167.5 394.7114317029974,192.5 373.0607966083864,205.0 351.41016151377545,192.5 351.41016151377545,167.5" stroke="black" stroke-linecap="round" stroke-width="1" fill="none"/>
    <polygon points="416.36206679760835,155.0 438.0127018922193,167.5 438.0127018922193,192.5 416.36206679760835,205.0 394.71143170299734,192.5 394.71143170299734,167.5" stroke="black" stroke-linecap="round" stroke-width="1" fill="none"/>
    <polygon points="48.30127018922193,192.5 69.9519052838329,205.0 69.9519052838329,230.0 48.30127018922193,242.5 26.650635094610966,230.0 26.650635094610966,205.0" stroke="black" stroke-linecap="round" stroke-width="1" fill="none"/>
    <polygon points="91.60254037844386,192.5 113.25317547305482,205.0 113.25317547305482,230.0 91.60254037844386,242.5 69.9519052838329,230.0 69.9519052838329,205.0" stroke="black" stroke-linecap="round" stroke-width="1" fill="none"/>
    <polygon points="134.9038105676658,192.5 156.55444566227675,205.0 156.55444566227675,230.0 134.9038105676658,242.5 113.25317547305484,230.0 113.25317547305484,205.0" stroke="black" stroke-linecap="round" stroke-width="1" fill="none"/>
    <polygon points="178.20508075688772,192.5 199.85571585149867,205.0 199.85571585149867,230.0 178.20508075688772,242.5 156.55444566227675,230.0 156.55444566227675,205.0" stroke="black" stroke-linecap="round" stroke-width="1" fill="none"/>
    <polygon points="221.50635094610965,192.5 243.15698604072062,205.0 243.15698604072062,230.0 221.50635094610965,242.5 199.85571585149867,230.0 199.85571585149867,205.0" stroke="black" stroke-linecap="round" stroke-width="1" fill="none"/>
    <polygon points="264.8076211353316,192.5 286.4582562299426,205.0 286.4582562299426,230.0 264.8076211353316,242.5 243.15698604072062,230.0 243.15698604072062,205.0" stroke="black" stroke-linecap="round" stroke-width="1" fill="none"/>
    <polygon points="308.1088913245535,192.5 329.7595264191645,205.0 329.7595264191645,230.0 308.1088913245535,242.5 286.45825622994255,230.0 286.45825622994255,205.0" stroke="black" stroke-linecap="round" stroke-width="1" fill="none"/>
    <polygon points="351.41016151377545,192.5 373.0607966083864,205.0 373.0607966083864,230.0 351.41016151377545,242.5 329.75952641916444,230.0 329.75952641916444,205.0" stroke="black" stroke-linecap="round" stroke-width="1" fill="none"/>
    <polygon points="394.71143170299734,192.5 416.36206679760835,205.0 416.36206679760835,230.0 394.71143170299734,242.5 373.0607966083864,230.0 373.0607966083864,205.0" stroke="black" stroke-linecap="round" stroke-width="1" fill="none"/>
    <polygon points="26.650635094610966,230.0 48.30127018922193,242.5 48.30127018922193,267.5 26.650635094610966,280.0 5.0,267.5 5.0,242.5" stroke="black" stroke-linecap="round" stroke-width="1" fill="none"/>
    <polygon points="69.9519052838329,230.0 91.60254037844386,242.5 91.60254037844386,267.5 69.9519052838329,280.0 48.30127018922194,267.5 48.30127018922194,242.5" stroke="black" stroke-linecap="round" stroke-width="1" fill="none"/>
    <polygon points="113.25317547305482,230.0 134.90381056766577,242.5 134.90381056766577,267.5 113.25317547305482,280.0 91.60254037844386,267.5 91.60254037844386,242.5" stroke="black" stroke-linecap="round" stroke-width="1" fill="none"/>
    <polygon points="156.55444566227675,230.0 178.20508075688772,242.5 178.20508075688772,267.5 156.55444566227675,280.0 134.9038105676658,267.5 134.9038105676658,242.5" stroke="black" stroke-linecap="round" stroke-width="1" fill="none"/>
    <polygon points="199.85571585149867,230.0 221.50635094610965,242.5 221.50635094610965,267.5 199.85571585149867,280.0 178.20508075688772,267.5 178.20508075688772,242.5" stroke="black" stroke-linecap="round" stroke-width="1" fill="none"/>
    <polygon points="243.15698604072062,230.0 264.8076211353316,242.5 264.8076211353316,267.5 243.15698604072062,280.0 221.50635094610965,267.5 221.50635094610965,242.5" stroke="black" stroke-linecap="round" stroke-width="1" fill="none"/>
    <polygon points="286.4582562299426,230.0 308.10889132455355,242.5 308.10889132455355,267.5 286.4582562299426,280.0 264.8076211353316,267.5 264.8076211353316,242.5" stroke="black" stroke-linecap="round" stroke-width="1" fill="none"/>
    <polygon points="329.7595264191645,230.0 351.4101615137755,242.5 351.4101615137755,267.5 329.7595264191645,280.0 308.1088913245535,267.5 308.1088913245535,242.5" stroke="black" stroke-linecap="round" stroke-width="1" fill="none"/>
    <polygon points="373.0607966083864,230.0 394.7114317029974,242.5 394.7114317029974,267.5 373.0607966083864,280.0 351.41016151377545,267.5 351.41016151377545,242.5" stroke="black" stroke-linecap="round" stroke-width="1" fill="none"/>
    <polygon points="416.36206679760835,230.0 438.0127018922193,242.5 438.0127018922193,267.5 416.36206679760835,280.0 394.71143170299734,267.5 394.71143170299734,242.5" stroke="black" stroke-linecap="round" stroke-width="1" fill="none"/>
    <polygon points="48.30127018922193,267.5 69.9519052838329,280.0 69.9519052838329,305.0 48.30127018922193,317.5 26.650635094610966,305.0 26.650635094610966,280.0" stroke="black" stroke-linecap="round" stroke-width="1" fill="none"/>
    <polygon points="91.60254037844386,267.5 113.25317547305482,280.0 113.25317547305482,305.0 91.60254037844386,317.5 69.9519052838329,305.0 69.9519052838329,280.0" stroke="black" stroke-linecap="round" stroke-width="1" fill="none"/>
    <polygon points="134.9038105676658,267.5 156.55444566227675,280.0 156.55444566227675,305.0 134.9038105676658,317.5 113.25317547305484,305.0 113.25317547305484,280.0" stroke="black" stroke-linecap="round" stroke-width="1" fill="none"/>
    <polygon points="178.20508075688772,267.5 199.85571585149867,280.0 199.85571585149867,305.0 178.20508075688772,317.5 156.55444566227675,305.0 156.55444566227675,280.0" stroke="black" stroke-linecap="round" stroke-width="1" fill="none"/>
    <polygon points="221.50635094610965,267.5 243.15698604072062,280.0 243.15698604072062,305.0 221.50635094610965,317.5 199.85571585149867,305.0 199.85571585149867,280.0" stroke="black" stroke-linecap="round" stroke-width="1" fill="none"/>
    <polygon points="264.8076211353316,267.5 286.4582562299426,280.0 286.4582562299426,305.0 264.8076211353316,317.5 243.15698604072062,305.0 243.15698604072062,280.0" stroke="black" stroke-linecap="round" stroke-width="1" fill="none"/>
    <polygon points="308.1088913245535,267.5 329.7595264191645,280.0 329.7595264191645,305.0 308.1088913245535,317.5 286.45825622994255,305.0 286.45825622994255,280.0" stroke="black" stroke-linecap="round" stroke-width="1" fill="none"/>
    <polygon points="351.41016151377545,267.5 373.0607966083864,280.0 373.0607966083864,305.0 351.41016151377545,317.5 329.75952641916444,305.0 329.75952641916444,280.0" stroke="black" stroke-linecap="round" stroke-width="1" fill="none"/>
    <polygon points="394.71143170299734,267.5 416.36206679760835,280.0 416.36206679760835,305.0 394.71143170299734,317.5 373.0607966083864,305.0 373.0607966083864,280.0" stroke="black" stroke-linecap="round" stroke-width="1" fill="none"/>
    <polygon points="26.650635094610966,305.0 48.30127018922193,317.5 48.30127018922193,342.5 26.650635094610966,355.0 5.0,342.5 5.0,317.5" stroke="black" stroke-linecap="round" stroke-width="1" fill="none"/>
    <polygon points="69.9519052838329,305.0 91.60254037844386,317.5 91.60254037844386,342.5 69.9519052838329,355.0 48.30127018922194,342.5 48.30127018922194,317.5" stroke="black" stroke-linecap="round" stroke-width="1" fill="none"/>
    <polygon points="113.25317547305482,305.0 134.90381056766577,317.5 134.90381056766577,342.5 113.25317547305482,355.0 91.60254037844386,342.5 91.60254037844386,317.5" stroke="black" stroke-linecap="round" stroke-width="1" fill="none"/>
    <polygon points="156.55444566227675,305.0 178.20508075688772,317.5 178.20508075688772,342.5 156.55444566227675,355.0 134.9038105676658,342.5 134.9038105676658,317.5" stroke="black" stroke-linecap="round" stroke-width="1" fill="none"/>
    <polygon points="199.85571585149867,305.0 221.50635094610965,317.5 221.50635094610965,342.5 199.85571585149867,355.0 178.20508075688772,342.5 178.20508075688772,317.5" stroke="black" stroke-linecap="round" stroke-width="1" fill="none"/>
    <polygon points="243.15698604072062,305.0 264.8076211353316,317.5 264.8076211353316,342.5 243.15698604072062,355.0 221.50635094610965,342.5 221.50635094610965,317.5" stroke="black" stroke-linecap="round" stroke-width="1" fill="none"/>
    <polygon points="286.4582562299426,305.0 308.10889132455355,317.5 308.10889132455355,342.5 286.4582562299426,355.0 264.8076211353316,342.5 264.8076211353316,317.5" stroke="black" stroke-linecap="round" stroke-width="1" fill="none"/>
    <polygon points="329.7595264191645,305.0 351.4101615137755,317.5 351.4101615137755,342.5 329.7595264191645,355.0 308.1088913245535,342.5 308.1088913245535,317.5" stroke="black" stroke-linecap="round" stroke-width="1" fill="none"/>
    <polygon points="373.0607966083864,305.0 394.7114317029974,317.5 394.7114317029974,342.5 373.0607966083864,355.0 351.41016151377545,342.5 351.41016151377545,317.5" stroke="black" stroke-linecap="round" stroke-width="1" fill="none"/>
    <polygon points="416.36206679760835,305.0 438.0127018922193,317.5 438.0127018922193,342.5 416.36206679760835,355.0 394.71143170299734,342.5 394.71143170299734,317.5" stroke="black" stroke-linecap="round" stroke-width="1" fill="none"/>
</svg>
