<?xml version="1.0" encoding="UTF-8" standalone="no"?>
<!DOCTYPE svg PUBLIC "-//W3C//DTD SVG 1.1//EN" "http://www.w3.org/Graphics/SVG/1.1/DTD/svg11.dtd">
<svg width="172.5" height="218.25317547305482" viewBox="0 0 172.5 218.25317547305482" xmlns="http://www.w3.org/2000/svg" xmlns:xlink="http://www.w3.org/1999/xlink">
    <polygon points="17.5,5.0 30.0,26.65063509461097 5.0,26.65063509461097" stroke="black" stroke-linecap="round" stroke-width="1" fill="lightgreen"/>
    <polygon points="30.0,51.65063509461097 5.0,51.65063509461097 5.0,26.65063509461097 30.0,26.65063509461097" stroke="black" stroke-linecap="round" stroke-width="1" fill="lightblue"/>
    <polygon points="5.0,51.65063509461097 30.0,51.65063509461097 17.5,73.30127018922192" stroke="black" stroke-linecap="round" stroke-width="1" fill="yellow"/>
    <polygon points="42.5,98.30127018922192 17.5,98.30127018922192 17.5,73.30127018922192 42.5,73.30127018922192" stroke="black" stroke-linecap="round" stroke-width="1" fill="lightblue"/>
    <polygon points="17.5,98.30127018922192 30.0,119.9519052838329 5.0,119.9519052838329" stroke="black" stroke-linecap="round" stroke-width="1" fill="lightgreen"/>
    <polygon points="30.0,144.9519052838329 5.0,144.9519052838329 5.0,119.9519052838329 30.0,119.9519052838329" stroke="black" stroke-linecap="round" stroke-width="1" fill="lightblue"/>
    <polygon points="5.0,144.9519052838329 30.0,144.9519052838329 17.5,166.60254037844388" stroke="black" stroke-linecap="round" stroke-width="1" fill="yellow"/>
    <polygon points="42.5,191.60254037844385 17.5,191.60254037844385 17.5,166.60254037844385 42.5,166.60254037844385" stroke="black" stroke-linecap="round" stroke-width="1" fill="lightblue"/>
    <polygon points="17.5,191.60254037844385 30.0,213.25317547305482 5.0,213.25317547305482" stroke="black" stroke-linecap="round" stroke-width="1" fill="lightgreen"/>
    <polygon points="17.5,5.000000000000002 42.5,5.000000000000002 30.0,26.65063509461097" stroke="black" stroke-linecap="round" stroke-width="1" fill="yellow"/>
    <polygon points="30.0,51.65063509461097 42.5,73.30127018922194 17.5,73.30127018922194" stroke="black" stroke-linecap="round" stroke-width="1" fill="lightgreen"/>
    <polygon points="17.5,98.30127018922192 42.5,98.30127018922192 30.0,119.9519052838329" stroke="black" stroke-linecap="round" stroke-width="1" fill="yellow"/>
    <polygon points="30.0,144.9519052838329 42.5,166.60254037844388 17.5,166.60254037844388" stroke="black" stroke-linecap="round" stroke-width="1" fill="lightgreen"/>
    <polygon points="17.5,191.60254037844385 42.5,191.60254037844385 30.0,213.25317547305482" stroke="black" stroke-linecap="round" stroke-width="1" fill="yellow"/>
    <polygon points="42.5,5.0 55.0,26.65063509461097 30.0,26.65063509461097" stroke="black" stroke-linecap="round" stroke-width="1" fill="lightgreen"/>
    <polygon points="55.0,51.65063509461097 30.0,51.65063509461097 30.0,26.65063509461097 55.0,26.65063509461097" stroke="black" stroke-linecap="round" stroke-width="1" fill="lightsalmon"/>
    <polygon points="30.0,51.65063509461097 55.0,51.65063509461097 42.5,73.30127018922192" stroke="black" stroke-linecap="round" stroke-width="1" fill="yellow"/>
    <polygon points="67.5,98.30127018922192 42.5,98.30127018922192 42.5,73.30127018922192 67.5,73.30127018922192" stroke="black" stroke-linecap="round" stroke-width="1" fill="lightsalmon"/>
    <polygon points="42.5,98.30127018922192 55.0,119.9519052838329 30.0,119.9519052838329" stroke="black" stroke-linecap="round" stroke-width="1" fill="lightgreen"/>
    <polygon points="55.0,144.9519052838329 30.0,144.9519052838329 30.0,119.9519052838329 55.0,119.9519052838329" stroke="black" stroke-linecap="round" stroke-width="1" fill="lightsalmon"/>
    <polygon points="30.0,144.9519052838329 55.0,144.9519052838329 42.5,166.60254037844388" stroke="black" stroke-linecap="round" stroke-width="1" fill="yellow"/>
    <polygon points="67.5,191.60254037844385 42.5,191.60254037844385 42.5,166.60254037844385 67.5,166.60254037844385" stroke="black" stroke-linecap="round" stroke-width="1" fill="lightsalmon"/>
    <polygon points="42.5,191.60254037844385 55.0,213.25317547305482 30.0,213.25317547305482" stroke="black" stroke-linecap="round" stroke-width="1" fill="lightgreen"/>
    <polygon points="42.5,5.000000000000002 67.5,5.000000000000002 55.0,26.65063509461097" stroke="black" stroke-linecap="round" stroke-width="1" fill="yellow"/>
    <polygon points="55.0,51.65063509461097 67.5,73.30127018922194 42.5,73.30127018922194" stroke="black" stroke-linecap="round" stroke-width="1" fill="lightgreen"/>
    <polygon points="42.5,98.30127018922192 67.5,98.30127018922192 55.0,119.9519052838329" stroke="black" stroke-linecap="round" stroke-width="1" fill="yellow"/>
    <polygon points="55.0,144.9519052838329 67.5,166.60254037844388 42.5,166.60254037844388" stroke="black" stroke-linecap="round" stroke-width="1" fill="lightgreen"/>
    <polygon points="42.5,191.60254037844385 67.5,191.60254037844385 55.0,213.25317547305482" stroke="black" stroke-linecap="round" stroke-width="1" fill="yellow"/>
    <polygon points="67.5,5.0 80.0,26.65063509461097 55.0,26.65063509461097" stroke="black" stroke-linecap="round" stroke-width="1" fill="lightgreen"/>
    <polygon points="80.0,51.65063509461097 55.0,51.65063509461097 55.0,26.65063509461097 80.0,26.65063509461097" stroke="black" stroke-linecap="round" stroke-width="1" fill="lightblue"/>
    <polygon points="55.0,51.65063509461097 80.0,51.65063509461097 67.5,73.30127018922192" stroke="black" stroke-linecap="round" stroke-width="1" fill="yellow"/>
    <polygon points="92.5,98.30127018922192 67.5,98.30127018922192 67.5,73.30127018922192 92.5,73.30127018922192" stroke="black" stroke-linecap="round" stroke-width="1" fill="lightblue"/>
    <polygon points="67.5,98.30127018922192 80.0,119.9519052838329 55.0,119.9519052838329" stroke="black" stroke-linecap="round" stroke-width="1" fill="lightgreen"/>
    <polygon points="80.0,144.9519052838329 55.0,144.9519052838329 55.0,119.9519052838329 80.0,119.9519052838329" stroke="black" stroke-linecap="round" stroke-width="1" fill="lightblue"/>
    <polygon points="55.0,144.9519052838329 80.0,144.9519052838329 67.5,166.60254037844388" stroke="black" stroke-linecap="round" stroke-width="1" fill="yellow"/>
    <polygon points="92.5,191.60254037844385 67.5,191.60254037844385 67.5,166.60254037844385 92.5,166.60254037844385" stroke="black" stroke-linecap="round" stroke-width="1" fill="lightblue"/>
    <polygon points="67.5,191.60254037844385 80.0,213.25317547305482 55.0,213.25317547305482" stroke="black" stroke-linecap="round" stroke-width="1" fill="lightgreen"/>
    <polygon points="67.5,5.000000000000002 92.5,5.000000000000002 80.0,26.65063509461097" stroke="black" stroke-linecap="round" stroke-width="1" fill="yellow"/>
    <polygon points="80.0,51.65063509461097 92.5,73.30127018922194 67.5,73.30127018922194" stroke="black" stroke-linecap="round" stroke-width="1" fill="lightgreen"/>
    <polygon points="67.5,98.30127018922192 92.5,98.30127018922192 80.0,119.9519052838329" stroke="black" stroke-linecap="round" stroke-width="1" fill="yellow"/>
    <polygon points="80.0,144.9519052838329 92.5,166.60254037844388 67.5,166.60254037844388" stroke="black" stroke-linecap="round" stroke-width="1" fill="lightgreen"/>
    <polygon points="67.5,191.60254037844385 92.5,191.60254037844385 80.0,213.25317547305482" stroke="black" stroke-linecap="round" stroke-width="1" fill="yellow"/>
    <polygon points="92.5,5.0 105.0,26.65063509461097 80.0,26.65063509461097" stroke="black" stroke-linecap="round" stroke-width="1" fill="lightgreen"/>
    <polygon points="105.0,51.65063509461097 80.0,51.65063509461097 80.0,26.65063509461097 105.0,26.65063509461097" stroke="black" stroke-linecap="round" stroke-width="1" fill="lightsalmon"/>
    <polygon points="80.0,51.65063509461097 105.0,51.65063509461097 92.5,73.30127018922192" stroke="black" stroke-linecap="round" stroke-width="1" fill="yellow"/>
    <polygon points="117.5,98.30127018922192 92.5,98.30127018922192 92.5,73.30127018922192 117.5,73.30127018922192" stroke="black" stroke-linecap="round" stroke-width="1" fill="lightsalmon"/>
    <polygon points="92.5,98.30127018922192 105.0,119.9519052838329 80.0,119.9519052838329" stroke="black" stroke-linecap="round" stroke-width="1" fill="lightgreen"/>
    <polygon points="105.0,144.9519052838329 80.0,144.9519052838329 80.0,119.9519052838329 105.0,119.9519052838329" stroke="black" stroke-linecap="round" stroke-width="1" fill="lightsalmon"/>
    <polygon points="80.0,144.9519052838329 105.0,144.9519052838329 92.5,166.60254037844388" stroke="black" stroke-linecap="round" stroke-width="1" fill="yellow"/>
    <polygon points="117.5,191.60254037844385 92.5,191.60254037844385 92.5,166.60254037844385 117.5,166.60254037844385" stroke="black" stroke-linecap="round" stroke-width="1" fill="lightsalmon"/>
    <polygon points="92.5,191.60254037844385 105.0,213.25317547305482 80.0,213.25317547305482" stroke="black" stroke-linecap="round" stroke-width="1" fill="lightgreen"/>
    <polygon points="92.5,5.000000000000002 117.5,5.000000000000002 105.0,26.65063509461097" stroke="black" stroke-linecap="round" stroke-width="1" fill="yellow"/>
    <polygon points="105.0,51.65063509461097 117.5,73.30127018922194 92.5,73.30127018922194" stroke="black" stroke-linecap="round" stroke-width="1" fill="lightgreen"/>
    <polygon points="92.5,98.30127018922192 117.5,98.30127018922192 105.0,119.9519052838329" stroke="black" stroke-linecap="round" stroke-width="1" fill="yellow"/>
    <polygon points="105.0,144.9519052838329 117.5,166.60254037844388 92.5,166.60254037844388" stroke="black" stroke-linecap="round" stroke-width="1" fill="lightgreen"/>
    <polygon points="92.5,191.60254037844385 117.5,191.60254037844385 105.0,213.25317547305482" stroke="black" stroke-linecap="round" stroke-width="1" fill="yellow"/>
    <polygon points="117.5,5.0 130.0,26.65063509461097 105.0,26.65063509461097" stroke="black" stroke-linecap="round" stroke-width="1" fill="lightgreen"/>
    <polygon points="130.0,51.65063509461097 105.0,51.65063509461097 105.0,26.65063509461097 130.0,26.65063509461097" stroke="black" stroke-linecap="round" stroke-width="1" fill="lightblue"/>
    <polygon points="105.0,51.65063509461097 130.0,51.65063509461097 117.5,73.30127018922192" stroke="black" stroke-linecap="round" stroke-width="1" fill="yellow"/>
    <polygon points="142.5,98.30127018922192 117.5,98.30127018922192 117.5,73.30127018922192 142.5,73.30127018922192" stroke="black" stroke-linecap="round" stroke-width="1" fill="lightblue"/>
    <polygon points="117.5,98.30127018922192 130.0,119.9519052838329 105.0,119.9519052838329" stroke="black" stroke-linecap="round" stroke-width="1" fill="lightgreen"/>
    <polygon points="130.0,144.9519052838329 105.0,144.9519052838329 105.0,119.9519052838329 130.0,119.9519052838329" stroke="black" stroke-linecap="round" stroke-width="1" fill="lightblue"/>
    <polygon points="105.0,144.9519052838329 130.0,144.9519052838329 117.5,166.60254037844388" stroke="black" stroke-linecap="round" stroke-width="1" fill="yellow"/>
    <polygon points="142.5,191.60254037844385 117.5,191.60254037844385 117.5,166.60254037844385 142.5,166.60254037844385" stroke="black" stroke-linecap="round" stroke-width="1" fill="lightblue"/>
    <polygon points="117.5,191.60254037844385 130.0,213.25317547305482 105.0,213.25317547305482" stroke="black" stroke-linecap="round" stroke-width="1" fill="lightgreen"/>
    <polygon points="117.5,5.000000000000002 142.5,5.000000000000002 130.0,26.65063509461097" stroke="black" stroke-linecap="round" stroke-width="1" fill="yellow"/>
    <polygon points="130.0,51.65063509461097 142.5,73.30127018922194 117.5,73.30127018922194" stroke="black" stroke-linecap="round" stroke-width="1" fill="lightgreen"/>
    <polygon points="117.5,98.30127018922192 142.5,98.30127018922192 130.0,119.9519052838329" stroke="black" stroke-linecap="round" stroke-width="1" fill="yellow"/>
    <polygon points="130.0,144.9519052838329 142.5,166.60254037844388 117.5,166.60254037844388" stroke="black" stroke-linecap="round" stroke-width="1" fill="lightgreen"/>
    <polygon points="117.5,191.60254037844385 142.5,191.60254037844385 130.0,213.25317547305482" stroke="black" stroke-linecap="round" stroke-width="1" fill="yellow"/>
    <polygon points="142.5,5.0 155.0,26.65063509461097 130.0,26.65063509461097" stroke="black" stroke-linecap="round" stroke-width="1" fill="lightgreen"/>
    <polygon points="155.0,51.65063509461097 130.0,51.65063509461097 130.0,26.65063509461097 155.0,26.65063509461097" stroke="black" stroke-linecap="round" stroke-width="1" fill="lightsalmon"/>
    <polygon points="130.0,51.65063509461097 155.0,51.65063509461097 142.5,73.30127018922192" stroke="black" stroke-linecap="round" stroke-width="1" fill="yellow"/>
    <polygon points="167.5,98.30127018922192 142.5,98.30127018922192 142.5,73.30127018922192 167.5,73.30127018922192" stroke="black" stroke-linecap="round" stroke-width="1" fill="lightsalmon"/>
    <polygon points="142.5,98.30127018922192 155.0,119.9519052838329 130.0,119.9519052838329" stroke="black" stroke-linecap="round" stroke-width="1" fill="lightgreen"/>
    <polygon points="155.0,144.9519052838329 130.0,144.9519052838329 130.0,119.9519052838329 155.0,119.9519052838329" stroke="black" stroke-linecap="round" stroke-width="1" fill="lightsalmon"/>
    <polygon points="130.0,144.9519052838329 155.0,144.9519052838329 142.5,166.60254037844388" stroke="black" stroke-linecap="round" stroke-width="1" fill="yellow"/>
    <polygon points="167.5,191.60254037844385 142.5,191.60254037844385 142.5,166.60254037844385 167.5,166.60254037844385" stroke="black" stroke-linecap="round" stroke-width="1" fill="lightsalmon"/>
    <polygon points="142.5,191.60254037844385 155.0,213.25317547305482 130.0,213.25317547305482" stroke="black" stroke-linecap="round" stroke-width="1" fill="lightgreen"/>
    <polygon points="142.5,5.000000000000002 167.5,5.000000000000002 155.0,26.65063509461097" stroke="black" stroke-linecap="round" stroke-width="1" fill="yellow"/>
    <polygon points="155.0,51.65063509461097 167.5,73.30127018922194 142.5,73.30127018922194" stroke="black" stroke-linecap="round" stroke-width="1" fill="lightgreen"/>
    <polygon points="142.5,98.30127018922192 167.5,98.30127018922192 155.0,119.9519052838329" stroke="black" stroke-linecap="round" stroke-width="1" fill="yellow"/>
    <polygon points="155.0,144.9519052838329 167.5,166.60254037844388 142.5,166.60254037844388" stroke="black" stroke-linecap="round" stroke-width="1" fill="lightgreen"/>
    <polygon points="142.5,191.60254037844385 167.5,191.60254037844385 155.0,213.25317547305482" stroke="black" stroke-linecap="round" stroke-width="1" fill="yellow"/>
</svg>
