<?xml version="1.0" encoding="UTF-8" standalone="no"?>
<!DOCTYPE svg PUBLIC "-//W3C//DTD SVG 1.1//EN" "http://www.w3.org/Graphics/SVG/1.1/DTD/svg11.dtd">
<svg width="370.05951888938745" height="337.1432814047282" viewBox="0 0 370.05951888938745 337.1432814047282" xmlns="http://www.w3.org/2000/svg" xmlns:xlink="http://www.w3.org/1999/xlink">
    <polygon points="21.366341767699428,61.694670951384104 13.183170883849705,38.07189138830741 29.549512651549133,19.17366773784604 54.09902530309827,23.898223650461375 70.46536707079773,71.14378277661477" stroke="black" stroke-linecap="round" stroke-width="1" fill="#347433"/>
    <polygon points="54.09902530309825,23.898223650461365 70.46536707079767,5.0 95.0148797223468,9.724555912615333 103.19805060619653,33.34733547569203 70.46536707079771,71.14378277661477" stroke="black" stroke-linecap="round" stroke-width="1" fill="#FF6F3C"/>
    <polygon points="103.19805060619655,33.347335475692034 127.7475632577457,38.07189138830737 135.93073414159542,61.694670951384055 119.56439237389601,80.59289460184543 70.46536707079773,71.14378277661484" stroke="black" stroke-linecap="round" stroke-width="1" fill="#347433"/>
    <polygon points="37.73268353539886,108.94023007753748 13.183170883849723,104.21567416492215 5.0,80.59289460184544 21.366341767699428,61.69467095138408 70.46536707079771,71.14378277661476" stroke="black" stroke-linecap="round" stroke-width="1" fill="#B22222"/>
    <polygon points="86.83170883849715,118.38934190276817 70.46536707079773,137.28756555322954 45.91585441924859,132.5630096406142 37.73268353539886,108.94023007753749 70.46536707079768,71.14378277661477" stroke="black" stroke-linecap="round" stroke-width="1" fill="#FFC107"/>
    <polygon points="119.564392373896,80.59289460184544 127.74756325774572,104.21567416492213 111.38122149004631,123.11389781538351 86.83170883849718,118.3893419027682 70.46536707079768,71.14378277661481" stroke="black" stroke-linecap="round" stroke-width="1" fill="#B22222"/>
    <polygon points="135.93073414159542,61.694670951384104 127.7475632577457,38.07189138830741 144.11390502544512,19.17366773784604 168.66341767699427,23.898223650461375 185.02975944469372,71.14378277661477" stroke="black" stroke-linecap="round" stroke-width="1" fill="#FF6F3C"/>
    <polygon points="168.66341767699424,23.898223650461365 185.02975944469367,5.0 209.5792720962428,9.724555912615333 217.76244298009254,33.34733547569203 185.0297594446937,71.14378277661477" stroke="black" stroke-linecap="round" stroke-width="1" fill="#347433"/>
    <polygon points="217.76244298009254,33.347335475692034 242.3119556316417,38.07189138830737 250.49512651549145,61.694670951384055 234.12878474779203,80.59289460184543 185.02975944469372,71.14378277661484" stroke="black" stroke-linecap="round" stroke-width="1" fill="#FF6F3C"/>
    <polygon points="152.29707590929485,108.94023007753748 127.74756325774572,104.21567416492215 119.564392373896,80.59289460184544 135.93073414159542,61.69467095138408 185.02975944469372,71.14378277661476" stroke="black" stroke-linecap="round" stroke-width="1" fill="#FFC107"/>
    <polygon points="201.39610121239315,118.38934190276817 185.02975944469372,137.28756555322954 160.48024679314457,132.5630096406142 152.29707590929485,108.94023007753749 185.0297594446937,71.14378277661477" stroke="black" stroke-linecap="round" stroke-width="1" fill="#B22222"/>
    <polygon points="234.128784747792,80.59289460184544 242.31195563164172,104.21567416492213 225.94561386394233,123.11389781538351 201.39610121239318,118.3893419027682 185.0297594446937,71.14378277661481" stroke="black" stroke-linecap="round" stroke-width="1" fill="#FFC107"/>
    <polygon points="250.49512651549148,61.694670951384104 242.31195563164172,38.07189138830741 258.6782973993412,19.17366773784604 283.2278100508903,23.898223650461375 299.59415181858975,71.14378277661477" stroke="black" stroke-linecap="round" stroke-width="1" fill="#347433"/>
    <polygon points="283.2278100508903,23.898223650461365 299.5941518185897,5.0 324.14366447013884,9.724555912615333 332.32683535398854,33.34733547569203 299.5941518185897,71.14378277661477" stroke="black" stroke-linecap="round" stroke-width="1" fill="#FF6F3C"/>
    <polygon points="332.3268353539886,33.347335475692034 356.8763480055377,38.07189138830737 365.05951888938745,61.694670951384055 348.69317712168805,80.59289460184543 299.59415181858975,71.14378277661484" stroke="black" stroke-linecap="round" stroke-width="1" fill="#347433"/>
    <polygon points="266.86146828319085,108.94023007753748 242.31195563164172,104.21567416492215 234.128784747792,80.59289460184544 250.49512651549145,61.69467095138408 299.5941518185897,71.14378277661476" stroke="black" stroke-linecap="round" stroke-width="1" fill="#B22222"/>
    <polygon points="315.96049358628915,118.38934190276817 299.5941518185897,137.28756555322954 275.0446391670406,132.5630096406142 266.8614682831909,108.94023007753749 299.5941518185897,71.14378277661477" stroke="black" stroke-linecap="round" stroke-width="1" fill="#FFC107"/>
    <polygon points="348.69317712168794,80.59289460184544 356.8763480055377,104.21567416492213 340.5100062378383,123.11389781538351 315.96049358628915,118.3893419027682 299.5941518185897,71.14378277661481" stroke="black" stroke-linecap="round" stroke-width="1" fill="#B22222"/>
    <polygon points="77.61634176769942,159.12252887713345 69.4331708838497,135.49974931405674 85.79951265154912,116.60152566359538 110.34902530309826,121.32608157621071 126.71536707079771,168.5716407023641" stroke="black" stroke-linecap="round" stroke-width="1" fill="#347433"/>
    <polygon points="110.34902530309824,121.3260815762107 126.71536707079767,102.42785792574932 151.26487972234682,107.15241383836467 159.44805060619652,130.77519340144136 126.71536707079771,168.5716407023641" stroke="black" stroke-linecap="round" stroke-width="1" fill="#FF6F3C"/>
    <polygon points="159.44805060619655,130.77519340144138 183.9975632577457,135.49974931405671 192.18073414159542,159.1225288771334 175.81439237389603,178.0207525275948 126.71536707079773,168.57164070236422" stroke="black" stroke-linecap="round" stroke-width="1" fill="#347433"/>
    <polygon points="93.98268353539886,206.36808800328683 69.43317088384973,201.6435320906715 61.25,178.0207525275948 77.61634176769942,159.12252887713342 126.71536707079771,168.5716407023641" stroke="black" stroke-linecap="round" stroke-width="1" fill="#B22222"/>
    <polygon points="143.08170883849715,215.8171998285175 126.71536707079773,234.71542347897883 102.16585441924859,229.99086756636348 93.98268353539886,206.36808800328683 126.71536707079768,168.5716407023641" stroke="black" stroke-linecap="round" stroke-width="1" fill="#FFC107"/>
    <polygon points="175.814392373896,178.02075252759477 183.99756325774572,201.64353209067144 167.63122149004633,220.54175574113285 143.08170883849718,215.8171998285175 126.71536707079767,168.57164070236414" stroke="black" stroke-linecap="round" stroke-width="1" fill="#B22222"/>
    <polygon points="192.18073414159542,159.12252887713345 183.9975632577457,135.49974931405674 200.36390502544512,116.60152566359538 224.91341767699427,121.32608157621071 241.27975944469375,168.5716407023641" stroke="black" stroke-linecap="round" stroke-width="1" fill="#FF6F3C"/>
    <polygon points="224.91341767699427,121.3260815762107 241.2797594446937,102.42785792574932 265.8292720962428,107.15241383836467 274.01244298009254,130.77519340144136 241.2797594446937,168.5716407023641" stroke="black" stroke-linecap="round" stroke-width="1" fill="#347433"/>
    <polygon points="274.0124429800926,130.77519340144138 298.5619556316417,135.49974931405671 306.74512651549145,159.1225288771334 290.37878474779205,178.0207525275948 241.27975944469375,168.57164070236422" stroke="black" stroke-linecap="round" stroke-width="1" fill="#FF6F3C"/>
    <polygon points="208.54707590929485,206.36808800328683 183.99756325774572,201.6435320906715 175.814392373896,178.0207525275948 192.18073414159542,159.12252887713342 241.27975944469375,168.5716407023641" stroke="black" stroke-linecap="round" stroke-width="1" fill="#FFC107"/>
    <polygon points="257.6461012123932,215.8171998285175 241.27975944469375,234.71542347897883 216.7302467931446,229.99086756636348 208.5470759092949,206.36808800328683 241.27975944469375,168.5716407023641" stroke="black" stroke-linecap="round" stroke-width="1" fill="#B22222"/>
    <polygon points="290.378784747792,178.02075252759477 298.56195563164175,201.64353209067144 282.19561386394236,220.54175574113285 257.6461012123932,215.8171998285175 241.2797594446937,168.57164070236414" stroke="black" stroke-linecap="round" stroke-width="1" fill="#FFC107"/>
    <polygon points="135.93073414159542,256.5503868028827 127.7475632577457,232.92760723980612 144.11390502544512,214.0293835893447 168.66341767699427,218.75393950196005 185.02975944469372,265.99949862811343" stroke="black" stroke-linecap="round" stroke-width="1" fill="#FF6F3C"/>
    <polygon points="168.66341767699424,218.75393950196005 185.02975944469367,199.85571585149867 209.5792720962428,204.580271764114 217.76244298009254,228.20305132719068 185.0297594446937,265.99949862811343" stroke="black" stroke-linecap="round" stroke-width="1" fill="#347433"/>
    <polygon points="217.76244298009254,228.20305132719068 242.3119556316417,232.92760723980604 250.49512651549145,256.5503868028827 234.12878474779203,275.4486104533441 185.02975944469372,265.99949862811354" stroke="black" stroke-linecap="round" stroke-width="1" fill="#FF6F3C"/>
    <polygon points="152.29707590929485,303.7959459290361 127.74756325774572,299.07139001642076 119.564392373896,275.44861045334414 135.93073414159542,256.5503868028827 185.02975944469372,265.99949862811343" stroke="black" stroke-linecap="round" stroke-width="1" fill="#FFC107"/>
    <polygon points="201.39610121239315,313.24505775426684 185.02975944469372,332.1432814047282 160.48024679314457,327.41872549211286 152.29707590929485,303.79594592903624 185.0297594446937,265.99949862811343" stroke="black" stroke-linecap="round" stroke-width="1" fill="#B22222"/>
    <polygon points="234.128784747792,275.4486104533441 242.31195563164172,299.07139001642076 225.94561386394233,317.9696136668822 201.39610121239318,313.24505775426684 185.0297594446937,265.99949862811343" stroke="black" stroke-linecap="round" stroke-width="1" fill="#FFC107"/>
</svg>
