<?xml version="1.0" encoding="UTF-8" standalone="no"?>
<!DOCTYPE svg PUBLIC "-//W3C//DTD SVG 1.1//EN" "http://www.w3.org/Graphics/SVG/1.1/DTD/svg11.dtd">
<svg width="426.3095188893874" height="337.1432814047282" viewBox="0 0 426.3095188893874 337.1432814047282" xmlns="http://www.w3.org/2000/svg" xmlns:xlink="http://www.w3.org/1999/xlink">
    <polygon points="77.61634176769942,61.69467095138412 69.4331708838497,38.07189138830742 85.79951265154912,19.173667737846053 110.34902530309826,23.89822365046139 126.71536707079771,71.14378277661478" stroke="black" stroke-linecap="round" stroke-width="1" fill="#347433"/>
    <polygon points="110.34902530309824,23.898223650461365 126.71536707079767,5.0 151.26487972234682,9.724555912615337 159.44805060619652,33.34733547569201 126.71536707079771,71.14378277661477" stroke="black" stroke-linecap="round" stroke-width="1" fill="#FF6F3C"/>
    <polygon points="159.44805060619655,33.34733547569206 183.9975632577457,38.07189138830739 192.18073414159542,61.694670951384076 175.81439237389603,80.59289460184546 126.71536707079773,71.14378277661488" stroke="black" stroke-linecap="round" stroke-width="1" fill="#347433"/>
    <polygon points="93.98268353539886,108.94023007753749 69.43317088384973,104.21567416492216 61.25,80.59289460184546 77.61634176769942,61.6946709513841 126.71536707079771,71.14378277661477" stroke="black" stroke-linecap="round" stroke-width="1" fill="#B22222"/>
    <polygon points="143.08170883849715,118.38934190276817 126.71536707079773,137.28756555322954 102.16585441924859,132.56300964061418 93.98268353539886,108.94023007753749 126.71536707079768,71.14378277661477" stroke="black" stroke-linecap="round" stroke-width="1" fill="#FFC107"/>
    <polygon points="175.814392373896,80.59289460184544 183.99756325774572,104.21567416492212 167.63122149004633,123.11389781538351 143.08170883849718,118.3893419027682 126.71536707079767,71.14378277661481" stroke="black" stroke-linecap="round" stroke-width="1" fill="#B22222"/>
    <polygon points="192.18073414159542,61.69467095138412 183.9975632577457,38.07189138830742 200.36390502544512,19.173667737846053 224.91341767699427,23.89822365046139 241.27975944469375,71.14378277661478" stroke="black" stroke-linecap="round" stroke-width="1" fill="#FF6F3C"/>
    <polygon points="224.91341767699427,23.898223650461365 241.2797594446937,5.0 265.8292720962428,9.724555912615337 274.01244298009254,33.34733547569201 241.2797594446937,71.14378277661477" stroke="black" stroke-linecap="round" stroke-width="1" fill="#347433"/>
    <polygon points="274.0124429800926,33.34733547569206 298.5619556316417,38.07189138830739 306.74512651549145,61.694670951384076 290.37878474779205,80.59289460184546 241.27975944469375,71.14378277661488" stroke="black" stroke-linecap="round" stroke-width="1" fill="#FF6F3C"/>
    <polygon points="208.54707590929485,108.94023007753749 183.99756325774572,104.21567416492216 175.814392373896,80.59289460184546 192.18073414159542,61.6946709513841 241.27975944469375,71.14378277661477" stroke="black" stroke-linecap="round" stroke-width="1" fill="#FFC107"/>
    <polygon points="257.6461012123932,118.38934190276817 241.27975944469375,137.28756555322954 216.7302467931446,132.56300964061418 208.5470759092949,108.94023007753749 241.27975944469375,71.14378277661477" stroke="black" stroke-linecap="round" stroke-width="1" fill="#B22222"/>
    <polygon points="290.378784747792,80.59289460184544 298.56195563164175,104.21567416492212 282.19561386394236,123.11389781538351 257.6461012123932,118.3893419027682 241.2797594446937,71.14378277661481" stroke="black" stroke-linecap="round" stroke-width="1" fill="#FFC107"/>
    <polygon points="306.7451265154915,61.69467095138412 298.56195563164175,38.07189138830742 314.9282973993412,19.173667737846053 339.4778100508903,23.89822365046139 355.84415181858975,71.14378277661478" stroke="black" stroke-linecap="round" stroke-width="1" fill="#347433"/>
    <polygon points="339.4778100508903,23.898223650461365 355.8441518185897,5.0 380.39366447013884,9.724555912615337 388.57683535398854,33.34733547569201 355.8441518185897,71.14378277661477" stroke="black" stroke-linecap="round" stroke-width="1" fill="#FF6F3C"/>
    <polygon points="388.5768353539886,33.34733547569206 413.1263480055377,38.07189138830739 421.3095188893874,61.694670951384076 404.94317712168805,80.59289460184546 355.84415181858975,71.14378277661488" stroke="black" stroke-linecap="round" stroke-width="1" fill="#347433"/>
    <polygon points="323.11146828319085,108.94023007753749 298.56195563164175,104.21567416492216 290.378784747792,80.59289460184546 306.74512651549145,61.6946709513841 355.8441518185897,71.14378277661477" stroke="black" stroke-linecap="round" stroke-width="1" fill="#B22222"/>
    <polygon points="372.21049358628915,118.38934190276817 355.8441518185897,137.28756555322954 331.2946391670406,132.56300964061418 323.1114682831909,108.94023007753749 355.8441518185897,71.14378277661477" stroke="black" stroke-linecap="round" stroke-width="1" fill="#FFC107"/>
    <polygon points="404.94317712168794,80.59289460184544 413.1263480055377,104.21567416492212 396.7600062378383,123.11389781538351 372.21049358628915,118.3893419027682 355.8441518185897,71.14378277661481" stroke="black" stroke-linecap="round" stroke-width="1" fill="#B22222"/>
    <polygon points="21.366341767699428,159.12252887713342 13.183170883849705,135.49974931405677 29.549512651549133,116.60152566359538 54.09902530309827,121.32608157621071 70.46536707079773,168.5716407023641" stroke="black" stroke-linecap="round" stroke-width="1" fill="#347433"/>
    <polygon points="54.09902530309825,121.32608157621071 70.46536707079767,102.42785792574935 95.0148797223468,107.15241383836468 103.19805060619653,130.77519340144136 70.46536707079771,168.57164070236414" stroke="black" stroke-linecap="round" stroke-width="1" fill="#FF6F3C"/>
    <polygon points="103.19805060619655,130.77519340144136 127.7475632577457,135.4997493140567 135.93073414159542,159.1225288771334 119.56439237389601,178.02075252759477 70.46536707079773,168.5716407023642" stroke="black" stroke-linecap="round" stroke-width="1" fill="#347433"/>
    <polygon points="37.73268353539886,206.36808800328683 13.183170883849723,201.64353209067147 5.0,178.02075252759482 21.366341767699428,159.12252887713342 70.46536707079771,168.5716407023641" stroke="black" stroke-linecap="round" stroke-width="1" fill="#B22222"/>
    <polygon points="86.83170883849715,215.81719982851754 70.46536707079773,234.7154234789789 45.91585441924859,229.99086756636353 37.73268353539886,206.36808800328686 70.46536707079768,168.5716407023641" stroke="black" stroke-linecap="round" stroke-width="1" fill="#FFC107"/>
    <polygon points="119.564392373896,178.02075252759477 127.74756325774572,201.64353209067147 111.38122149004631,220.54175574113285 86.83170883849718,215.81719982851754 70.46536707079768,168.57164070236414" stroke="black" stroke-linecap="round" stroke-width="1" fill="#B22222"/>
    <polygon points="135.93073414159542,159.12252887713342 127.7475632577457,135.49974931405677 144.11390502544512,116.60152566359538 168.66341767699427,121.32608157621071 185.02975944469372,168.5716407023641" stroke="black" stroke-linecap="round" stroke-width="1" fill="#FF6F3C"/>
    <polygon points="168.66341767699424,121.32608157621071 185.02975944469367,102.42785792574935 209.5792720962428,107.15241383836468 217.76244298009254,130.77519340144136 185.0297594446937,168.57164070236414" stroke="black" stroke-linecap="round" stroke-width="1" fill="#347433"/>
    <polygon points="217.76244298009254,130.77519340144136 242.3119556316417,135.4997493140567 250.49512651549145,159.1225288771334 234.12878474779203,178.02075252759477 185.02975944469372,168.5716407023642" stroke="black" stroke-linecap="round" stroke-width="1" fill="#FF6F3C"/>
    <polygon points="152.29707590929485,206.36808800328683 127.74756325774572,201.64353209067147 119.564392373896,178.02075252759482 135.93073414159542,159.12252887713342 185.02975944469372,168.5716407023641" stroke="black" stroke-linecap="round" stroke-width="1" fill="#FFC107"/>
    <polygon points="201.39610121239315,215.81719982851754 185.02975944469372,234.7154234789789 160.48024679314457,229.99086756636353 152.29707590929485,206.36808800328686 185.0297594446937,168.5716407023641" stroke="black" stroke-linecap="round" stroke-width="1" fill="#B22222"/>
    <polygon points="234.128784747792,178.02075252759477 242.31195563164172,201.64353209067147 225.94561386394233,220.54175574113285 201.39610121239318,215.81719982851754 185.0297594446937,168.57164070236414" stroke="black" stroke-linecap="round" stroke-width="1" fill="#FFC107"/>
    <polygon points="250.49512651549148,159.12252887713342 242.31195563164172,135.49974931405677 258.6782973993412,116.60152566359538 283.2278100508903,121.32608157621071 299.59415181858975,168.5716407023641" stroke="black" stroke-linecap="round" stroke-width="1" fill="#347433"/>
    <polygon points="283.2278100508903,121.32608157621071 299.5941518185897,102.42785792574935 324.14366447013884,107.15241383836468 332.32683535398854,130.77519340144136 299.5941518185897,168.57164070236414" stroke="black" stroke-linecap="round" stroke-width="1" fill="#FF6F3C"/>
    <polygon points="332.3268353539886,130.77519340144136 356.8763480055377,135.4997493140567 365.05951888938745,159.1225288771334 348.69317712168805,178.02075252759477 299.59415181858975,168.5716407023642" stroke="black" stroke-linecap="round" stroke-width="1" fill="#347433"/>
    <polygon points="266.86146828319085,206.36808800328683 242.31195563164172,201.64353209067147 234.128784747792,178.02075252759482 250.49512651549145,159.12252887713342 299.5941518185897,168.5716407023641" stroke="black" stroke-linecap="round" stroke-width="1" fill="#B22222"/>
    <polygon points="315.96049358628915,215.81719982851754 299.5941518185897,234.7154234789789 275.0446391670406,229.99086756636353 266.8614682831909,206.36808800328686 299.5941518185897,168.5716407023641" stroke="black" stroke-linecap="round" stroke-width="1" fill="#FFC107"/>
    <polygon points="348.69317712168794,178.02075252759477 356.8763480055377,201.64353209067147 340.5100062378383,220.54175574113285 315.96049358628915,215.81719982851754 299.5941518185897,168.57164070236414" stroke="black" stroke-linecap="round" stroke-width="1" fill="#B22222"/>
    <polygon points="77.61634176769942,256.55038680288277 69.4331708838497,232.92760723980612 85.79951265154912,214.02938358934472 110.34902530309826,218.75393950196005 126.71536707079771,265.99949862811343" stroke="black" stroke-linecap="round" stroke-width="1" fill="#347433"/>
    <polygon points="110.34902530309824,218.75393950196005 126.71536707079767,199.85571585149864 151.26487972234682,204.58027176411397 159.44805060619652,228.20305132719068 126.71536707079771,265.99949862811343" stroke="black" stroke-linecap="round" stroke-width="1" fill="#FF6F3C"/>
    <polygon points="159.44805060619655,228.2030513271907 183.9975632577457,232.92760723980604 192.18073414159542,256.5503868028827 175.81439237389603,275.44861045334414 126.71536707079773,265.99949862811354" stroke="black" stroke-linecap="round" stroke-width="1" fill="#347433"/>
    <polygon points="93.98268353539886,303.7959459290362 69.43317088384973,299.0713900164208 61.25,275.44861045334414 77.61634176769942,256.55038680288277 126.71536707079771,265.99949862811343" stroke="black" stroke-linecap="round" stroke-width="1" fill="#B22222"/>
    <polygon points="143.08170883849715,313.2450577542669 126.71536707079773,332.1432814047282 102.16585441924859,327.41872549211286 93.98268353539886,303.79594592903624 126.71536707079768,265.99949862811343" stroke="black" stroke-linecap="round" stroke-width="1" fill="#FFC107"/>
    <polygon points="175.814392373896,275.4486104533441 183.99756325774572,299.07139001642076 167.63122149004633,317.96961366688214 143.08170883849718,313.24505775426684 126.71536707079767,265.9994986281135" stroke="black" stroke-linecap="round" stroke-width="1" fill="#B22222"/>
    <polygon points="192.18073414159542,256.55038680288277 183.9975632577457,232.92760723980612 200.36390502544512,214.02938358934472 224.91341767699427,218.75393950196005 241.27975944469375,265.99949862811343" stroke="black" stroke-linecap="round" stroke-width="1" fill="#FF6F3C"/>
    <polygon points="224.91341767699427,218.75393950196005 241.2797594446937,199.85571585149864 265.8292720962428,204.58027176411397 274.01244298009254,228.20305132719068 241.2797594446937,265.99949862811343" stroke="black" stroke-linecap="round" stroke-width="1" fill="#347433"/>
    <polygon points="274.0124429800926,228.2030513271907 298.5619556316417,232.92760723980604 306.74512651549145,256.5503868028827 290.37878474779205,275.44861045334414 241.27975944469375,265.99949862811354" stroke="black" stroke-linecap="round" stroke-width="1" fill="#FF6F3C"/>
    <polygon points="208.54707590929485,303.7959459290362 183.99756325774572,299.0713900164208 175.814392373896,275.44861045334414 192.18073414159542,256.55038680288277 241.27975944469375,265.99949862811343" stroke="black" stroke-linecap="round" stroke-width="1" fill="#FFC107"/>
    <polygon points="257.6461012123932,313.2450577542669 241.27975944469375,332.1432814047282 216.7302467931446,327.41872549211286 208.5470759092949,303.79594592903624 241.27975944469375,265.99949862811343" stroke="black" stroke-linecap="round" stroke-width="1" fill="#B22222"/>
    <polygon points="290.378784747792,275.4486104533441 298.56195563164175,299.07139001642076 282.19561386394236,317.96961366688214 257.6461012123932,313.24505775426684 241.2797594446937,265.9994986281135" stroke="black" stroke-linecap="round" stroke-width="1" fill="#FFC107"/>
    <polygon points="306.7451265154915,256.55038680288277 298.56195563164175,232.92760723980612 314.9282973993412,214.02938358934472 339.4778100508903,218.75393950196005 355.84415181858975,265.99949862811343" stroke="black" stroke-linecap="round" stroke-width="1" fill="#347433"/>
    <polygon points="339.4778100508903,218.75393950196005 355.8441518185897,199.85571585149864 380.39366447013884,204.58027176411397 388.57683535398854,228.20305132719068 355.8441518185897,265.99949862811343" stroke="black" stroke-linecap="round" stroke-width="1" fill="#FF6F3C"/>
    <polygon points="388.5768353539886,228.2030513271907 413.1263480055377,232.92760723980604 421.3095188893874,256.5503868028827 404.94317712168805,275.44861045334414 355.84415181858975,265.99949862811354" stroke="black" stroke-linecap="round" stroke-width="1" fill="#347433"/>
    <polygon points="323.11146828319085,303.7959459290362 298.56195563164175,299.0713900164208 290.378784747792,275.44861045334414 306.74512651549145,256.55038680288277 355.8441518185897,265.99949862811343" stroke="black" stroke-linecap="round" stroke-width="1" fill="#B22222"/>
    <polygon points="372.21049358628915,313.2450577542669 355.8441518185897,332.1432814047282 331.2946391670406,327.41872549211286 323.1114682831909,303.79594592903624 355.8441518185897,265.99949862811343" stroke="black" stroke-linecap="round" stroke-width="1" fill="#FFC107"/>
    <polygon points="404.94317712168794,275.4486104533441 413.1263480055377,299.07139001642076 396.7600062378383,317.96961366688214 372.21049358628915,313.24505775426684 355.8441518185897,265.9994986281135" stroke="black" stroke-linecap="round" stroke-width="1" fill="#B22222"/>
</svg>
