<?xml version="1.0" encoding="UTF-8" standalone="no"?>
<!DOCTYPE svg PUBLIC "-//W3C//DTD SVG 1.1//EN" "http://www.w3.org/Graphics/SVG/1.1/DTD/svg11.dtd">
<svg width="140.93073414159542" height="142.28756555322954" viewBox="0 0 140.93073414159542 142.28756555322954" xmlns="http://www.w3.org/2000/svg" xmlns:xlink="http://www.w3.org/1999/xlink">
    <polygon points="21.366341767699428,61.694670951384104 13.183170883849705,38.07189138830741 29.549512651549133,19.17366773784604 54.09902530309827,23.898223650461375 70.46536707079773,71.14378277661477" stroke="black" stroke-linecap="round" stroke-width="1" fill="#347433"/>
    <polygon points="54.09902530309825,23.898223650461365 70.46536707079767,5.0 95.0148797223468,9.724555912615333 103.19805060619653,33.34733547569203 70.46536707079771,71.14378277661477" stroke="black" stroke-linecap="round" stroke-width="1" fill="#FF6F3C"/>
    <polygon points="103.19805060619655,33.347335475692034 127.7475632577457,38.07189138830737 135.93073414159542,61.694670951384055 119.56439237389601,80.59289460184543 70.46536707079773,71.14378277661484" stroke="black" stroke-linecap="round" stroke-width="1" fill="#347433"/>
    <polygon points="37.73268353539886,108.94023007753748 13.183170883849723,104.21567416492215 5.0,80.59289460184544 21.366341767699428,61.69467095138408 70.46536707079771,71.14378277661476" stroke="black" stroke-linecap="round" stroke-width="1" fill="#B22222"/>
    <polygon points="86.83170883849715,118.38934190276817 70.46536707079773,137.28756555322954 45.91585441924859,132.5630096406142 37.73268353539886,108.94023007753749 70.46536707079768,71.14378277661477" stroke="black" stroke-linecap="round" stroke-width="1" fill="#FFC107"/>
    <polygon points="119.564392373896,80.59289460184544 127.74756325774572,104.21567416492213 111.38122149004631,123.11389781538351 86.83170883849718,118.3893419027682 70.46536707079768,71.14378277661481" stroke="black" stroke-linecap="round" stroke-width="1" fill="#B22222"/>
</svg>
