<?xml version="1.0" encoding="UTF-8" standalone="no"?>
<!DOCTYPE svg PUBLIC "-//W3C//DTD SVG 1.1//EN" "http://www.w3.org/Graphics/SVG/1.1/DTD/svg11.dtd">
<svg width="248.15698604072062" height="210.0" viewBox="0 0 248.15698604072062 210.0" xmlns="http://www.w3.org/2000/svg" xmlns:xlink="http://www.w3.org/1999/xlink">
    <polygon points="26.650635094610966,5.0 48.30127018922193,17.5 48.30127018922193,42.5 26.650635094610966,55.0 5.0,42.5 5.0,17.5" stroke="black" stroke-linecap="round" stroke-width="1" fill="#347433"/>
    <polygon points="69.9519052838329,5.0 91.60254037844386,17.5 91.60254037844386,42.5 69.9519052838329,55.0 48.30127018922194,42.5 48.30127018922194,17.5" stroke="black" stroke-linecap="round" stroke-width="1" fill="#FFC107"/>
    <polygon points="113.25317547305482,5.0 134.90381056766577,17.5 134.90381056766577,42.5 113.25317547305482,55.0 91.60254037844386,42.5 91.60254037844386,17.5" stroke="black" stroke-linecap="round" stroke-width="1" fill="#FF6F3C"/>
    <polygon points="156.55444566227675,5.0 178.20508075688772,17.5 178.20508075688772,42.5 156.55444566227675,55.0 134.9038105676658,42.5 134.9038105676658,17.5" stroke="black" stroke-linecap="round" stroke-width="1" fill="#347433"/>
    <polygon points="199.85571585149867,5.0 221.50635094610965,17.5 221.50635094610965,42.5 199.85571585149867,55.0 178.20508075688772,42.5 178.20508075688772,17.5" stroke="black" stroke-linecap="round" stroke-width="1" fill="#FFC107"/>
    <polygon points="48.30127018922193,42.5 69.9519052838329,55.0 69.9519052838329,80.0 48.30127018922193,92.5 26.650635094610966,80.0 26.650635094610966,55.0" stroke="black" stroke-linecap="round" stroke-width="1" fill="#FF6F3C"/>
    <polygon points="91.60254037844386,42.5 113.25317547305482,55.0 113.25317547305482,80.0 91.60254037844386,92.5 69.9519052838329,80.0 69.9519052838329,55.0" stroke="black" stroke-linecap="round" stroke-width="1" fill="#347433"/>
    <polygon points="134.9038105676658,42.5 156.55444566227675,55.0 156.55444566227675,80.0 134.9038105676658,92.5 113.25317547305484,80.0 113.25317547305484,55.0" stroke="black" stroke-linecap="round" stroke-width="1" fill="#FFC107"/>
    <polygon points="178.20508075688772,42.5 199.85571585149867,55.0 199.85571585149867,80.0 178.20508075688772,92.5 156.55444566227675,80.0 156.55444566227675,55.0" stroke="black" stroke-linecap="round" stroke-width="1" fill="#FF6F3C"/>
    <polygon points="221.50635094610965,42.5 243.15698604072062,55.0 243.15698604072062,80.0 221.50635094610965,92.5 199.85571585149867,80.0 199.85571585149867,55.0" stroke="black" stroke-linecap="round" stroke-width="1" fill="#347433"/>
    <polygon points="26.650635094610966,80.0 48.30127018922193,92.5 48.30127018922193,117.5 26.650635094610966,130.0 5.0,117.5 5.0,92.5" stroke="black" stroke-linecap="round" stroke-width="1" fill="#347433"/>
    <polygon points="69.9519052838329,80.0 91.60254037844386,92.5 91.60254037844386,117.5 69.9519052838329,130.0 48.30127018922194,117.5 48.30127018922194,92.5" stroke="black" stroke-linecap="round" stroke-width="1" fill="#FFC107"/>
    <polygon points="113.25317547305482,80.0 134.90381056766577,92.5 134.90381056766577,117.5 113.25317547305482,130.0 91.60254037844386,117.5 91.60254037844386,92.5" stroke="black" stroke-linecap="round" stroke-width="1" fill="#FF6F3C"/>
    <polygon points="156.55444566227675,80.0 178.20508075688772,92.5 178.20508075688772,117.5 156.55444566227675,130.0 134.9038105676658,117.5 134.9038105676658,92.5" stroke="black" stroke-linecap="round" stroke-width="1" fill="#347433"/>
    <polygon points="199.85571585149867,80.0 221.50635094610965,92.5 221.50635094610965,117.5 199.85571585149867,130.0 178.20508075688772,117.5 178.20508075688772,92.5" stroke="black" stroke-linecap="round" stroke-width="1" fill="#FFC107"/>
    <polygon points="48.30127018922193,117.5 69.9519052838329,130.0 69.9519052838329,155.0 48.30127018922193,167.5 26.650635094610966,155.0 26.650635094610966,130.0" stroke="black" stroke-linecap="round" stroke-width="1" fill="#FF6F3C"/>
    <polygon points="91.60254037844386,117.5 113.25317547305482,130.0 113.25317547305482,155.0 91.60254037844386,167.5 69.9519052838329,155.0 69.9519052838329,130.0" stroke="black" stroke-linecap="round" stroke-width="1" fill="#347433"/>
    <polygon points="134.9038105676658,117.5 156.55444566227675,130.0 156.55444566227675,155.0 134.9038105676658,167.5 113.25317547305484,155.0 113.25317547305484,130.0" stroke="black" stroke-linecap="round" stroke-width="1" fill="#FFC107"/>
    <polygon points="178.20508075688772,117.5 199.85571585149867,130.0 199.85571585149867,155.0 178.20508075688772,167.5 156.55444566227675,155.0 156.55444566227675,130.0" stroke="black" stroke-linecap="round" stroke-width="1" fill="#FF6F3C"/>
    <polygon points="221.50635094610965,117.5 243.15698604072062,130.0 243.15698604072062,155.0 221.50635094610965,167.5 199.85571585149867,155.0 199.85571585149867,130.0" stroke="black" stroke-linecap="round" stroke-width="1" fill="#347433"/>
    <polygon points="26.650635094610966,155.0 48.30127018922193,167.5 48.30127018922193,192.5 26.650635094610966,205.0 5.0,192.5 5.0,167.5" stroke="black" stroke-linecap="round" stroke-width="1" fill="#347433"/>
    <polygon points="69.9519052838329,155.0 91.60254037844386,167.5 91.60254037844386,192.5 69.9519052838329,205.0 48.30127018922194,192.5 48.30127018922194,167.5" stroke="black" stroke-linecap="round" stroke-width="1" fill="#FFC107"/>
    <polygon points="113.25317547305482,155.0 134.90381056766577,167.5 134.90381056766577,192.5 113.25317547305482,205.0 91.60254037844386,192.5 91.60254037844386,167.5" stroke="black" stroke-linecap="round" stroke-width="1" fill="#FF6F3C"/>
    <polygon points="156.55444566227675,155.0 178.20508075688772,167.5 178.20508075688772,192.5 156.55444566227675,205.0 134.9038105676658,192.5 134.9038105676658,167.5" stroke="black" stroke-linecap="round" stroke-width="1" fill="#347433"/>
    <polygon points="199.85571585149867,155.0 221.50635094610965,167.5 221.50635094610965,192.5 199.85571585149867,205.0 178.20508075688772,192.5 178.20508075688772,167.5" stroke="black" stroke-linecap="round" stroke-width="1" fill="#FFC107"/>
</svg>
