<?xml version="1.0" encoding="UTF-8" standalone="no"?>
<!DOCTYPE svg PUBLIC "-//W3C//DTD SVG 1.1//EN" "http://www.w3.org/Graphics/SVG/1.1/DTD/svg11.dtd">
<svg width="226.50635094610965" height="210.0" viewBox="-5.0 -5.0 221.50635094610965 205.0" xmlns="http://www.w3.org/2000/svg" xmlns:xlink="http://www.w3.org/1999/xlink">
    <polyline points="21.650635094610966,0.0 43.30127018922193,12.5 43.30127018922193,37.5 21.650635094610966,50.0 0.0,37.5 0.0,12.5 21.650635094610966,0.0" stroke-linecap="round" stroke="red" stroke-width="2" fill="none" />
    <polyline points="64.9519052838329,0.0 86.60254037844386,12.5 86.60254037844386,37.5 64.9519052838329,50.0 43.30127018922194,37.5 43.30127018922194,12.5 64.9519052838329,0.0" stroke-linecap="round" stroke="red" stroke-width="2" fill="none" />
    <polyline points="108.25317547305482,0.0 129.90381056766577,12.5 129.90381056766577,37.5 108.25317547305482,50.0 86.60254037844386,37.5 86.60254037844386,12.5 108.25317547305482,0.0" stroke-linecap="round" stroke="red" stroke-width="2" fill="none" />
    <polyline points="151.55444566227675,0.0 173.20508075688772,12.5 173.20508075688772,37.5 151.55444566227675,50.0 129.9038105676658,37.5 129.9038105676658,12.5 151.55444566227675,0.0" stroke-linecap="round" stroke="red" stroke-width="2" fill="none" />
    <polyline points="194.85571585149867,0.0 216.50635094610965,12.5 216.50635094610965,37.5 194.85571585149867,50.0 173.20508075688772,37.5 173.20508075688772,12.5 194.85571585149867,0.0" stroke-linecap="round" stroke="red" stroke-width="2" fill="none" />
    <polyline points="43.30127018922193,37.5 64.9519052838329,50.0 64.9519052838329,75.0 43.30127018922193,87.5 21.650635094610966,75.0 21.650635094610966,50.0 43.30127018922193,37.5" stroke-linecap="round" stroke="red" stroke-width="2" fill="none" />
    <polyline points="86.60254037844386,37.5 108.25317547305482,50.0 108.25317547305482,75.0 86.60254037844386,87.5 64.9519052838329,75.0 64.9519052838329,50.0 86.60254037844386,37.5" stroke-linecap="round" stroke="red" stroke-width="2" fill="none" />
    <polyline points="129.9038105676658,37.5 151.55444566227675,50.0 151.55444566227675,75.0 129.9038105676658,87.5 108.25317547305484,75.0 108.25317547305484,50.0 129.9038105676658,37.5" stroke-linecap="round" stroke="red" stroke-width="2" fill="none" />
    <polyline points="173.20508075688772,37.5 194.85571585149867,50.0 194.85571585149867,75.0 173.20508075688772,87.5 151.55444566227675,75.0 151.55444566227675,50.0 173.20508075688772,37.5" stroke-linecap="round" stroke="red" stroke-width="2" fill="none" />
    <polyline points="21.650635094610966,75.0 43.30127018922193,87.5 43.30127018922193,112.5 21.650635094610966,125.0 0.0,112.5 0.0,87.5 21.650635094610966,75.0" stroke-linecap="round" stroke="red" stroke-width="2" fill="none" />
    <polyline points="64.9519052838329,75.0 86.60254037844386,87.5 86.60254037844386,112.5 64.9519052838329,125.0 43.30127018922194,112.5 43.30127018922194,87.5 64.9519052838329,75.0" stroke-linecap="round" stroke="red" stroke-width="2" fill="none" />
    <polyline points="108.25317547305482,75.0 129.90381056766577,87.5 129.90381056766577,112.5 108.25317547305482,125.0 86.60254037844386,112.5 86.60254037844386,87.5 108.25317547305482,75.0" stroke-linecap="round" stroke="red" stroke-width="2" fill="none" />
    <polyline points="151.55444566227675,75.0 173.20508075688772,87.5 173.20508075688772,112.5 151.55444566227675,125.0 129.9038105676658,112.5 129.9038105676658,87.5 151.55444566227675,75.0" stroke-linecap="round" stroke="red" stroke-width="2" fill="none" />
    <polyline points="194.85571585149867,75.0 216.50635094610965,87.5 216.50635094610965,112.5 194.85571585149867,125.0 173.20508075688772,112.5 173.20508075688772,87.5 194.85571585149867,75.0" stroke-linecap="round" stroke="red" stroke-width="2" fill="none" />
    <polyline points="43.30127018922193,112.5 64.9519052838329,125.0 64.9519052838329,150.0 43.30127018922193,162.5 21.650635094610966,150.0 21.650635094610966,125.0 43.30127018922193,112.5" stroke-linecap="round" stroke="red" stroke-width="2" fill="none" />
    <polyline points="86.60254037844386,112.5 108.25317547305482,125.0 108.25317547305482,150.0 86.60254037844386,162.5 64.9519052838329,150.0 64.9519052838329,125.0 86.60254037844386,112.5" stroke-linecap="round" stroke="red" stroke-width="2" fill="none" />
    <polyline points="129.9038105676658,112.5 151.55444566227675,125.0 151.55444566227675,150.0 129.9038105676658,162.5 108.25317547305484,150.0 108.25317547305484,125.0 129.9038105676658,112.5" stroke-linecap="round" stroke="red" stroke-width="2" fill="none" />
    <polyline points="173.20508075688772,112.5 194.85571585149867,125.0 194.85571585149867,150.0 173.20508075688772,162.5 151.55444566227675,150.0 151.55444566227675,125.0 173.20508075688772,112.5" stroke-linecap="round" stroke="red" stroke-width="2" fill="none" />
    <polyline points="21.650635094610966,150.0 43.30127018922193,162.5 43.30127018922193,187.5 21.650635094610966,200.0 0.0,187.5 0.0,162.5 21.650635094610966,150.0" stroke-linecap="round" stroke="red" stroke-width="2" fill="none" />
    <polyline points="64.9519052838329,150.0 86.60254037844386,162.5 86.60254037844386,187.5 64.9519052838329,200.0 43.30127018922194,187.5 43.30127018922194,162.5 64.9519052838329,150.0" stroke-linecap="round" stroke="red" stroke-width="2" fill="none" />
    <polyline points="108.25317547305482,150.0 129.90381056766577,162.5 129.90381056766577,187.5 108.25317547305482,200.0 86.60254037844386,187.5 86.60254037844386,162.5 108.25317547305482,150.0" stroke-linecap="round" stroke="red" stroke-width="2" fill="none" />
    <polyline points="151.55444566227675,150.0 173.20508075688772,162.5 173.20508075688772,187.5 151.55444566227675,200.0 129.9038105676658,187.5 129.9038105676658,162.5 151.55444566227675,150.0" stroke-linecap="round" stroke="red" stroke-width="2" fill="none" />
    <polyline points="194.85571585149867,150.0 216.50635094610965,162.5 216.50635094610965,187.5 194.85571585149867,200.0 173.20508075688772,187.5 173.20508075688772,162.5 194.85571585149867,150.0" stroke-linecap="round" stroke="red" stroke-width="2" fill="none" />
</svg>
