<?xml version="1.0" encoding="UTF-8" standalone="no"?>
<!DOCTYPE svg PUBLIC "-//W3C//DTD SVG 1.1//EN" "http://www.w3.org/Graphics/SVG/1.1/DTD/svg11.dtd">
<svg width="226.50635094610965" height="210.0" viewBox="0 0 226.50635094610965 210.0" xmlns="http://www.w3.org/2000/svg" xmlns:xlink="http://www.w3.org/1999/xlink">
    <polygon points="48.30127018922193,5.0 69.9519052838329,17.5 69.9519052838329,42.5 48.30127018922193,55.0 26.650635094610966,42.5 26.650635094610966,17.5" stroke="black" stroke-linecap="round" stroke-width="1" fill="darkorange"/>
    <polygon points="91.60254037844386,5.0 113.25317547305482,17.5 113.25317547305482,42.5 91.60254037844386,55.0 69.9519052838329,42.5 69.9519052838329,17.5" stroke="black" stroke-linecap="round" stroke-width="1" fill="greenyellow"/>
    <polygon points="134.9038105676658,5.0 156.55444566227675,17.5 156.55444566227675,42.5 134.9038105676658,55.0 113.25317547305484,42.5 113.25317547305484,17.5" stroke="black" stroke-linecap="round" stroke-width="1" fill="gold"/>
    <polygon points="178.20508075688772,5.0 199.85571585149867,17.5 199.85571585149867,42.5 178.20508075688772,55.0 156.55444566227675,42.5 156.55444566227675,17.5" stroke="black" stroke-linecap="round" stroke-width="1" fill="darkorange"/>
    <polygon points="26.650635094610966,42.5 48.30127018922193,55.0 48.30127018922193,80.0 26.650635094610966,92.5 5.0,80.0 5.0,55.0" stroke="black" stroke-linecap="round" stroke-width="1" fill="greenyellow"/>
    <polygon points="69.9519052838329,42.5 91.60254037844386,55.0 91.60254037844386,80.0 69.9519052838329,92.5 48.30127018922194,80.0 48.30127018922194,55.0" stroke="black" stroke-linecap="round" stroke-width="1" fill="gold"/>
    <polygon points="113.25317547305482,42.5 134.90381056766577,55.0 134.90381056766577,80.0 113.25317547305482,92.5 91.60254037844386,80.0 91.60254037844386,55.0" stroke="black" stroke-linecap="round" stroke-width="1" fill="darkorange"/>
    <polygon points="156.55444566227675,42.5 178.20508075688772,55.0 178.20508075688772,80.0 156.55444566227675,92.5 134.9038105676658,80.0 134.9038105676658,55.0" stroke="black" stroke-linecap="round" stroke-width="1" fill="greenyellow"/>
    <polygon points="199.85571585149867,42.5 221.50635094610965,55.0 221.50635094610965,80.0 199.85571585149867,92.5 178.20508075688772,80.0 178.20508075688772,55.0" stroke="black" stroke-linecap="round" stroke-width="1" fill="gold"/>
    <polygon points="48.30127018922193,80.0 69.9519052838329,92.5 69.9519052838329,117.5 48.30127018922193,130.0 26.650635094610966,117.5 26.650635094610966,92.5" stroke="black" stroke-linecap="round" stroke-width="1" fill="darkorange"/>
    <polygon points="91.60254037844386,80.0 113.25317547305482,92.5 113.25317547305482,117.5 91.60254037844386,130.0 69.9519052838329,117.5 69.9519052838329,92.5" stroke="black" stroke-linecap="round" stroke-width="1" fill="greenyellow"/>
    <polygon points="134.9038105676658,80.0 156.55444566227675,92.5 156.55444566227675,117.5 134.9038105676658,130.0 113.25317547305484,117.5 113.25317547305484,92.5" stroke="black" stroke-linecap="round" stroke-width="1" fill="gold"/>
    <polygon points="178.20508075688772,80.0 199.85571585149867,92.5 199.85571585149867,117.5 178.20508075688772,130.0 156.55444566227675,117.5 156.55444566227675,92.5" stroke="black" stroke-linecap="round" stroke-width="1" fill="darkorange"/>
    <polygon points="26.650635094610966,117.5 48.30127018922193,130.0 48.30127018922193,155.0 26.650635094610966,167.5 5.0,155.0 5.0,130.0" stroke="black" stroke-linecap="round" stroke-width="1" fill="greenyellow"/>
    <polygon points="69.9519052838329,117.5 91.60254037844386,130.0 91.60254037844386,155.0 69.9519052838329,167.5 48.30127018922194,155.0 48.30127018922194,130.0" stroke="black" stroke-linecap="round" stroke-width="1" fill="gold"/>
    <polygon points="113.25317547305482,117.5 134.90381056766577,130.0 134.90381056766577,155.0 113.25317547305482,167.5 91.60254037844386,155.0 91.60254037844386,130.0" stroke="black" stroke-linecap="round" stroke-width="1" fill="darkorange"/>
    <polygon points="156.55444566227675,117.5 178.20508075688772,130.0 178.20508075688772,155.0 156.55444566227675,167.5 134.9038105676658,155.0 134.9038105676658,130.0" stroke="black" stroke-linecap="round" stroke-width="1" fill="greenyellow"/>
    <polygon points="199.85571585149867,117.5 221.50635094610965,130.0 221.50635094610965,155.0 199.85571585149867,167.5 178.20508075688772,155.0 178.20508075688772,130.0" stroke="black" stroke-linecap="round" stroke-width="1" fill="gold"/>
    <polygon points="48.30127018922193,155.0 69.9519052838329,167.5 69.9519052838329,192.5 48.30127018922193,205.0 26.650635094610966,192.5 26.650635094610966,167.5" stroke="black" stroke-linecap="round" stroke-width="1" fill="darkorange"/>
    <polygon points="91.60254037844386,155.0 113.25317547305482,167.5 113.25317547305482,192.5 91.60254037844386,205.0 69.9519052838329,192.5 69.9519052838329,167.5" stroke="black" stroke-linecap="round" stroke-width="1" fill="greenyellow"/>
    <polygon points="134.9038105676658,155.0 156.55444566227675,167.5 156.55444566227675,192.5 134.9038105676658,205.0 113.25317547305484,192.5 113.25317547305484,167.5" stroke="black" stroke-linecap="round" stroke-width="1" fill="gold"/>
    <polygon points="178.20508075688772,155.0 199.85571585149867,167.5 199.85571585149867,192.5 178.20508075688772,205.0 156.55444566227675,192.5 156.55444566227675,167.5" stroke="black" stroke-linecap="round" stroke-width="1" fill="darkorange"/>
</svg>
