<?xml version="1.0" encoding="UTF-8" standalone="no"?>
<!DOCTYPE svg PUBLIC "-//W3C//DTD SVG 1.1//EN" "http://www.w3.org/Graphics/SVG/1.1/DTD/svg11.dtd">
<svg width="274.0544456622768" height="221.60254037844385" viewBox="0 0 274.0544456622768 221.60254037844385" xmlns="http://www.w3.org/2000/svg" xmlns:xlink="http://www.w3.org/1999/xlink">
    <polyline points="51.65063509461096,17.5 64.15063509461096,39.15063509461097 39.15063509461096,39.15063509461097 51.65063509461096,17.5" stroke="red" stroke-linecap="round" stroke-width="2" fill="none" />
    <polyline points="73.30127018922192,5.0 85.80127018922192,26.65063509461096 64.15063509461098,39.15063509461096 51.65063509461096,17.5 73.30127018922192,5.0" stroke="red" stroke-linecap="round" stroke-width="2" fill="none" />
    <polyline points="73.30127018922192,5.0 98.30127018922192,5.0 85.80127018922192,26.65063509461097 73.30127018922192,5.0" stroke="red" stroke-linecap="round" stroke-width="2" fill="none" />
    <polyline points="98.30127018922192,5.0 119.9519052838329,17.5 107.4519052838329,39.15063509461096 85.80127018922192,26.65063509461097 98.30127018922192,5.0" stroke="red" stroke-linecap="round" stroke-width="2" fill="none" />
    <polyline points="119.9519052838329,17.5 132.4519052838329,39.15063509461097 107.4519052838329,39.15063509461097 119.9519052838329,17.5" stroke="red" stroke-linecap="round" stroke-width="2" fill="none" />
    <polyline points="39.15063509461096,39.15063509461096 64.15063509461096,39.15063509461096 64.15063509461096,64.15063509461096 39.15063509461096,64.15063509461096 39.15063509461096,39.15063509461096" stroke="red" stroke-linecap="round" stroke-width="2" fill="none" />
    <polyline points="85.80127018922192,26.65063509461096 107.4519052838329,39.15063509461096 107.4519052838329,64.15063509461096 85.80127018922192,76.65063509461096 64.15063509461096,64.15063509461096 64.15063509461096,39.15063509461096 85.80127018922192,26.65063509461096" stroke="red" stroke-linecap="round" stroke-width="2" fill="none" />
    <polyline points="107.4519052838329,39.15063509461096 132.4519052838329,39.15063509461096 132.4519052838329,64.15063509461096 107.4519052838329,64.15063509461096 107.4519052838329,39.15063509461096" stroke="red" stroke-linecap="round" stroke-width="2" fill="none" />
    <polyline points="39.15063509461096,64.15063509461096 64.15063509461096,64.15063509461096 51.65063509461096,85.80127018922194 39.15063509461096,64.15063509461096" stroke="red" stroke-linecap="round" stroke-width="2" fill="none" />
    <polyline points="64.15063509461098,64.15063509461096 85.80127018922192,76.65063509461096 73.30127018922192,98.30127018922194 51.65063509461097,85.80127018922194 64.15063509461098,64.15063509461096" stroke="red" stroke-linecap="round" stroke-width="2" fill="none" />
    <polyline points="85.80127018922192,76.65063509461096 98.30127018922192,98.30127018922194 73.30127018922192,98.30127018922194 85.80127018922192,76.65063509461096" stroke="red" stroke-linecap="round" stroke-width="2" fill="none" />
    <polyline points="107.4519052838329,64.15063509461096 119.9519052838329,85.80127018922194 98.30127018922192,98.30127018922194 85.80127018922192,76.65063509461098 107.4519052838329,64.15063509461096" stroke="red" stroke-linecap="round" stroke-width="2" fill="none" />
    <polyline points="107.4519052838329,64.15063509461096 132.4519052838329,64.15063509461096 119.9519052838329,85.80127018922194 107.4519052838329,64.15063509461096" stroke="red" stroke-linecap="round" stroke-width="2" fill="none" />
    <polyline points="141.60254037844385,5.0 154.10254037844385,26.65063509461096 132.45190528383287,39.15063509461096 119.95190528383287,17.5 141.60254037844385,5.0" stroke="red" stroke-linecap="round" stroke-width="2" fill="none" />
    <polyline points="141.60254037844385,5.0 166.60254037844385,5.0 154.10254037844385,26.65063509461097 141.60254037844385,5.0" stroke="red" stroke-linecap="round" stroke-width="2" fill="none" />
    <polyline points="166.60254037844385,5.0 188.25317547305485,17.5 175.75317547305485,39.15063509461096 154.10254037844388,26.65063509461097 166.60254037844385,5.0" stroke="red" stroke-linecap="round" stroke-width="2" fill="none" />
    <polyline points="188.25317547305482,17.5 200.75317547305482,39.15063509461097 175.75317547305482,39.15063509461097 188.25317547305482,17.5" stroke="red" stroke-linecap="round" stroke-width="2" fill="none" />
    <polyline points="154.10254037844385,26.65063509461096 175.75317547305482,39.15063509461096 175.75317547305482,64.15063509461096 154.10254037844385,76.65063509461096 132.4519052838329,64.15063509461096 132.4519052838329,39.15063509461096 154.10254037844385,26.65063509461096" stroke="red" stroke-linecap="round" stroke-width="2" fill="none" />
    <polyline points="175.75317547305482,39.15063509461096 200.75317547305482,39.15063509461096 200.75317547305482,64.15063509461096 175.75317547305482,64.15063509461096 175.75317547305482,39.15063509461096" stroke="red" stroke-linecap="round" stroke-width="2" fill="none" />
    <polyline points="132.45190528383287,64.15063509461096 154.10254037844385,76.65063509461096 141.60254037844385,98.30127018922194 119.9519052838329,85.80127018922194 132.45190528383287,64.15063509461096" stroke="red" stroke-linecap="round" stroke-width="2" fill="none" />
    <polyline points="154.10254037844385,76.65063509461096 166.60254037844385,98.30127018922194 141.60254037844385,98.30127018922194 154.10254037844385,76.65063509461096" stroke="red" stroke-linecap="round" stroke-width="2" fill="none" />
    <polyline points="175.75317547305485,64.15063509461096 188.25317547305485,85.80127018922194 166.60254037844385,98.30127018922194 154.10254037844385,76.65063509461098 175.75317547305485,64.15063509461096" stroke="red" stroke-linecap="round" stroke-width="2" fill="none" />
    <polyline points="175.75317547305482,64.15063509461096 200.75317547305482,64.15063509461096 188.25317547305482,85.80127018922194 175.75317547305482,64.15063509461096" stroke="red" stroke-linecap="round" stroke-width="2" fill="none" />
    <polyline points="209.90381056766574,5.0 222.40381056766574,26.65063509461096 200.7531754730548,39.15063509461096 188.2531754730548,17.5 209.90381056766574,5.0" stroke="red" stroke-linecap="round" stroke-width="2" fill="none" />
    <polyline points="209.9038105676658,5.0 234.9038105676658,5.0 222.4038105676658,26.65063509461097 209.9038105676658,5.0" stroke="red" stroke-linecap="round" stroke-width="2" fill="none" />
    <polyline points="234.9038105676658,5.0 256.55444566227675,17.5 244.05444566227675,39.15063509461096 222.4038105676658,26.65063509461097 234.9038105676658,5.0" stroke="red" stroke-linecap="round" stroke-width="2" fill="none" />
    <polyline points="256.55444566227675,17.5 269.0544456622768,39.15063509461097 244.05444566227678,39.15063509461097 256.55444566227675,17.5" stroke="red" stroke-linecap="round" stroke-width="2" fill="none" />
    <polyline points="222.4038105676658,26.65063509461096 244.05444566227678,39.15063509461096 244.05444566227678,64.15063509461096 222.4038105676658,76.65063509461096 200.75317547305485,64.15063509461096 200.75317547305485,39.15063509461096 222.4038105676658,26.65063509461096" stroke="red" stroke-linecap="round" stroke-width="2" fill="none" />
    <polyline points="244.05444566227678,39.15063509461096 269.0544456622768,39.15063509461096 269.0544456622768,64.15063509461096 244.05444566227678,64.15063509461096 244.05444566227678,39.15063509461096" stroke="red" stroke-linecap="round" stroke-width="2" fill="none" />
    <polyline points="200.7531754730548,64.15063509461096 222.40381056766574,76.65063509461096 209.90381056766574,98.30127018922194 188.25317547305482,85.80127018922194 200.7531754730548,64.15063509461096" stroke="red" stroke-linecap="round" stroke-width="2" fill="none" />
    <polyline points="222.4038105676658,76.65063509461096 234.9038105676658,98.30127018922194 209.9038105676658,98.30127018922194 222.4038105676658,76.65063509461096" stroke="red" stroke-linecap="round" stroke-width="2" fill="none" />
    <polyline points="244.05444566227675,64.15063509461096 256.55444566227675,85.80127018922194 234.9038105676658,98.30127018922194 222.4038105676658,76.65063509461098 244.05444566227675,64.15063509461096" stroke="red" stroke-linecap="round" stroke-width="2" fill="none" />
    <polyline points="244.05444566227678,64.15063509461096 269.0544456622768,64.15063509461096 256.55444566227675,85.80127018922194 244.05444566227678,64.15063509461096" stroke="red" stroke-linecap="round" stroke-width="2" fill="none" />
    <polyline points="17.5,76.65063509461096 30.0,98.30127018922194 5.0,98.30127018922194 17.5,76.65063509461096" stroke="red" stroke-linecap="round" stroke-width="2" fill="none" />
    <polyline points="39.15063509461096,64.15063509461096 51.65063509461096,85.80127018922194 29.999999999999993,98.30127018922194 17.499999999999993,76.65063509461098 39.15063509461096,64.15063509461096" stroke="red" stroke-linecap="round" stroke-width="2" fill="none" />
    <polyline points="5.0,98.30127018922192 30.0,98.30127018922192 30.0,123.30127018922192 5.0,123.30127018922192 5.0,98.30127018922192" stroke="red" stroke-linecap="round" stroke-width="2" fill="none" />
    <polyline points="51.65063509461096,85.80127018922192 73.30127018922192,98.30127018922192 73.30127018922192,123.30127018922192 51.65063509461096,135.80127018922192 30.0,123.30127018922192 30.0,98.30127018922192 51.65063509461096,85.80127018922192" stroke="red" stroke-linecap="round" stroke-width="2" fill="none" />
    <polyline points="73.30127018922192,98.30127018922192 98.30127018922192,98.30127018922192 98.30127018922192,123.30127018922192 73.30127018922192,123.30127018922192 73.30127018922192,98.30127018922192" stroke="red" stroke-linecap="round" stroke-width="2" fill="none" />
    <polyline points="5.0,123.30127018922192 30.0,123.30127018922192 17.5,144.9519052838329 5.0,123.30127018922192" stroke="red" stroke-linecap="round" stroke-width="2" fill="none" />
    <polyline points="29.999999999999993,123.30127018922192 51.65063509461096,135.80127018922192 39.15063509461096,157.45190528383287 17.5,144.9519052838329 29.999999999999993,123.30127018922192" stroke="red" stroke-linecap="round" stroke-width="2" fill="none" />
    <polyline points="51.65063509461096,135.8012701892219 64.15063509461096,157.45190528383287 39.15063509461096,157.45190528383287 51.65063509461096,135.8012701892219" stroke="red" stroke-linecap="round" stroke-width="2" fill="none" />
    <polyline points="73.30127018922192,123.30127018922192 85.80127018922192,144.9519052838329 64.15063509461098,157.45190528383287 51.65063509461096,135.80127018922195 73.30127018922192,123.30127018922192" stroke="red" stroke-linecap="round" stroke-width="2" fill="none" />
    <polyline points="73.30127018922192,123.30127018922192 98.30127018922192,123.30127018922192 85.80127018922192,144.9519052838329 73.30127018922192,123.30127018922192" stroke="red" stroke-linecap="round" stroke-width="2" fill="none" />
    <polyline points="119.9519052838329,85.80127018922192 141.60254037844385,98.30127018922192 141.60254037844385,123.30127018922192 119.9519052838329,135.80127018922192 98.30127018922194,123.30127018922192 98.30127018922194,98.30127018922192 119.9519052838329,85.80127018922192" stroke="red" stroke-linecap="round" stroke-width="2" fill="none" />
    <polyline points="141.60254037844385,98.30127018922192 166.60254037844385,98.30127018922192 166.60254037844385,123.30127018922192 141.60254037844385,123.30127018922192 141.60254037844385,98.30127018922192" stroke="red" stroke-linecap="round" stroke-width="2" fill="none" />
    <polyline points="98.30127018922192,123.30127018922192 119.9519052838329,135.80127018922192 107.4519052838329,157.45190528383287 85.80127018922192,144.9519052838329 98.30127018922192,123.30127018922192" stroke="red" stroke-linecap="round" stroke-width="2" fill="none" />
    <polyline points="119.9519052838329,135.8012701892219 132.4519052838329,157.45190528383287 107.4519052838329,157.45190528383287 119.9519052838329,135.8012701892219" stroke="red" stroke-linecap="round" stroke-width="2" fill="none" />
    <polyline points="141.60254037844385,123.30127018922192 154.10254037844385,144.9519052838329 132.45190528383287,157.45190528383287 119.95190528383287,135.80127018922195 141.60254037844385,123.30127018922192" stroke="red" stroke-linecap="round" stroke-width="2" fill="none" />
    <polyline points="141.60254037844385,123.30127018922192 166.60254037844385,123.30127018922192 154.10254037844385,144.9519052838329 141.60254037844385,123.30127018922192" stroke="red" stroke-linecap="round" stroke-width="2" fill="none" />
    <polyline points="188.25317547305482,85.80127018922192 209.9038105676658,98.30127018922192 209.9038105676658,123.30127018922192 188.25317547305482,135.80127018922192 166.60254037844385,123.30127018922192 166.60254037844385,98.30127018922192 188.25317547305482,85.80127018922192" stroke="red" stroke-linecap="round" stroke-width="2" fill="none" />
    <polyline points="209.9038105676658,98.30127018922192 234.9038105676658,98.30127018922192 234.9038105676658,123.30127018922192 209.9038105676658,123.30127018922192 209.9038105676658,98.30127018922192" stroke="red" stroke-linecap="round" stroke-width="2" fill="none" />
    <polyline points="166.60254037844385,123.30127018922192 188.25317547305485,135.80127018922192 175.75317547305485,157.45190528383287 154.10254037844388,144.9519052838329 166.60254037844385,123.30127018922192" stroke="red" stroke-linecap="round" stroke-width="2" fill="none" />
    <polyline points="188.25317547305482,135.8012701892219 200.75317547305482,157.45190528383287 175.75317547305482,157.45190528383287 188.25317547305482,135.8012701892219" stroke="red" stroke-linecap="round" stroke-width="2" fill="none" />
    <polyline points="209.90381056766574,123.30127018922192 222.40381056766574,144.9519052838329 200.7531754730548,157.45190528383287 188.2531754730548,135.80127018922195 209.90381056766574,123.30127018922192" stroke="red" stroke-linecap="round" stroke-width="2" fill="none" />
    <polyline points="209.9038105676658,123.30127018922192 234.9038105676658,123.30127018922192 222.4038105676658,144.9519052838329 209.9038105676658,123.30127018922192" stroke="red" stroke-linecap="round" stroke-width="2" fill="none" />
    <polyline points="39.15063509461096,157.45190528383287 64.15063509461096,157.45190528383287 64.15063509461096,182.45190528383287 39.15063509461096,182.45190528383287 39.15063509461096,157.45190528383287" stroke="red" stroke-linecap="round" stroke-width="2" fill="none" />
    <polyline points="85.80127018922192,144.95190528383287 107.4519052838329,157.45190528383287 107.4519052838329,182.45190528383287 85.80127018922192,194.95190528383287 64.15063509461096,182.45190528383287 64.15063509461096,157.45190528383287 85.80127018922192,144.95190528383287" stroke="red" stroke-linecap="round" stroke-width="2" fill="none" />
    <polyline points="107.4519052838329,157.45190528383287 132.4519052838329,157.45190528383287 132.4519052838329,182.45190528383287 107.4519052838329,182.45190528383287 107.4519052838329,157.45190528383287" stroke="red" stroke-linecap="round" stroke-width="2" fill="none" />
    <polyline points="39.15063509461096,182.45190528383287 64.15063509461096,182.45190528383287 51.65063509461096,204.10254037844385 39.15063509461096,182.45190528383287" stroke="red" stroke-linecap="round" stroke-width="2" fill="none" />
    <polyline points="64.15063509461098,182.45190528383287 85.80127018922192,194.95190528383287 73.30127018922192,216.60254037844385 51.65063509461097,204.10254037844382 64.15063509461098,182.45190528383287" stroke="red" stroke-linecap="round" stroke-width="2" fill="none" />
    <polyline points="85.80127018922192,194.95190528383287 98.30127018922192,216.60254037844385 73.30127018922192,216.60254037844385 85.80127018922192,194.95190528383287" stroke="red" stroke-linecap="round" stroke-width="2" fill="none" />
    <polyline points="107.4519052838329,182.45190528383287 119.9519052838329,204.10254037844382 98.30127018922192,216.60254037844385 85.80127018922192,194.95190528383287 107.4519052838329,182.45190528383287" stroke="red" stroke-linecap="round" stroke-width="2" fill="none" />
    <polyline points="107.4519052838329,182.45190528383287 132.4519052838329,182.45190528383287 119.9519052838329,204.10254037844385 107.4519052838329,182.45190528383287" stroke="red" stroke-linecap="round" stroke-width="2" fill="none" />
    <polyline points="154.10254037844385,144.95190528383287 175.75317547305482,157.45190528383287 175.75317547305482,182.45190528383287 154.10254037844385,194.95190528383287 132.4519052838329,182.45190528383287 132.4519052838329,157.45190528383287 154.10254037844385,144.95190528383287" stroke="red" stroke-linecap="round" stroke-width="2" fill="none" />
    <polyline points="175.75317547305482,157.45190528383287 200.75317547305482,157.45190528383287 200.75317547305482,182.45190528383287 175.75317547305482,182.45190528383287 175.75317547305482,157.45190528383287" stroke="red" stroke-linecap="round" stroke-width="2" fill="none" />
    <polyline points="132.45190528383287,182.45190528383287 154.10254037844385,194.95190528383287 141.60254037844385,216.60254037844385 119.9519052838329,204.10254037844382 132.45190528383287,182.45190528383287" stroke="red" stroke-linecap="round" stroke-width="2" fill="none" />
    <polyline points="154.10254037844385,194.95190528383287 166.60254037844385,216.60254037844385 141.60254037844385,216.60254037844385 154.10254037844385,194.95190528383287" stroke="red" stroke-linecap="round" stroke-width="2" fill="none" />
    <polyline points="175.75317547305485,182.45190528383287 188.25317547305485,204.10254037844382 166.60254037844385,216.60254037844385 154.10254037844385,194.95190528383287 175.75317547305485,182.45190528383287" stroke="red" stroke-linecap="round" stroke-width="2" fill="none" />
    <polyline points="175.75317547305482,182.45190528383287 200.75317547305482,182.45190528383287 188.25317547305482,204.10254037844385 175.75317547305482,182.45190528383287" stroke="red" stroke-linecap="round" stroke-width="2" fill="none" />
    <polyline points="234.9038105676658,123.30127018922192 256.55444566227675,135.80127018922192 244.05444566227675,157.45190528383287 222.4038105676658,144.9519052838329 234.9038105676658,123.30127018922192" stroke="red" stroke-linecap="round" stroke-width="2" fill="none" />
    <polyline points="256.55444566227675,135.8012701892219 269.0544456622768,157.45190528383287 244.05444566227678,157.45190528383287 256.55444566227675,135.8012701892219" stroke="red" stroke-linecap="round" stroke-width="2" fill="none" />
    <polyline points="222.4038105676658,144.95190528383287 244.05444566227678,157.45190528383287 244.05444566227678,182.45190528383287 222.4038105676658,194.95190528383287 200.75317547305485,182.45190528383287 200.75317547305485,157.45190528383287 222.4038105676658,144.95190528383287" stroke="red" stroke-linecap="round" stroke-width="2" fill="none" />
    <polyline points="244.05444566227678,157.45190528383287 269.0544456622768,157.45190528383287 269.0544456622768,182.45190528383287 244.05444566227678,182.45190528383287 244.05444566227678,157.45190528383287" stroke="red" stroke-linecap="round" stroke-width="2" fill="none" />
    <polyline points="200.7531754730548,182.45190528383287 222.40381056766574,194.95190528383287 209.90381056766574,216.60254037844385 188.25317547305482,204.10254037844382 200.7531754730548,182.45190528383287" stroke="red" stroke-linecap="round" stroke-width="2" fill="none" />
    <polyline points="222.4038105676658,194.95190528383287 234.9038105676658,216.60254037844385 209.9038105676658,216.60254037844385 222.4038105676658,194.95190528383287" stroke="red" stroke-linecap="round" stroke-width="2" fill="none" />
    <polyline points="244.05444566227675,182.45190528383287 256.55444566227675,204.10254037844382 234.9038105676658,216.60254037844385 222.4038105676658,194.95190528383287 244.05444566227675,182.45190528383287" stroke="red" stroke-linecap="round" stroke-width="2" fill="none" />
    <polyline points="244.05444566227678,182.45190528383287 269.0544456622768,182.45190528383287 256.55444566227675,204.10254037844385 244.05444566227678,182.45190528383287" stroke="red" stroke-linecap="round" stroke-width="2" fill="none" />
</svg>
