<?xml version="1.0" encoding="UTF-8" standalone="no"?>
<!DOCTYPE svg PUBLIC "-//W3C//DTD SVG 1.1//EN" "http://www.w3.org/Graphics/SVG/1.1/DTD/svg11.dtd">
<svg width="137.4519052838329" height="162.4519052838329" viewBox="0 0 137.4519052838329 162.4519052838329" xmlns="http://www.w3.org/2000/svg" xmlns:xlink="http://www.w3.org/1999/xlink">
    <polygon points="17.5,17.5 30.0,39.15063509461096 5.0,39.15063509461096" stroke="black" stroke-linecap="round" stroke-width="1" fill="darkorange"/>
    <polygon points="39.15063509461096,5.000000000000002 51.65063509461096,26.650635094610966 29.999999999999993,39.15063509461096 17.499999999999993,17.500000000000007" stroke="black" stroke-linecap="round" stroke-width="1" fill="gold"/>
    <polygon points="39.15063509461096,5.0 64.15063509461096,5.0 51.65063509461096,26.65063509461097" stroke="black" stroke-linecap="round" stroke-width="1" fill="darkorange"/>
    <polygon points="64.15063509461098,5.000000000000002 85.80127018922192,17.5 73.30127018922192,39.15063509461096 51.65063509461097,26.65063509461097" stroke="black" stroke-linecap="round" stroke-width="1" fill="gold"/>
    <polygon points="85.80127018922192,17.5 98.30127018922192,39.15063509461096 73.30127018922192,39.15063509461096" stroke="black" stroke-linecap="round" stroke-width="1" fill="darkorange"/>
    <polygon points="5.0,39.15063509461096 30.0,39.15063509461096 30.0,64.15063509461096 5.0,64.15063509461096" stroke="black" stroke-linecap="round" stroke-width="1" fill="gold"/>
    <polygon points="51.65063509461096,26.650635094610966 73.30127018922192,39.15063509461096 73.30127018922192,64.15063509461096 51.65063509461096,76.65063509461096 30.0,64.15063509461096 30.0,39.15063509461096" stroke="black" stroke-linecap="round" stroke-width="1" fill="darkorange"/>
    <polygon points="73.30127018922192,39.15063509461096 98.30127018922192,39.15063509461096 98.30127018922192,64.15063509461096 73.30127018922192,64.15063509461096" stroke="black" stroke-linecap="round" stroke-width="1" fill="gold"/>
    <polygon points="5.0,64.15063509461096 30.0,64.15063509461096 17.5,85.80127018922192" stroke="black" stroke-linecap="round" stroke-width="1" fill="darkorange"/>
    <polygon points="29.999999999999993,64.15063509461096 51.65063509461096,76.65063509461096 39.15063509461096,98.30127018922192 17.5,85.80127018922192" stroke="black" stroke-linecap="round" stroke-width="1" fill="gold"/>
    <polygon points="51.65063509461096,76.65063509461096 64.15063509461096,98.30127018922192 39.15063509461096,98.30127018922192" stroke="black" stroke-linecap="round" stroke-width="1" fill="darkorange"/>
    <polygon points="73.30127018922192,64.15063509461096 85.80127018922192,85.80127018922192 64.15063509461098,98.30127018922192 51.65063509461096,76.65063509461096" stroke="black" stroke-linecap="round" stroke-width="1" fill="gold"/>
    <polygon points="73.30127018922192,64.15063509461096 98.30127018922192,64.15063509461096 85.80127018922192,85.80127018922192" stroke="black" stroke-linecap="round" stroke-width="1" fill="darkorange"/>
    <polygon points="98.30127018922192,64.15063509461096 119.9519052838329,76.65063509461096 107.4519052838329,98.30127018922192 85.80127018922192,85.80127018922192" stroke="black" stroke-linecap="round" stroke-width="1" fill="gold"/>
    <polygon points="119.9519052838329,76.65063509461096 132.4519052838329,98.30127018922192 107.4519052838329,98.30127018922192" stroke="black" stroke-linecap="round" stroke-width="1" fill="darkorange"/>
    <polygon points="39.15063509461096,98.30127018922192 64.15063509461096,98.30127018922192 64.15063509461096,123.30127018922192 39.15063509461096,123.30127018922192" stroke="black" stroke-linecap="round" stroke-width="1" fill="gold"/>
    <polygon points="85.80127018922192,85.80127018922192 107.4519052838329,98.30127018922192 107.4519052838329,123.30127018922192 85.80127018922192,135.80127018922192 64.15063509461096,123.30127018922192 64.15063509461096,98.30127018922192" stroke="black" stroke-linecap="round" stroke-width="1" fill="darkorange"/>
    <polygon points="107.4519052838329,98.30127018922192 132.4519052838329,98.30127018922192 132.4519052838329,123.30127018922192 107.4519052838329,123.30127018922192" stroke="black" stroke-linecap="round" stroke-width="1" fill="gold"/>
    <polygon points="39.15063509461096,123.30127018922192 64.15063509461096,123.30127018922192 51.65063509461096,144.9519052838329" stroke="black" stroke-linecap="round" stroke-width="1" fill="darkorange"/>
    <polygon points="64.15063509461098,123.30127018922192 85.80127018922192,135.80127018922192 73.30127018922192,157.4519052838329 51.65063509461097,144.9519052838329" stroke="black" stroke-linecap="round" stroke-width="1" fill="gold"/>
    <polygon points="85.80127018922192,135.80127018922192 98.30127018922192,157.4519052838329 73.30127018922192,157.4519052838329" stroke="black" stroke-linecap="round" stroke-width="1" fill="darkorange"/>
    <polygon points="107.4519052838329,123.30127018922192 119.9519052838329,144.9519052838329 98.30127018922192,157.4519052838329 85.80127018922192,135.80127018922195" stroke="black" stroke-linecap="round" stroke-width="1" fill="gold"/>
    <polygon points="107.4519052838329,123.30127018922192 132.4519052838329,123.30127018922192 119.9519052838329,144.9519052838329" stroke="black" stroke-linecap="round" stroke-width="1" fill="darkorange"/>
</svg>
