<?xml version="1.0" encoding="UTF-8" standalone="no"?>
<!DOCTYPE svg PUBLIC "-//W3C//DTD SVG 1.1//EN" "http://www.w3.org/Graphics/SVG/1.1/DTD/svg11.dtd">
<svg width="239.9038105676658" height="221.60254037844385" viewBox="0 0 239.9038105676658 221.60254037844385" xmlns="http://www.w3.org/2000/svg" xmlns:xlink="http://www.w3.org/1999/xlink">
    <polygon points="17.5,17.5 30.0,39.15063509461096 5.0,39.15063509461096" stroke="black" stroke-linecap="round" stroke-width="1" fill="#FF6F3C"/>
    <polygon points="39.15063509461096,5.000000000000002 51.65063509461096,26.650635094610966 29.999999999999993,39.15063509461096 17.499999999999993,17.500000000000007" stroke="black" stroke-linecap="round" stroke-width="1" fill="#FFC107"/>
    <polygon points="39.15063509461096,5.0 64.15063509461096,5.0 51.65063509461096,26.65063509461097" stroke="black" stroke-linecap="round" stroke-width="1" fill="#FF6F3C"/>
    <polygon points="64.15063509461098,5.000000000000002 85.80127018922192,17.5 73.30127018922192,39.15063509461096 51.65063509461097,26.65063509461097" stroke="black" stroke-linecap="round" stroke-width="1" fill="#FFC107"/>
    <polygon points="85.80127018922192,17.5 98.30127018922192,39.15063509461096 73.30127018922192,39.15063509461096" stroke="black" stroke-linecap="round" stroke-width="1" fill="#FF6F3C"/>
    <polygon points="5.0,39.15063509461096 30.0,39.15063509461096 30.0,64.15063509461096 5.0,64.15063509461096" stroke="black" stroke-linecap="round" stroke-width="1" fill="#FFC107"/>
    <polygon points="51.65063509461096,26.650635094610966 73.30127018922192,39.15063509461096 73.30127018922192,64.15063509461096 51.65063509461096,76.65063509461096 30.0,64.15063509461096 30.0,39.15063509461096" stroke="black" stroke-linecap="round" stroke-width="1" fill="#FF6F3C"/>
    <polygon points="73.30127018922192,39.15063509461096 98.30127018922192,39.15063509461096 98.30127018922192,64.15063509461096 73.30127018922192,64.15063509461096" stroke="black" stroke-linecap="round" stroke-width="1" fill="#FFC107"/>
    <polygon points="5.0,64.15063509461096 30.0,64.15063509461096 17.5,85.80127018922192" stroke="black" stroke-linecap="round" stroke-width="1" fill="#FF6F3C"/>
    <polygon points="29.999999999999993,64.15063509461096 51.65063509461096,76.65063509461096 39.15063509461096,98.30127018922192 17.5,85.80127018922192" stroke="black" stroke-linecap="round" stroke-width="1" fill="#FFC107"/>
    <polygon points="51.65063509461096,76.65063509461096 64.15063509461096,98.30127018922192 39.15063509461096,98.30127018922192" stroke="black" stroke-linecap="round" stroke-width="1" fill="#FF6F3C"/>
    <polygon points="73.30127018922192,64.15063509461096 85.80127018922192,85.80127018922192 64.15063509461098,98.30127018922192 51.65063509461096,76.65063509461096" stroke="black" stroke-linecap="round" stroke-width="1" fill="#FFC107"/>
    <polygon points="73.30127018922192,64.15063509461096 98.30127018922192,64.15063509461096 85.80127018922192,85.80127018922192" stroke="black" stroke-linecap="round" stroke-width="1" fill="#FF6F3C"/>
    <polygon points="107.4519052838329,5.000000000000002 119.9519052838329,26.650635094610966 98.30127018922192,39.15063509461096 85.80127018922192,17.500000000000007" stroke="black" stroke-linecap="round" stroke-width="1" fill="#FFC107"/>
    <polygon points="107.4519052838329,5.0 132.4519052838329,5.0 119.9519052838329,26.65063509461097" stroke="black" stroke-linecap="round" stroke-width="1" fill="#FF6F3C"/>
    <polygon points="132.45190528383287,5.000000000000002 154.10254037844385,17.5 141.60254037844385,39.15063509461096 119.9519052838329,26.65063509461097" stroke="black" stroke-linecap="round" stroke-width="1" fill="#FFC107"/>
    <polygon points="154.10254037844385,17.5 166.60254037844385,39.15063509461096 141.60254037844385,39.15063509461096" stroke="black" stroke-linecap="round" stroke-width="1" fill="#FF6F3C"/>
    <polygon points="119.9519052838329,26.650635094610966 141.60254037844385,39.15063509461096 141.60254037844385,64.15063509461096 119.9519052838329,76.65063509461096 98.30127018922194,64.15063509461096 98.30127018922194,39.15063509461096" stroke="black" stroke-linecap="round" stroke-width="1" fill="#FF6F3C"/>
    <polygon points="141.60254037844385,39.15063509461096 166.60254037844385,39.15063509461096 166.60254037844385,64.15063509461096 141.60254037844385,64.15063509461096" stroke="black" stroke-linecap="round" stroke-width="1" fill="#FFC107"/>
    <polygon points="98.30127018922192,64.15063509461096 119.9519052838329,76.65063509461096 107.4519052838329,98.30127018922192 85.80127018922192,85.80127018922192" stroke="black" stroke-linecap="round" stroke-width="1" fill="#FFC107"/>
    <polygon points="119.9519052838329,76.65063509461096 132.4519052838329,98.30127018922192 107.4519052838329,98.30127018922192" stroke="black" stroke-linecap="round" stroke-width="1" fill="#FF6F3C"/>
    <polygon points="141.60254037844385,64.15063509461096 154.10254037844385,85.80127018922192 132.45190528383287,98.30127018922192 119.95190528383287,76.65063509461096" stroke="black" stroke-linecap="round" stroke-width="1" fill="#FFC107"/>
    <polygon points="141.60254037844385,64.15063509461096 166.60254037844385,64.15063509461096 154.10254037844385,85.80127018922192" stroke="black" stroke-linecap="round" stroke-width="1" fill="#FF6F3C"/>
    <polygon points="175.75317547305485,5.000000000000002 188.25317547305485,26.650635094610966 166.60254037844385,39.15063509461096 154.10254037844385,17.500000000000007" stroke="black" stroke-linecap="round" stroke-width="1" fill="#FFC107"/>
    <polygon points="175.75317547305482,5.0 200.75317547305482,5.0 188.25317547305482,26.65063509461097" stroke="black" stroke-linecap="round" stroke-width="1" fill="#FF6F3C"/>
    <polygon points="200.7531754730548,5.000000000000002 222.40381056766574,17.5 209.90381056766574,39.15063509461096 188.25317547305482,26.65063509461097" stroke="black" stroke-linecap="round" stroke-width="1" fill="#FFC107"/>
    <polygon points="222.4038105676658,17.5 234.9038105676658,39.15063509461096 209.9038105676658,39.15063509461096" stroke="black" stroke-linecap="round" stroke-width="1" fill="#FF6F3C"/>
    <polygon points="188.25317547305482,26.650635094610966 209.9038105676658,39.15063509461096 209.9038105676658,64.15063509461096 188.25317547305482,76.65063509461096 166.60254037844385,64.15063509461096 166.60254037844385,39.15063509461096" stroke="black" stroke-linecap="round" stroke-width="1" fill="#FF6F3C"/>
    <polygon points="209.9038105676658,39.15063509461096 234.9038105676658,39.15063509461096 234.9038105676658,64.15063509461096 209.9038105676658,64.15063509461096" stroke="black" stroke-linecap="round" stroke-width="1" fill="#FFC107"/>
    <polygon points="166.60254037844385,64.15063509461096 188.25317547305485,76.65063509461096 175.75317547305485,98.30127018922192 154.10254037844388,85.80127018922192" stroke="black" stroke-linecap="round" stroke-width="1" fill="#FFC107"/>
    <polygon points="188.25317547305482,76.65063509461096 200.75317547305482,98.30127018922192 175.75317547305482,98.30127018922192" stroke="black" stroke-linecap="round" stroke-width="1" fill="#FF6F3C"/>
    <polygon points="209.90381056766574,64.15063509461096 222.40381056766574,85.80127018922192 200.7531754730548,98.30127018922192 188.2531754730548,76.65063509461096" stroke="black" stroke-linecap="round" stroke-width="1" fill="#FFC107"/>
    <polygon points="209.9038105676658,64.15063509461096 234.9038105676658,64.15063509461096 222.4038105676658,85.80127018922192" stroke="black" stroke-linecap="round" stroke-width="1" fill="#FF6F3C"/>
    <polygon points="39.15063509461096,98.30127018922192 64.15063509461096,98.30127018922192 64.15063509461096,123.30127018922192 39.15063509461096,123.30127018922192" stroke="black" stroke-linecap="round" stroke-width="1" fill="#FFC107"/>
    <polygon points="85.80127018922192,85.80127018922192 107.4519052838329,98.30127018922192 107.4519052838329,123.30127018922192 85.80127018922192,135.80127018922192 64.15063509461096,123.30127018922192 64.15063509461096,98.30127018922192" stroke="black" stroke-linecap="round" stroke-width="1" fill="#FF6F3C"/>
    <polygon points="107.4519052838329,98.30127018922192 132.4519052838329,98.30127018922192 132.4519052838329,123.30127018922192 107.4519052838329,123.30127018922192" stroke="black" stroke-linecap="round" stroke-width="1" fill="#FFC107"/>
    <polygon points="39.15063509461096,123.30127018922192 64.15063509461096,123.30127018922192 51.65063509461096,144.9519052838329" stroke="black" stroke-linecap="round" stroke-width="1" fill="#FF6F3C"/>
    <polygon points="64.15063509461098,123.30127018922192 85.80127018922192,135.80127018922192 73.30127018922192,157.4519052838329 51.65063509461097,144.9519052838329" stroke="black" stroke-linecap="round" stroke-width="1" fill="#FFC107"/>
    <polygon points="85.80127018922192,135.80127018922192 98.30127018922192,157.4519052838329 73.30127018922192,157.4519052838329" stroke="black" stroke-linecap="round" stroke-width="1" fill="#FF6F3C"/>
    <polygon points="107.4519052838329,123.30127018922192 119.9519052838329,144.9519052838329 98.30127018922192,157.4519052838329 85.80127018922192,135.80127018922195" stroke="black" stroke-linecap="round" stroke-width="1" fill="#FFC107"/>
    <polygon points="107.4519052838329,123.30127018922192 132.4519052838329,123.30127018922192 119.9519052838329,144.9519052838329" stroke="black" stroke-linecap="round" stroke-width="1" fill="#FF6F3C"/>
    <polygon points="154.10254037844385,85.80127018922192 175.75317547305482,98.30127018922192 175.75317547305482,123.30127018922192 154.10254037844385,135.80127018922192 132.4519052838329,123.30127018922192 132.4519052838329,98.30127018922192" stroke="black" stroke-linecap="round" stroke-width="1" fill="#FF6F3C"/>
    <polygon points="175.75317547305482,98.30127018922192 200.75317547305482,98.30127018922192 200.75317547305482,123.30127018922192 175.75317547305482,123.30127018922192" stroke="black" stroke-linecap="round" stroke-width="1" fill="#FFC107"/>
    <polygon points="132.45190528383287,123.30127018922192 154.10254037844385,135.80127018922192 141.60254037844385,157.4519052838329 119.9519052838329,144.9519052838329" stroke="black" stroke-linecap="round" stroke-width="1" fill="#FFC107"/>
    <polygon points="154.10254037844385,135.80127018922192 166.60254037844385,157.4519052838329 141.60254037844385,157.4519052838329" stroke="black" stroke-linecap="round" stroke-width="1" fill="#FF6F3C"/>
    <polygon points="175.75317547305485,123.30127018922192 188.25317547305485,144.9519052838329 166.60254037844385,157.4519052838329 154.10254037844385,135.80127018922195" stroke="black" stroke-linecap="round" stroke-width="1" fill="#FFC107"/>
    <polygon points="175.75317547305482,123.30127018922192 200.75317547305482,123.30127018922192 188.25317547305482,144.9519052838329" stroke="black" stroke-linecap="round" stroke-width="1" fill="#FF6F3C"/>
    <polygon points="17.5,135.80127018922192 30.0,157.4519052838329 5.0,157.4519052838329" stroke="black" stroke-linecap="round" stroke-width="1" fill="#FF6F3C"/>
    <polygon points="39.15063509461096,123.30127018922192 51.65063509461096,144.9519052838329 29.999999999999993,157.4519052838329 17.499999999999993,135.80127018922195" stroke="black" stroke-linecap="round" stroke-width="1" fill="#FFC107"/>
    <polygon points="5.0,157.45190528383287 30.0,157.45190528383287 30.0,182.45190528383287 5.0,182.45190528383287" stroke="black" stroke-linecap="round" stroke-width="1" fill="#FFC107"/>
    <polygon points="51.65063509461096,144.95190528383287 73.30127018922192,157.45190528383287 73.30127018922192,182.45190528383287 51.65063509461096,194.95190528383287 30.0,182.45190528383287 30.0,157.45190528383287" stroke="black" stroke-linecap="round" stroke-width="1" fill="#FF6F3C"/>
    <polygon points="73.30127018922192,157.45190528383287 98.30127018922192,157.45190528383287 98.30127018922192,182.45190528383287 73.30127018922192,182.45190528383287" stroke="black" stroke-linecap="round" stroke-width="1" fill="#FFC107"/>
    <polygon points="5.0,182.45190528383287 30.0,182.45190528383287 17.5,204.10254037844385" stroke="black" stroke-linecap="round" stroke-width="1" fill="#FF6F3C"/>
    <polygon points="29.999999999999993,182.45190528383287 51.65063509461096,194.95190528383287 39.15063509461096,216.60254037844385 17.5,204.10254037844385" stroke="black" stroke-linecap="round" stroke-width="1" fill="#FFC107"/>
    <polygon points="51.65063509461096,194.95190528383284 64.15063509461096,216.60254037844385 39.15063509461096,216.60254037844385" stroke="black" stroke-linecap="round" stroke-width="1" fill="#FF6F3C"/>
    <polygon points="73.30127018922192,182.45190528383287 85.80127018922192,204.10254037844385 64.15063509461098,216.60254037844385 51.65063509461096,194.9519052838329" stroke="black" stroke-linecap="round" stroke-width="1" fill="#FFC107"/>
    <polygon points="73.30127018922192,182.45190528383287 98.30127018922192,182.45190528383287 85.80127018922192,204.10254037844385" stroke="black" stroke-linecap="round" stroke-width="1" fill="#FF6F3C"/>
    <polygon points="119.9519052838329,144.95190528383287 141.60254037844385,157.45190528383287 141.60254037844385,182.45190528383287 119.9519052838329,194.95190528383287 98.30127018922194,182.45190528383287 98.30127018922194,157.45190528383287" stroke="black" stroke-linecap="round" stroke-width="1" fill="#FF6F3C"/>
    <polygon points="141.60254037844385,157.45190528383287 166.60254037844385,157.45190528383287 166.60254037844385,182.45190528383287 141.60254037844385,182.45190528383287" stroke="black" stroke-linecap="round" stroke-width="1" fill="#FFC107"/>
    <polygon points="98.30127018922192,182.45190528383287 119.9519052838329,194.95190528383287 107.4519052838329,216.60254037844385 85.80127018922192,204.10254037844385" stroke="black" stroke-linecap="round" stroke-width="1" fill="#FFC107"/>
    <polygon points="119.9519052838329,194.95190528383284 132.4519052838329,216.60254037844385 107.4519052838329,216.60254037844385" stroke="black" stroke-linecap="round" stroke-width="1" fill="#FF6F3C"/>
    <polygon points="141.60254037844385,182.45190528383287 154.10254037844385,204.10254037844385 132.45190528383287,216.60254037844385 119.95190528383287,194.9519052838329" stroke="black" stroke-linecap="round" stroke-width="1" fill="#FFC107"/>
    <polygon points="141.60254037844385,182.45190528383287 166.60254037844385,182.45190528383287 154.10254037844385,204.10254037844385" stroke="black" stroke-linecap="round" stroke-width="1" fill="#FF6F3C"/>
    <polygon points="200.7531754730548,123.30127018922192 222.40381056766574,135.80127018922192 209.90381056766574,157.4519052838329 188.25317547305482,144.9519052838329" stroke="black" stroke-linecap="round" stroke-width="1" fill="#FFC107"/>
    <polygon points="222.4038105676658,135.80127018922192 234.9038105676658,157.4519052838329 209.9038105676658,157.4519052838329" stroke="black" stroke-linecap="round" stroke-width="1" fill="#FF6F3C"/>
    <polygon points="188.25317547305482,144.95190528383287 209.9038105676658,157.45190528383287 209.9038105676658,182.45190528383287 188.25317547305482,194.95190528383287 166.60254037844385,182.45190528383287 166.60254037844385,157.45190528383287" stroke="black" stroke-linecap="round" stroke-width="1" fill="#FF6F3C"/>
    <polygon points="209.9038105676658,157.45190528383287 234.9038105676658,157.45190528383287 234.9038105676658,182.45190528383287 209.9038105676658,182.45190528383287" stroke="black" stroke-linecap="round" stroke-width="1" fill="#FFC107"/>
    <polygon points="166.60254037844385,182.45190528383287 188.25317547305485,194.95190528383287 175.75317547305485,216.60254037844385 154.10254037844388,204.10254037844385" stroke="black" stroke-linecap="round" stroke-width="1" fill="#FFC107"/>
    <polygon points="188.25317547305482,194.95190528383284 200.75317547305482,216.60254037844385 175.75317547305482,216.60254037844385" stroke="black" stroke-linecap="round" stroke-width="1" fill="#FF6F3C"/>
    <polygon points="209.90381056766574,182.45190528383287 222.40381056766574,204.10254037844385 200.7531754730548,216.60254037844385 188.2531754730548,194.9519052838329" stroke="black" stroke-linecap="round" stroke-width="1" fill="#FFC107"/>
    <polygon points="209.9038105676658,182.45190528383287 234.9038105676658,182.45190528383287 222.4038105676658,204.10254037844385" stroke="black" stroke-linecap="round" stroke-width="1" fill="#FF6F3C"/>
</svg>
