<?xml version="1.0" encoding="UTF-8" standalone="no"?>
<!DOCTYPE svg PUBLIC "-//W3C//DTD SVG 1.1//EN" "http://www.w3.org/Graphics/SVG/1.1/DTD/svg11.dtd">
<svg width="269.8505751938438" height="222.7624429800926" viewBox="0 0 269.8505751938438 222.7624429800926" xmlns="http://www.w3.org/2000/svg" xmlns:xlink="http://www.w3.org/1999/xlink">
    <polygon points="61.69467095138406,45.915854419248575 38.071891388307364,37.73268353539886 56.97011503876872,21.36634176769943" stroke="black" stroke-linecap="round" stroke-width="1" fill="darkorange"/>
    <polygon points="56.970115038768725,21.36634176769943 80.59289460184543,29.549512651549144 61.694670951384076,45.915854419248575" stroke="black" stroke-linecap="round" stroke-width="1" fill="gold"/>
    <polygon points="80.59289460184543,29.549512651549144 56.970115038768725,21.36634176769943 75.86833868923009,5.0" stroke="black" stroke-linecap="round" stroke-width="1" fill="darkorange"/>
    <polygon points="75.86833868923009,5.0 99.49111825230678,13.18317088384971 80.59289460184543,29.549512651549144" stroke="black" stroke-linecap="round" stroke-width="1" fill="gold"/>
    <polygon points="104.21567416492213,37.732683535398856 80.59289460184543,29.549512651549144 99.49111825230678,13.18317088384971" stroke="black" stroke-linecap="round" stroke-width="1" fill="darkorange"/>
    <polygon points="99.49111825230679,13.18317088384971 123.11389781538351,21.36634176769942 104.21567416492213,37.732683535398856" stroke="black" stroke-linecap="round" stroke-width="1" fill="gold"/>
    <polygon points="127.83845372799884,45.915854419248575 104.21567416492213,37.73268353539886 123.11389781538348,21.36634176769943" stroke="black" stroke-linecap="round" stroke-width="1" fill="darkorange"/>
    <polygon points="38.071891388307364,37.732683535398856 61.69467095138406,45.91585441924857 42.79644730092271,62.282196186948006" stroke="black" stroke-linecap="round" stroke-width="1" fill="gold"/>
    <polygon points="66.41922686399941,70.46536707079773 42.79644730092271,62.282196186948006 61.69467095138406,45.915854419248575" stroke="black" stroke-linecap="round" stroke-width="1" fill="darkorange"/>
    <polygon points="80.59289460184543,29.549512651549144 104.21567416492212,37.732683535398856 108.94023007753748,62.282196186947985 90.04200642707612,78.64853795464742 66.41922686399941,70.46536707079773 61.69467095138406,45.915854419248575" stroke="black" stroke-linecap="round" stroke-width="1" fill="greenyellow"/>
    <polygon points="104.21567416492213,37.732683535398856 127.83845372799884,45.91585441924857 108.94023007753748,62.282196186948006" stroke="black" stroke-linecap="round" stroke-width="1" fill="gold"/>
    <polygon points="132.5630096406142,70.46536707079773 108.94023007753748,62.282196186948006 127.83845372799884,45.915854419248575" stroke="black" stroke-linecap="round" stroke-width="1" fill="darkorange"/>
    <polygon points="42.79644730092272,62.282196186947985 66.41922686399943,70.46536707079771 47.521003213538066,86.83170883849715" stroke="black" stroke-linecap="round" stroke-width="1" fill="gold"/>
    <polygon points="71.14378277661477,95.01487972234688 47.521003213538066,86.83170883849715 66.41922686399943,70.46536707079771" stroke="black" stroke-linecap="round" stroke-width="1" fill="darkorange"/>
    <polygon points="66.41922686399943,70.46536707079771 90.04200642707612,78.64853795464742 71.14378277661477,95.01487972234688" stroke="black" stroke-linecap="round" stroke-width="1" fill="gold"/>
    <polygon points="94.76656233969148,103.19805060619657 71.14378277661477,95.01487972234688 90.04200642707612,78.64853795464742" stroke="black" stroke-linecap="round" stroke-width="1" fill="darkorange"/>
    <polygon points="90.04200642707612,78.64853795464742 113.66478599015284,86.83170883849715 94.76656233969148,103.1980506061966" stroke="black" stroke-linecap="round" stroke-width="1" fill="gold"/>
    <polygon points="113.66478599015284,86.83170883849718 90.04200642707612,78.64853795464745 108.94023007753748,62.282196186948006" stroke="black" stroke-linecap="round" stroke-width="1" fill="darkorange"/>
    <polygon points="108.94023007753748,62.282196186947985 132.5630096406142,70.46536707079771 113.66478599015284,86.83170883849715" stroke="black" stroke-linecap="round" stroke-width="1" fill="gold"/>
    <polygon points="123.11389781538351,21.36634176769943 146.7366773784602,29.549512651549144 127.83845372799884,45.915854419248575" stroke="black" stroke-linecap="round" stroke-width="1" fill="gold"/>
    <polygon points="146.7366773784602,29.549512651549144 123.11389781538348,21.36634176769943 142.01212146584484,5.0" stroke="black" stroke-linecap="round" stroke-width="1" fill="darkorange"/>
    <polygon points="142.01212146584484,5.0 165.63490102892155,13.18317088384971 146.73667737846017,29.549512651549144" stroke="black" stroke-linecap="round" stroke-width="1" fill="gold"/>
    <polygon points="170.3594569415369,37.732683535398856 146.73667737846017,29.549512651549144 165.63490102892155,13.18317088384971" stroke="black" stroke-linecap="round" stroke-width="1" fill="darkorange"/>
    <polygon points="165.63490102892155,13.18317088384971 189.25768059199828,21.36634176769942 170.3594569415369,37.732683535398856" stroke="black" stroke-linecap="round" stroke-width="1" fill="gold"/>
    <polygon points="193.9822365046136,45.915854419248575 170.35945694153688,37.73268353539886 189.25768059199825,21.36634176769943" stroke="black" stroke-linecap="round" stroke-width="1" fill="darkorange"/>
    <polygon points="146.73667737846017,29.549512651549144 170.35945694153688,37.732683535398856 175.08401285415223,62.282196186947985 156.18578920369086,78.64853795464742 132.56300964061415,70.46536707079773 127.83845372799883,45.915854419248575" stroke="black" stroke-linecap="round" stroke-width="1" fill="greenyellow"/>
    <polygon points="170.3594569415369,37.732683535398856 193.9822365046136,45.91585441924857 175.08401285415223,62.282196186948006" stroke="black" stroke-linecap="round" stroke-width="1" fill="gold"/>
    <polygon points="198.70679241722894,70.46536707079773 175.08401285415223,62.282196186948006 193.98223650461358,45.915854419248575" stroke="black" stroke-linecap="round" stroke-width="1" fill="darkorange"/>
    <polygon points="137.28756555322957,95.01487972234688 113.66478599015284,86.83170883849715 132.5630096406142,70.46536707079771" stroke="black" stroke-linecap="round" stroke-width="1" fill="darkorange"/>
    <polygon points="132.56300964061418,70.46536707079771 156.1857892036909,78.64853795464742 137.28756555322954,95.01487972234688" stroke="black" stroke-linecap="round" stroke-width="1" fill="gold"/>
    <polygon points="160.91034511630625,103.19805060619657 137.28756555322954,95.01487972234688 156.1857892036909,78.64853795464742" stroke="black" stroke-linecap="round" stroke-width="1" fill="darkorange"/>
    <polygon points="156.1857892036909,78.64853795464742 179.8085687667676,86.83170883849715 160.91034511630625,103.1980506061966" stroke="black" stroke-linecap="round" stroke-width="1" fill="gold"/>
    <polygon points="179.8085687667676,86.83170883849718 156.1857892036909,78.64853795464745 175.08401285415223,62.282196186948006" stroke="black" stroke-linecap="round" stroke-width="1" fill="darkorange"/>
    <polygon points="175.08401285415226,62.282196186947985 198.70679241722897,70.46536707079771 179.8085687667676,86.83170883849715" stroke="black" stroke-linecap="round" stroke-width="1" fill="gold"/>
    <polygon points="189.25768059199825,21.36634176769943 212.88046015507496,29.549512651549144 193.9822365046136,45.915854419248575" stroke="black" stroke-linecap="round" stroke-width="1" fill="gold"/>
    <polygon points="212.88046015507496,29.549512651549144 189.25768059199825,21.36634176769943 208.15590424245963,5.0" stroke="black" stroke-linecap="round" stroke-width="1" fill="darkorange"/>
    <polygon points="208.15590424245963,5.0 231.77868380553633,13.18317088384971 212.88046015507499,29.549512651549144" stroke="black" stroke-linecap="round" stroke-width="1" fill="gold"/>
    <polygon points="236.50323971815166,37.732683535398856 212.88046015507496,29.549512651549144 231.77868380553633,13.18317088384971" stroke="black" stroke-linecap="round" stroke-width="1" fill="darkorange"/>
    <polygon points="231.77868380553633,13.18317088384971 255.40146336861304,21.36634176769942 236.5032397181517,37.732683535398856" stroke="black" stroke-linecap="round" stroke-width="1" fill="gold"/>
    <polygon points="260.12601928122837,45.915854419248575 236.50323971815166,37.73268353539886 255.40146336861304,21.36634176769943" stroke="black" stroke-linecap="round" stroke-width="1" fill="darkorange"/>
    <polygon points="212.88046015507496,29.549512651549144 236.50323971815166,37.732683535398856 241.22779563076702,62.282196186947985 222.32957198030567,78.64853795464742 198.70679241722894,70.46536707079773 193.9822365046136,45.915854419248575" stroke="black" stroke-linecap="round" stroke-width="1" fill="greenyellow"/>
    <polygon points="236.5032397181517,37.732683535398856 260.1260192812284,45.91585441924857 241.22779563076705,62.282196186948006" stroke="black" stroke-linecap="round" stroke-width="1" fill="gold"/>
    <polygon points="264.8505751938437,70.46536707079773 241.22779563076702,62.282196186948006 260.1260192812284,45.915854419248575" stroke="black" stroke-linecap="round" stroke-width="1" fill="darkorange"/>
    <polygon points="203.4313483298443,95.01487972234688 179.8085687667676,86.83170883849715 198.70679241722894,70.46536707079771" stroke="black" stroke-linecap="round" stroke-width="1" fill="darkorange"/>
    <polygon points="198.70679241722897,70.46536707079771 222.32957198030567,78.64853795464742 203.4313483298443,95.01487972234688" stroke="black" stroke-linecap="round" stroke-width="1" fill="gold"/>
    <polygon points="227.05412789292097,103.19805060619657 203.43134832984427,95.01487972234688 222.32957198030567,78.64853795464742" stroke="black" stroke-linecap="round" stroke-width="1" fill="darkorange"/>
    <polygon points="222.32957198030567,78.64853795464742 245.95235154338238,86.83170883849715 227.05412789292103,103.1980506061966" stroke="black" stroke-linecap="round" stroke-width="1" fill="gold"/>
    <polygon points="245.95235154338238,86.83170883849718 222.32957198030567,78.64853795464745 241.22779563076705,62.282196186948006" stroke="black" stroke-linecap="round" stroke-width="1" fill="darkorange"/>
    <polygon points="241.22779563076705,62.282196186947985 264.8505751938438,70.46536707079771 245.9523515433824,86.83170883849715" stroke="black" stroke-linecap="round" stroke-width="1" fill="gold"/>
    <polygon points="28.62277956307671,103.19805060619657 5.0,95.01487972234688 23.89822365046136,78.64853795464742" stroke="black" stroke-linecap="round" stroke-width="1" fill="darkorange"/>
    <polygon points="23.89822365046136,78.64853795464742 47.521003213538066,86.83170883849715 28.62277956307671,103.1980506061966" stroke="black" stroke-linecap="round" stroke-width="1" fill="gold"/>
    <polygon points="47.52100321353806,86.83170883849718 23.898223650461357,78.64853795464745 42.796447300922715,62.282196186948006" stroke="black" stroke-linecap="round" stroke-width="1" fill="darkorange"/>
    <polygon points="5.000000000000002,95.01487972234685 28.62277956307671,103.19805060619657 9.724555912615351,119.56439237389601" stroke="black" stroke-linecap="round" stroke-width="1" fill="gold"/>
    <polygon points="33.34733547569205,127.74756325774572 9.724555912615347,119.564392373896 28.62277956307671,103.19805060619655" stroke="black" stroke-linecap="round" stroke-width="1" fill="darkorange"/>
    <polygon points="47.521003213538066,86.83170883849715 71.14378277661477,95.01487972234688 75.8683386892301,119.56439237389601 56.970115038768746,135.93073414159545 33.34733547569205,127.74756325774574 28.622779563076698,103.1980506061966" stroke="black" stroke-linecap="round" stroke-width="1" fill="greenyellow"/>
    <polygon points="71.14378277661477,95.01487972234685 94.76656233969148,103.19805060619657 75.86833868923011,119.56439237389601" stroke="black" stroke-linecap="round" stroke-width="1" fill="gold"/>
    <polygon points="99.49111825230682,127.74756325774572 75.86833868923011,119.564392373896 94.76656233969148,103.19805060619655" stroke="black" stroke-linecap="round" stroke-width="1" fill="darkorange"/>
    <polygon points="9.724555912615314,119.56439237389597 33.34733547569201,127.7475632577457 14.449111825230663,144.11390502544515" stroke="black" stroke-linecap="round" stroke-width="1" fill="gold"/>
    <polygon points="38.071891388307364,152.29707590929485 14.449111825230657,144.11390502544515 33.34733547569201,127.7475632577457" stroke="black" stroke-linecap="round" stroke-width="1" fill="darkorange"/>
    <polygon points="33.34733547569203,127.7475632577457 56.970115038768725,135.93073414159542 38.07189138830737,152.29707590929485" stroke="black" stroke-linecap="round" stroke-width="1" fill="gold"/>
    <polygon points="61.69467095138406,160.48024679314457 38.071891388307364,152.29707590929485 56.97011503876872,135.9307341415954" stroke="black" stroke-linecap="round" stroke-width="1" fill="darkorange"/>
    <polygon points="56.970115038768725,135.93073414159542 80.59289460184543,144.11390502544515 61.694670951384076,160.48024679314457" stroke="black" stroke-linecap="round" stroke-width="1" fill="gold"/>
    <polygon points="80.59289460184543,144.11390502544515 56.970115038768725,135.93073414159545 75.86833868923009,119.564392373896" stroke="black" stroke-linecap="round" stroke-width="1" fill="darkorange"/>
    <polygon points="75.86833868923009,119.56439237389597 99.49111825230678,127.7475632577457 80.59289460184543,144.11390502544515" stroke="black" stroke-linecap="round" stroke-width="1" fill="gold"/>
    <polygon points="113.66478599015284,86.83170883849715 137.28756555322954,95.01487972234688 142.01212146584487,119.56439237389601 123.11389781538351,135.93073414159545 99.49111825230682,127.74756325774574 94.76656233969148,103.1980506061966" stroke="black" stroke-linecap="round" stroke-width="1" fill="greenyellow"/>
    <polygon points="137.28756555322954,95.01487972234685 160.91034511630625,103.19805060619657 142.0121214658449,119.56439237389601" stroke="black" stroke-linecap="round" stroke-width="1" fill="gold"/>
    <polygon points="165.6349010289216,127.74756325774572 142.01212146584487,119.564392373896 160.91034511630625,103.19805060619655" stroke="black" stroke-linecap="round" stroke-width="1" fill="darkorange"/>
    <polygon points="104.21567416492213,152.29707590929485 80.59289460184543,144.11390502544515 99.49111825230678,127.7475632577457" stroke="black" stroke-linecap="round" stroke-width="1" fill="darkorange"/>
    <polygon points="99.49111825230679,127.7475632577457 123.11389781538351,135.93073414159542 104.21567416492213,152.29707590929485" stroke="black" stroke-linecap="round" stroke-width="1" fill="gold"/>
    <polygon points="127.83845372799884,160.48024679314457 104.21567416492213,152.29707590929485 123.11389781538348,135.9307341415954" stroke="black" stroke-linecap="round" stroke-width="1" fill="darkorange"/>
    <polygon points="123.11389781538351,135.93073414159542 146.7366773784602,144.11390502544515 127.83845372799884,160.48024679314457" stroke="black" stroke-linecap="round" stroke-width="1" fill="gold"/>
    <polygon points="146.7366773784602,144.11390502544515 123.11389781538348,135.93073414159545 142.01212146584484,119.564392373896" stroke="black" stroke-linecap="round" stroke-width="1" fill="darkorange"/>
    <polygon points="142.01212146584484,119.56439237389597 165.63490102892155,127.7475632577457 146.73667737846017,144.11390502544515" stroke="black" stroke-linecap="round" stroke-width="1" fill="gold"/>
    <polygon points="179.8085687667676,86.83170883849715 203.4313483298443,95.01487972234688 208.15590424245963,119.56439237389601 189.25768059199828,135.93073414159545 165.63490102892158,127.74756325774574 160.91034511630625,103.1980506061966" stroke="black" stroke-linecap="round" stroke-width="1" fill="greenyellow"/>
    <polygon points="203.43134832984433,95.01487972234685 227.05412789292103,103.19805060619657 208.15590424245968,119.56439237389601" stroke="black" stroke-linecap="round" stroke-width="1" fill="gold"/>
    <polygon points="231.77868380553633,127.74756325774572 208.15590424245963,119.564392373896 227.05412789292103,103.19805060619655" stroke="black" stroke-linecap="round" stroke-width="1" fill="darkorange"/>
    <polygon points="170.3594569415369,152.29707590929485 146.73667737846017,144.11390502544515 165.63490102892155,127.7475632577457" stroke="black" stroke-linecap="round" stroke-width="1" fill="darkorange"/>
    <polygon points="165.63490102892155,127.7475632577457 189.25768059199828,135.93073414159542 170.3594569415369,152.29707590929485" stroke="black" stroke-linecap="round" stroke-width="1" fill="gold"/>
    <polygon points="193.9822365046136,160.48024679314457 170.35945694153688,152.29707590929485 189.25768059199825,135.9307341415954" stroke="black" stroke-linecap="round" stroke-width="1" fill="darkorange"/>
    <polygon points="189.25768059199825,135.93073414159542 212.88046015507496,144.11390502544515 193.9822365046136,160.48024679314457" stroke="black" stroke-linecap="round" stroke-width="1" fill="gold"/>
    <polygon points="212.88046015507496,144.11390502544515 189.25768059199825,135.93073414159545 208.15590424245963,119.564392373896" stroke="black" stroke-linecap="round" stroke-width="1" fill="darkorange"/>
    <polygon points="208.15590424245963,119.56439237389597 231.77868380553633,127.7475632577457 212.88046015507499,144.11390502544515" stroke="black" stroke-linecap="round" stroke-width="1" fill="gold"/>
    <polygon points="38.071891388307364,152.29707590929482 61.69467095138406,160.48024679314452 42.79644730092271,176.84658856084397" stroke="black" stroke-linecap="round" stroke-width="1" fill="gold"/>
    <polygon points="66.41922686399941,185.0297594446937 42.79644730092271,176.846588560844 61.69467095138406,160.48024679314457" stroke="black" stroke-linecap="round" stroke-width="1" fill="darkorange"/>
    <polygon points="80.59289460184543,144.11390502544515 104.21567416492212,152.29707590929485 108.94023007753748,176.846588560844 90.04200642707612,193.21293032854345 66.41922686399941,185.02975944469375 61.69467095138406,160.4802467931446" stroke="black" stroke-linecap="round" stroke-width="1" fill="greenyellow"/>
    <polygon points="104.21567416492213,152.29707590929482 127.83845372799884,160.48024679314452 108.94023007753748,176.84658856084397" stroke="black" stroke-linecap="round" stroke-width="1" fill="gold"/>
    <polygon points="132.5630096406142,185.0297594446937 108.94023007753748,176.846588560844 127.83845372799884,160.48024679314457" stroke="black" stroke-linecap="round" stroke-width="1" fill="darkorange"/>
    <polygon points="42.79644730092272,176.846588560844 66.41922686399943,185.0297594446937 47.521003213538066,201.39610121239315" stroke="black" stroke-linecap="round" stroke-width="1" fill="gold"/>
    <polygon points="71.14378277661477,209.57927209624285 47.521003213538066,201.39610121239315 66.41922686399943,185.0297594446937" stroke="black" stroke-linecap="round" stroke-width="1" fill="darkorange"/>
    <polygon points="66.41922686399943,185.0297594446937 90.04200642707612,193.2129303285434 71.14378277661477,209.57927209624285" stroke="black" stroke-linecap="round" stroke-width="1" fill="gold"/>
    <polygon points="94.76656233969148,217.7624429800926 71.14378277661477,209.5792720962429 90.04200642707612,193.21293032854345" stroke="black" stroke-linecap="round" stroke-width="1" fill="darkorange"/>
    <polygon points="90.04200642707612,193.21293032854345 113.66478599015284,201.39610121239315 94.76656233969148,217.7624429800926" stroke="black" stroke-linecap="round" stroke-width="1" fill="gold"/>
    <polygon points="113.66478599015284,201.39610121239315 90.04200642707612,193.21293032854345 108.94023007753748,176.846588560844" stroke="black" stroke-linecap="round" stroke-width="1" fill="darkorange"/>
    <polygon points="108.94023007753748,176.846588560844 132.5630096406142,185.0297594446937 113.66478599015284,201.39610121239315" stroke="black" stroke-linecap="round" stroke-width="1" fill="gold"/>
    <polygon points="146.73667737846017,144.11390502544515 170.35945694153688,152.29707590929485 175.08401285415223,176.846588560844 156.18578920369086,193.21293032854345 132.56300964061415,185.02975944469375 127.83845372799883,160.4802467931446" stroke="black" stroke-linecap="round" stroke-width="1" fill="greenyellow"/>
    <polygon points="170.3594569415369,152.29707590929482 193.9822365046136,160.48024679314452 175.08401285415223,176.84658856084397" stroke="black" stroke-linecap="round" stroke-width="1" fill="gold"/>
    <polygon points="198.70679241722894,185.0297594446937 175.08401285415223,176.846588560844 193.98223650461358,160.48024679314457" stroke="black" stroke-linecap="round" stroke-width="1" fill="darkorange"/>
    <polygon points="137.28756555322957,209.57927209624285 113.66478599015284,201.39610121239315 132.5630096406142,185.0297594446937" stroke="black" stroke-linecap="round" stroke-width="1" fill="darkorange"/>
    <polygon points="132.56300964061418,185.0297594446937 156.1857892036909,193.2129303285434 137.28756555322954,209.57927209624285" stroke="black" stroke-linecap="round" stroke-width="1" fill="gold"/>
    <polygon points="160.91034511630625,217.7624429800926 137.28756555322954,209.5792720962429 156.1857892036909,193.21293032854345" stroke="black" stroke-linecap="round" stroke-width="1" fill="darkorange"/>
    <polygon points="156.1857892036909,193.21293032854345 179.8085687667676,201.39610121239315 160.91034511630625,217.7624429800926" stroke="black" stroke-linecap="round" stroke-width="1" fill="gold"/>
    <polygon points="179.8085687667676,201.39610121239315 156.1857892036909,193.21293032854345 175.08401285415223,176.846588560844" stroke="black" stroke-linecap="round" stroke-width="1" fill="darkorange"/>
    <polygon points="175.08401285415226,176.846588560844 198.70679241722897,185.0297594446937 179.8085687667676,201.39610121239315" stroke="black" stroke-linecap="round" stroke-width="1" fill="gold"/>
    <polygon points="236.50323971815166,152.29707590929485 212.88046015507496,144.11390502544515 231.77868380553633,127.7475632577457" stroke="black" stroke-linecap="round" stroke-width="1" fill="darkorange"/>
    <polygon points="231.77868380553633,127.7475632577457 255.40146336861304,135.93073414159542 236.5032397181517,152.29707590929485" stroke="black" stroke-linecap="round" stroke-width="1" fill="gold"/>
    <polygon points="260.12601928122837,160.48024679314457 236.50323971815166,152.29707590929485 255.40146336861304,135.9307341415954" stroke="black" stroke-linecap="round" stroke-width="1" fill="darkorange"/>
    <polygon points="212.88046015507496,144.11390502544515 236.50323971815166,152.29707590929485 241.22779563076702,176.846588560844 222.32957198030567,193.21293032854345 198.70679241722894,185.02975944469375 193.9822365046136,160.4802467931446" stroke="black" stroke-linecap="round" stroke-width="1" fill="greenyellow"/>
    <polygon points="236.5032397181517,152.29707590929482 260.1260192812284,160.48024679314452 241.22779563076705,176.84658856084397" stroke="black" stroke-linecap="round" stroke-width="1" fill="gold"/>
    <polygon points="264.8505751938437,185.0297594446937 241.22779563076702,176.846588560844 260.1260192812284,160.48024679314457" stroke="black" stroke-linecap="round" stroke-width="1" fill="darkorange"/>
    <polygon points="203.4313483298443,209.57927209624285 179.8085687667676,201.39610121239315 198.70679241722894,185.0297594446937" stroke="black" stroke-linecap="round" stroke-width="1" fill="darkorange"/>
    <polygon points="198.70679241722897,185.0297594446937 222.32957198030567,193.2129303285434 203.4313483298443,209.57927209624285" stroke="black" stroke-linecap="round" stroke-width="1" fill="gold"/>
    <polygon points="227.05412789292097,217.7624429800926 203.43134832984427,209.5792720962429 222.32957198030567,193.21293032854345" stroke="black" stroke-linecap="round" stroke-width="1" fill="darkorange"/>
    <polygon points="222.32957198030567,193.21293032854345 245.95235154338238,201.39610121239315 227.05412789292103,217.7624429800926" stroke="black" stroke-linecap="round" stroke-width="1" fill="gold"/>
    <polygon points="245.95235154338238,201.39610121239315 222.32957198030567,193.21293032854345 241.22779563076705,176.846588560844" stroke="black" stroke-linecap="round" stroke-width="1" fill="darkorange"/>
    <polygon points="241.22779563076705,176.846588560844 264.8505751938438,185.0297594446937 245.9523515433824,201.39610121239315" stroke="black" stroke-linecap="round" stroke-width="1" fill="gold"/>
</svg>
