<?xml version="1.0" encoding="UTF-8" standalone="no"?>
<!DOCTYPE svg PUBLIC "-//W3C//DTD SVG 1.1//EN" "http://www.w3.org/Graphics/SVG/1.1/DTD/svg11.dtd">
<svg width="104.49111825230682" height="108.19805060619656" viewBox="0 0 104.49111825230682 108.19805060619656" xmlns="http://www.w3.org/2000/svg" xmlns:xlink="http://www.w3.org/1999/xlink">
    <polygon points="28.62277956307671,45.915854419248575 5.0,37.73268353539887 23.89822365046136,21.366341767699428" stroke="black" stroke-linecap="round" stroke-width="1" fill="#FF6F3C"/>
    <polygon points="23.89822365046136,21.36634176769944 47.521003213538066,29.549512651549144 28.62277956307671,45.91585441924858" stroke="black" stroke-linecap="round" stroke-width="1" fill="#FFC107"/>
    <polygon points="47.52100321353806,29.54951265154915 23.898223650461357,21.366341767699446 42.796447300922715,5.000000000000002" stroke="black" stroke-linecap="round" stroke-width="1" fill="#FF6F3C"/>
    <polygon points="42.79644730092272,5.0 66.41922686399943,13.183170883849709 47.521003213538066,29.54951265154915" stroke="black" stroke-linecap="round" stroke-width="1" fill="#FFC107"/>
    <polygon points="71.14378277661477,37.732683535398856 47.521003213538066,29.54951265154915 66.41922686399943,13.183170883849707" stroke="black" stroke-linecap="round" stroke-width="1" fill="#FF6F3C"/>
    <polygon points="66.41922686399943,13.183170883849714 90.04200642707612,21.36634176769942 71.14378277661477,37.73268353539886" stroke="black" stroke-linecap="round" stroke-width="1" fill="#FFC107"/>
    <polygon points="94.76656233969148,45.915854419248575 71.14378277661477,37.73268353539887 90.04200642707612,21.366341767699428" stroke="black" stroke-linecap="round" stroke-width="1" fill="#FF6F3C"/>
    <polygon points="5.000000000000002,37.73268353539886 28.62277956307671,45.91585441924857 9.724555912615351,62.282196186948" stroke="black" stroke-linecap="round" stroke-width="1" fill="#FFC107"/>
    <polygon points="33.34733547569205,70.46536707079771 9.724555912615347,62.282196186948 28.62277956307671,45.91585441924857" stroke="black" stroke-linecap="round" stroke-width="1" fill="#FF6F3C"/>
    <polygon points="47.521003213538066,29.549512651549144 71.14378277661477,37.73268353539886 75.8683386892301,62.282196186947985 56.970115038768746,78.64853795464742 33.34733547569205,70.46536707079773 28.622779563076698,45.915854419248575" stroke="black" stroke-linecap="round" stroke-width="1" fill="#347433"/>
    <polygon points="71.14378277661477,37.73268353539886 94.76656233969148,45.91585441924857 75.86833868923011,62.282196186948" stroke="black" stroke-linecap="round" stroke-width="1" fill="#FFC107"/>
    <polygon points="99.49111825230682,70.46536707079771 75.86833868923011,62.282196186948 94.76656233969148,45.91585441924857" stroke="black" stroke-linecap="round" stroke-width="1" fill="#FF6F3C"/>
    <polygon points="9.724555912615314,62.282196186947985 33.34733547569201,70.4653670707977 14.449111825230663,86.83170883849714" stroke="black" stroke-linecap="round" stroke-width="1" fill="#FFC107"/>
    <polygon points="38.071891388307364,95.01487972234685 14.449111825230657,86.83170883849714 33.34733547569201,70.4653670707977" stroke="black" stroke-linecap="round" stroke-width="1" fill="#FF6F3C"/>
    <polygon points="33.34733547569203,70.4653670707977 56.970115038768725,78.64853795464741 38.07189138830737,95.01487972234685" stroke="black" stroke-linecap="round" stroke-width="1" fill="#FFC107"/>
    <polygon points="61.69467095138406,103.19805060619656 38.071891388307364,95.01487972234685 56.97011503876872,78.64853795464742" stroke="black" stroke-linecap="round" stroke-width="1" fill="#FF6F3C"/>
    <polygon points="56.970115038768725,78.64853795464742 80.59289460184543,86.83170883849714 61.694670951384076,103.19805060619656" stroke="black" stroke-linecap="round" stroke-width="1" fill="#FFC107"/>
    <polygon points="80.59289460184543,86.83170883849714 56.970115038768725,78.64853795464742 75.86833868923009,62.282196186947985" stroke="black" stroke-linecap="round" stroke-width="1" fill="#FF6F3C"/>
    <polygon points="75.86833868923009,62.282196186947985 99.49111825230678,70.4653670707977 80.59289460184543,86.83170883849714" stroke="black" stroke-linecap="round" stroke-width="1" fill="#FFC107"/>
</svg>
