<?xml version="1.0" encoding="UTF-8" standalone="no"?>
<!DOCTYPE svg PUBLIC "-//W3C//DTD SVG 1.1//EN" "http://www.w3.org/Graphics/SVG/1.1/DTD/svg11.dtd">
<svg width="269.8505751938438" height="222.76244298009254" viewBox="0 0 269.8505751938438 222.76244298009254" xmlns="http://www.w3.org/2000/svg" xmlns:xlink="http://www.w3.org/1999/xlink">
    <polygon points="28.62277956307671,45.915854419248575 5.0,37.73268353539887 23.89822365046136,21.366341767699428" stroke="black" stroke-linecap="round" stroke-width="1" fill="darkorange"/>
    <polygon points="23.89822365046136,21.36634176769944 47.521003213538066,29.549512651549144 28.62277956307671,45.91585441924858" stroke="black" stroke-linecap="round" stroke-width="1" fill="gold"/>
    <polygon points="47.52100321353806,29.54951265154915 23.898223650461357,21.366341767699446 42.796447300922715,5.000000000000002" stroke="black" stroke-linecap="round" stroke-width="1" fill="darkorange"/>
    <polygon points="42.79644730092272,5.0 66.41922686399943,13.183170883849709 47.521003213538066,29.54951265154915" stroke="black" stroke-linecap="round" stroke-width="1" fill="gold"/>
    <polygon points="71.14378277661477,37.732683535398856 47.521003213538066,29.54951265154915 66.41922686399943,13.183170883849707" stroke="black" stroke-linecap="round" stroke-width="1" fill="darkorange"/>
    <polygon points="66.41922686399943,13.183170883849714 90.04200642707612,21.36634176769942 71.14378277661477,37.73268353539886" stroke="black" stroke-linecap="round" stroke-width="1" fill="gold"/>
    <polygon points="94.76656233969148,45.915854419248575 71.14378277661477,37.73268353539887 90.04200642707612,21.366341767699428" stroke="black" stroke-linecap="round" stroke-width="1" fill="darkorange"/>
    <polygon points="5.000000000000002,37.73268353539886 28.62277956307671,45.91585441924857 9.724555912615351,62.282196186948" stroke="black" stroke-linecap="round" stroke-width="1" fill="gold"/>
    <polygon points="33.34733547569205,70.46536707079771 9.724555912615347,62.282196186948 28.62277956307671,45.91585441924857" stroke="black" stroke-linecap="round" stroke-width="1" fill="darkorange"/>
    <polygon points="47.521003213538066,29.549512651549144 71.14378277661477,37.73268353539886 75.8683386892301,62.282196186947985 56.970115038768746,78.64853795464742 33.34733547569205,70.46536707079773 28.622779563076698,45.915854419248575" stroke="black" stroke-linecap="round" stroke-width="1" fill="greenyellow"/>
    <polygon points="71.14378277661477,37.73268353539886 94.76656233969148,45.91585441924857 75.86833868923011,62.282196186948" stroke="black" stroke-linecap="round" stroke-width="1" fill="gold"/>
    <polygon points="99.49111825230682,70.46536707079771 75.86833868923011,62.282196186948 94.76656233969148,45.91585441924857" stroke="black" stroke-linecap="round" stroke-width="1" fill="darkorange"/>
    <polygon points="9.724555912615314,62.282196186947985 33.34733547569201,70.4653670707977 14.449111825230663,86.83170883849714" stroke="black" stroke-linecap="round" stroke-width="1" fill="gold"/>
    <polygon points="38.071891388307364,95.01487972234685 14.449111825230657,86.83170883849714 33.34733547569201,70.4653670707977" stroke="black" stroke-linecap="round" stroke-width="1" fill="darkorange"/>
    <polygon points="33.34733547569203,70.4653670707977 56.970115038768725,78.64853795464741 38.07189138830737,95.01487972234685" stroke="black" stroke-linecap="round" stroke-width="1" fill="gold"/>
    <polygon points="61.69467095138406,103.19805060619656 38.071891388307364,95.01487972234685 56.97011503876872,78.64853795464742" stroke="black" stroke-linecap="round" stroke-width="1" fill="darkorange"/>
    <polygon points="56.970115038768725,78.64853795464742 80.59289460184543,86.83170883849714 61.694670951384076,103.19805060619656" stroke="black" stroke-linecap="round" stroke-width="1" fill="gold"/>
    <polygon points="80.59289460184543,86.83170883849714 56.970115038768725,78.64853795464742 75.86833868923009,62.282196186947985" stroke="black" stroke-linecap="round" stroke-width="1" fill="darkorange"/>
    <polygon points="75.86833868923009,62.282196186947985 99.49111825230678,70.4653670707977 80.59289460184543,86.83170883849714" stroke="black" stroke-linecap="round" stroke-width="1" fill="gold"/>
    <polygon points="90.04200642707612,21.36634176769944 113.66478599015284,29.549512651549144 94.76656233969148,45.91585441924858" stroke="black" stroke-linecap="round" stroke-width="1" fill="gold"/>
    <polygon points="113.66478599015284,29.54951265154915 90.04200642707612,21.366341767699446 108.94023007753748,5.000000000000002" stroke="black" stroke-linecap="round" stroke-width="1" fill="darkorange"/>
    <polygon points="108.94023007753748,5.0 132.5630096406142,13.183170883849709 113.66478599015284,29.54951265154915" stroke="black" stroke-linecap="round" stroke-width="1" fill="gold"/>
    <polygon points="137.28756555322957,37.732683535398856 113.66478599015284,29.54951265154915 132.5630096406142,13.183170883849707" stroke="black" stroke-linecap="round" stroke-width="1" fill="darkorange"/>
    <polygon points="132.56300964061418,13.183170883849714 156.1857892036909,21.36634176769942 137.28756555322954,37.73268353539886" stroke="black" stroke-linecap="round" stroke-width="1" fill="gold"/>
    <polygon points="160.91034511630625,45.915854419248575 137.28756555322954,37.73268353539887 156.1857892036909,21.366341767699428" stroke="black" stroke-linecap="round" stroke-width="1" fill="darkorange"/>
    <polygon points="113.66478599015284,29.549512651549144 137.28756555322954,37.73268353539886 142.01212146584487,62.282196186947985 123.11389781538351,78.64853795464742 99.49111825230682,70.46536707079773 94.76656233969148,45.915854419248575" stroke="black" stroke-linecap="round" stroke-width="1" fill="greenyellow"/>
    <polygon points="137.28756555322954,37.73268353539886 160.91034511630625,45.91585441924857 142.0121214658449,62.282196186948" stroke="black" stroke-linecap="round" stroke-width="1" fill="gold"/>
    <polygon points="165.6349010289216,70.46536707079771 142.01212146584487,62.282196186948 160.91034511630625,45.91585441924857" stroke="black" stroke-linecap="round" stroke-width="1" fill="darkorange"/>
    <polygon points="104.21567416492213,95.01487972234685 80.59289460184543,86.83170883849714 99.49111825230678,70.4653670707977" stroke="black" stroke-linecap="round" stroke-width="1" fill="darkorange"/>
    <polygon points="99.49111825230679,70.4653670707977 123.11389781538351,78.64853795464741 104.21567416492213,95.01487972234685" stroke="black" stroke-linecap="round" stroke-width="1" fill="gold"/>
    <polygon points="127.83845372799884,103.19805060619656 104.21567416492213,95.01487972234685 123.11389781538348,78.64853795464742" stroke="black" stroke-linecap="round" stroke-width="1" fill="darkorange"/>
    <polygon points="123.11389781538351,78.64853795464742 146.7366773784602,86.83170883849714 127.83845372799884,103.19805060619656" stroke="black" stroke-linecap="round" stroke-width="1" fill="gold"/>
    <polygon points="146.7366773784602,86.83170883849714 123.11389781538348,78.64853795464742 142.01212146584484,62.282196186947985" stroke="black" stroke-linecap="round" stroke-width="1" fill="darkorange"/>
    <polygon points="142.01212146584484,62.282196186947985 165.63490102892155,70.4653670707977 146.73667737846017,86.83170883849714" stroke="black" stroke-linecap="round" stroke-width="1" fill="gold"/>
    <polygon points="156.1857892036909,21.36634176769944 179.8085687667676,29.549512651549144 160.91034511630625,45.91585441924858" stroke="black" stroke-linecap="round" stroke-width="1" fill="gold"/>
    <polygon points="179.8085687667676,29.54951265154915 156.1857892036909,21.366341767699446 175.08401285415223,5.000000000000002" stroke="black" stroke-linecap="round" stroke-width="1" fill="darkorange"/>
    <polygon points="175.08401285415226,5.0 198.70679241722897,13.183170883849709 179.8085687667676,29.54951265154915" stroke="black" stroke-linecap="round" stroke-width="1" fill="gold"/>
    <polygon points="203.4313483298443,37.732683535398856 179.8085687667676,29.54951265154915 198.70679241722894,13.183170883849707" stroke="black" stroke-linecap="round" stroke-width="1" fill="darkorange"/>
    <polygon points="198.70679241722897,13.183170883849714 222.32957198030567,21.36634176769942 203.4313483298443,37.73268353539886" stroke="black" stroke-linecap="round" stroke-width="1" fill="gold"/>
    <polygon points="227.05412789292097,45.915854419248575 203.43134832984427,37.73268353539887 222.32957198030567,21.366341767699428" stroke="black" stroke-linecap="round" stroke-width="1" fill="darkorange"/>
    <polygon points="179.8085687667676,29.549512651549144 203.4313483298443,37.73268353539886 208.15590424245963,62.282196186947985 189.25768059199828,78.64853795464742 165.63490102892158,70.46536707079773 160.91034511630625,45.915854419248575" stroke="black" stroke-linecap="round" stroke-width="1" fill="greenyellow"/>
    <polygon points="203.43134832984433,37.73268353539886 227.05412789292103,45.91585441924857 208.15590424245968,62.282196186948" stroke="black" stroke-linecap="round" stroke-width="1" fill="gold"/>
    <polygon points="231.77868380553633,70.46536707079771 208.15590424245963,62.282196186948 227.05412789292103,45.91585441924857" stroke="black" stroke-linecap="round" stroke-width="1" fill="darkorange"/>
    <polygon points="170.3594569415369,95.01487972234685 146.73667737846017,86.83170883849714 165.63490102892155,70.4653670707977" stroke="black" stroke-linecap="round" stroke-width="1" fill="darkorange"/>
    <polygon points="165.63490102892155,70.4653670707977 189.25768059199828,78.64853795464741 170.3594569415369,95.01487972234685" stroke="black" stroke-linecap="round" stroke-width="1" fill="gold"/>
    <polygon points="193.9822365046136,103.19805060619656 170.35945694153688,95.01487972234685 189.25768059199825,78.64853795464742" stroke="black" stroke-linecap="round" stroke-width="1" fill="darkorange"/>
    <polygon points="189.25768059199825,78.64853795464742 212.88046015507496,86.83170883849714 193.9822365046136,103.19805060619656" stroke="black" stroke-linecap="round" stroke-width="1" fill="gold"/>
    <polygon points="212.88046015507496,86.83170883849714 189.25768059199825,78.64853795464742 208.15590424245963,62.282196186947985" stroke="black" stroke-linecap="round" stroke-width="1" fill="darkorange"/>
    <polygon points="208.15590424245963,62.282196186947985 231.77868380553633,70.4653670707977 212.88046015507499,86.83170883849714" stroke="black" stroke-linecap="round" stroke-width="1" fill="gold"/>
    <polygon points="38.071891388307364,95.01487972234685 61.69467095138406,103.19805060619655 42.79644730092271,119.564392373896" stroke="black" stroke-linecap="round" stroke-width="1" fill="gold"/>
    <polygon points="66.41922686399941,127.74756325774572 42.79644730092271,119.564392373896 61.69467095138406,103.19805060619656" stroke="black" stroke-linecap="round" stroke-width="1" fill="darkorange"/>
    <polygon points="80.59289460184543,86.83170883849714 104.21567416492212,95.01487972234685 108.94023007753748,119.56439237389597 90.04200642707612,135.93073414159542 66.41922686399941,127.74756325774572 61.69467095138406,103.19805060619656" stroke="black" stroke-linecap="round" stroke-width="1" fill="greenyellow"/>
    <polygon points="104.21567416492213,95.01487972234685 127.83845372799884,103.19805060619655 108.94023007753748,119.564392373896" stroke="black" stroke-linecap="round" stroke-width="1" fill="gold"/>
    <polygon points="132.5630096406142,127.74756325774572 108.94023007753748,119.564392373896 127.83845372799884,103.19805060619656" stroke="black" stroke-linecap="round" stroke-width="1" fill="darkorange"/>
    <polygon points="42.79644730092272,119.56439237389597 66.41922686399943,127.7475632577457 47.521003213538066,144.11390502544515" stroke="black" stroke-linecap="round" stroke-width="1" fill="gold"/>
    <polygon points="71.14378277661477,152.29707590929485 47.521003213538066,144.11390502544515 66.41922686399943,127.7475632577457" stroke="black" stroke-linecap="round" stroke-width="1" fill="darkorange"/>
    <polygon points="66.41922686399943,127.7475632577457 90.04200642707612,135.93073414159542 71.14378277661477,152.29707590929485" stroke="black" stroke-linecap="round" stroke-width="1" fill="gold"/>
    <polygon points="94.76656233969148,160.48024679314457 71.14378277661477,152.29707590929485 90.04200642707612,135.93073414159542" stroke="black" stroke-linecap="round" stroke-width="1" fill="darkorange"/>
    <polygon points="90.04200642707612,135.93073414159542 113.66478599015284,144.11390502544515 94.76656233969148,160.48024679314457" stroke="black" stroke-linecap="round" stroke-width="1" fill="gold"/>
    <polygon points="113.66478599015284,144.11390502544515 90.04200642707612,135.93073414159545 108.94023007753748,119.564392373896" stroke="black" stroke-linecap="round" stroke-width="1" fill="darkorange"/>
    <polygon points="108.94023007753748,119.56439237389597 132.5630096406142,127.7475632577457 113.66478599015284,144.11390502544515" stroke="black" stroke-linecap="round" stroke-width="1" fill="gold"/>
    <polygon points="146.73667737846017,86.83170883849714 170.35945694153688,95.01487972234685 175.08401285415223,119.56439237389597 156.18578920369086,135.93073414159542 132.56300964061415,127.74756325774572 127.83845372799883,103.19805060619656" stroke="black" stroke-linecap="round" stroke-width="1" fill="greenyellow"/>
    <polygon points="170.3594569415369,95.01487972234685 193.9822365046136,103.19805060619655 175.08401285415223,119.564392373896" stroke="black" stroke-linecap="round" stroke-width="1" fill="gold"/>
    <polygon points="198.70679241722894,127.74756325774572 175.08401285415223,119.564392373896 193.98223650461358,103.19805060619656" stroke="black" stroke-linecap="round" stroke-width="1" fill="darkorange"/>
    <polygon points="137.28756555322957,152.29707590929485 113.66478599015284,144.11390502544515 132.5630096406142,127.7475632577457" stroke="black" stroke-linecap="round" stroke-width="1" fill="darkorange"/>
    <polygon points="132.56300964061418,127.7475632577457 156.1857892036909,135.93073414159542 137.28756555322954,152.29707590929485" stroke="black" stroke-linecap="round" stroke-width="1" fill="gold"/>
    <polygon points="160.91034511630625,160.48024679314457 137.28756555322954,152.29707590929485 156.1857892036909,135.93073414159542" stroke="black" stroke-linecap="round" stroke-width="1" fill="darkorange"/>
    <polygon points="156.1857892036909,135.93073414159542 179.8085687667676,144.11390502544515 160.91034511630625,160.48024679314457" stroke="black" stroke-linecap="round" stroke-width="1" fill="gold"/>
    <polygon points="179.8085687667676,144.11390502544515 156.1857892036909,135.93073414159545 175.08401285415223,119.564392373896" stroke="black" stroke-linecap="round" stroke-width="1" fill="darkorange"/>
    <polygon points="175.08401285415226,119.56439237389597 198.70679241722897,127.7475632577457 179.8085687667676,144.11390502544515" stroke="black" stroke-linecap="round" stroke-width="1" fill="gold"/>
    <polygon points="236.50323971815166,95.01487972234685 212.88046015507496,86.83170883849714 231.77868380553633,70.4653670707977" stroke="black" stroke-linecap="round" stroke-width="1" fill="darkorange"/>
    <polygon points="231.77868380553633,70.4653670707977 255.40146336861304,78.64853795464741 236.5032397181517,95.01487972234685" stroke="black" stroke-linecap="round" stroke-width="1" fill="gold"/>
    <polygon points="260.12601928122837,103.19805060619656 236.50323971815166,95.01487972234685 255.40146336861304,78.64853795464742" stroke="black" stroke-linecap="round" stroke-width="1" fill="darkorange"/>
    <polygon points="212.88046015507496,86.83170883849714 236.50323971815166,95.01487972234685 241.22779563076702,119.56439237389597 222.32957198030567,135.93073414159542 198.70679241722894,127.74756325774572 193.9822365046136,103.19805060619656" stroke="black" stroke-linecap="round" stroke-width="1" fill="greenyellow"/>
    <polygon points="236.5032397181517,95.01487972234685 260.1260192812284,103.19805060619655 241.22779563076705,119.564392373896" stroke="black" stroke-linecap="round" stroke-width="1" fill="gold"/>
    <polygon points="264.8505751938437,127.74756325774572 241.22779563076702,119.564392373896 260.1260192812284,103.19805060619656" stroke="black" stroke-linecap="round" stroke-width="1" fill="darkorange"/>
    <polygon points="203.4313483298443,152.29707590929485 179.8085687667676,144.11390502544515 198.70679241722894,127.7475632577457" stroke="black" stroke-linecap="round" stroke-width="1" fill="darkorange"/>
    <polygon points="198.70679241722897,127.7475632577457 222.32957198030567,135.93073414159542 203.4313483298443,152.29707590929485" stroke="black" stroke-linecap="round" stroke-width="1" fill="gold"/>
    <polygon points="227.05412789292097,160.48024679314457 203.43134832984427,152.29707590929485 222.32957198030567,135.93073414159542" stroke="black" stroke-linecap="round" stroke-width="1" fill="darkorange"/>
    <polygon points="222.32957198030567,135.93073414159542 245.95235154338238,144.11390502544515 227.05412789292103,160.48024679314457" stroke="black" stroke-linecap="round" stroke-width="1" fill="gold"/>
    <polygon points="245.95235154338238,144.11390502544515 222.32957198030567,135.93073414159545 241.22779563076705,119.564392373896" stroke="black" stroke-linecap="round" stroke-width="1" fill="darkorange"/>
    <polygon points="241.22779563076705,119.56439237389597 264.8505751938438,127.7475632577457 245.9523515433824,144.11390502544515" stroke="black" stroke-linecap="round" stroke-width="1" fill="gold"/>
    <polygon points="28.62277956307671,160.48024679314457 5.0,152.29707590929485 23.89822365046136,135.93073414159542" stroke="black" stroke-linecap="round" stroke-width="1" fill="darkorange"/>
    <polygon points="23.89822365046136,135.93073414159542 47.521003213538066,144.11390502544515 28.62277956307671,160.48024679314457" stroke="black" stroke-linecap="round" stroke-width="1" fill="gold"/>
    <polygon points="47.52100321353806,144.11390502544515 23.898223650461357,135.93073414159545 42.796447300922715,119.564392373896" stroke="black" stroke-linecap="round" stroke-width="1" fill="darkorange"/>
    <polygon points="5.000000000000002,152.29707590929485 28.62277956307671,160.48024679314457 9.724555912615351,176.846588560844" stroke="black" stroke-linecap="round" stroke-width="1" fill="gold"/>
    <polygon points="33.34733547569205,185.0297594446937 9.724555912615347,176.84658856084397 28.62277956307671,160.48024679314454" stroke="black" stroke-linecap="round" stroke-width="1" fill="darkorange"/>
    <polygon points="47.521003213538066,144.11390502544515 71.14378277661477,152.29707590929485 75.8683386892301,176.846588560844 56.970115038768746,193.21293032854342 33.34733547569205,185.02975944469372 28.622779563076698,160.48024679314457" stroke="black" stroke-linecap="round" stroke-width="1" fill="greenyellow"/>
    <polygon points="71.14378277661477,152.29707590929485 94.76656233969148,160.48024679314457 75.86833868923011,176.846588560844" stroke="black" stroke-linecap="round" stroke-width="1" fill="gold"/>
    <polygon points="99.49111825230682,185.0297594446937 75.86833868923011,176.84658856084397 94.76656233969148,160.48024679314454" stroke="black" stroke-linecap="round" stroke-width="1" fill="darkorange"/>
    <polygon points="9.724555912615314,176.84658856084397 33.34733547569201,185.0297594446937 14.449111825230663,201.39610121239312" stroke="black" stroke-linecap="round" stroke-width="1" fill="gold"/>
    <polygon points="38.071891388307364,209.57927209624285 14.449111825230657,201.39610121239312 33.34733547569201,185.0297594446937" stroke="black" stroke-linecap="round" stroke-width="1" fill="darkorange"/>
    <polygon points="33.34733547569203,185.0297594446937 56.970115038768725,193.2129303285434 38.07189138830737,209.57927209624285" stroke="black" stroke-linecap="round" stroke-width="1" fill="gold"/>
    <polygon points="61.69467095138406,217.76244298009254 38.071891388307364,209.57927209624285 56.97011503876872,193.2129303285434" stroke="black" stroke-linecap="round" stroke-width="1" fill="darkorange"/>
    <polygon points="56.970115038768725,193.2129303285434 80.59289460184543,201.39610121239312 61.694670951384076,217.76244298009254" stroke="black" stroke-linecap="round" stroke-width="1" fill="gold"/>
    <polygon points="80.59289460184543,201.39610121239315 56.970115038768725,193.21293032854342 75.86833868923009,176.84658856084397" stroke="black" stroke-linecap="round" stroke-width="1" fill="darkorange"/>
    <polygon points="75.86833868923009,176.84658856084397 99.49111825230678,185.0297594446937 80.59289460184543,201.39610121239312" stroke="black" stroke-linecap="round" stroke-width="1" fill="gold"/>
    <polygon points="113.66478599015284,144.11390502544515 137.28756555322954,152.29707590929485 142.01212146584487,176.846588560844 123.11389781538351,193.21293032854342 99.49111825230682,185.02975944469372 94.76656233969148,160.48024679314457" stroke="black" stroke-linecap="round" stroke-width="1" fill="greenyellow"/>
    <polygon points="137.28756555322954,152.29707590929485 160.91034511630625,160.48024679314457 142.0121214658449,176.846588560844" stroke="black" stroke-linecap="round" stroke-width="1" fill="gold"/>
    <polygon points="165.6349010289216,185.0297594446937 142.01212146584487,176.84658856084397 160.91034511630625,160.48024679314454" stroke="black" stroke-linecap="round" stroke-width="1" fill="darkorange"/>
    <polygon points="104.21567416492213,209.57927209624285 80.59289460184543,201.39610121239312 99.49111825230678,185.0297594446937" stroke="black" stroke-linecap="round" stroke-width="1" fill="darkorange"/>
    <polygon points="99.49111825230679,185.0297594446937 123.11389781538351,193.2129303285434 104.21567416492213,209.57927209624285" stroke="black" stroke-linecap="round" stroke-width="1" fill="gold"/>
    <polygon points="127.83845372799884,217.76244298009254 104.21567416492213,209.57927209624285 123.11389781538348,193.2129303285434" stroke="black" stroke-linecap="round" stroke-width="1" fill="darkorange"/>
    <polygon points="123.11389781538351,193.2129303285434 146.7366773784602,201.39610121239312 127.83845372799884,217.76244298009254" stroke="black" stroke-linecap="round" stroke-width="1" fill="gold"/>
    <polygon points="146.7366773784602,201.39610121239315 123.11389781538348,193.21293032854342 142.01212146584484,176.84658856084397" stroke="black" stroke-linecap="round" stroke-width="1" fill="darkorange"/>
    <polygon points="142.01212146584484,176.84658856084397 165.63490102892155,185.0297594446937 146.73667737846017,201.39610121239312" stroke="black" stroke-linecap="round" stroke-width="1" fill="gold"/>
    <polygon points="179.8085687667676,144.11390502544515 203.4313483298443,152.29707590929485 208.15590424245963,176.846588560844 189.25768059199828,193.21293032854342 165.63490102892158,185.02975944469372 160.91034511630625,160.48024679314457" stroke="black" stroke-linecap="round" stroke-width="1" fill="greenyellow"/>
    <polygon points="203.43134832984433,152.29707590929485 227.05412789292103,160.48024679314457 208.15590424245968,176.846588560844" stroke="black" stroke-linecap="round" stroke-width="1" fill="gold"/>
    <polygon points="231.77868380553633,185.0297594446937 208.15590424245963,176.84658856084397 227.05412789292103,160.48024679314454" stroke="black" stroke-linecap="round" stroke-width="1" fill="darkorange"/>
    <polygon points="170.3594569415369,209.57927209624285 146.73667737846017,201.39610121239312 165.63490102892155,185.0297594446937" stroke="black" stroke-linecap="round" stroke-width="1" fill="darkorange"/>
    <polygon points="165.63490102892155,185.0297594446937 189.25768059199828,193.2129303285434 170.3594569415369,209.57927209624285" stroke="black" stroke-linecap="round" stroke-width="1" fill="gold"/>
    <polygon points="193.9822365046136,217.76244298009254 170.35945694153688,209.57927209624285 189.25768059199825,193.2129303285434" stroke="black" stroke-linecap="round" stroke-width="1" fill="darkorange"/>
    <polygon points="189.25768059199825,193.2129303285434 212.88046015507496,201.39610121239312 193.9822365046136,217.76244298009254" stroke="black" stroke-linecap="round" stroke-width="1" fill="gold"/>
    <polygon points="212.88046015507496,201.39610121239315 189.25768059199825,193.21293032854342 208.15590424245963,176.84658856084397" stroke="black" stroke-linecap="round" stroke-width="1" fill="darkorange"/>
    <polygon points="208.15590424245963,176.84658856084397 231.77868380553633,185.0297594446937 212.88046015507499,201.39610121239312" stroke="black" stroke-linecap="round" stroke-width="1" fill="gold"/>
</svg>
