<?xml version="1.0" encoding="UTF-8" standalone="no"?>
<!DOCTYPE svg PUBLIC "-//W3C//DTD SVG 1.1//EN" "http://www.w3.org/Graphics/SVG/1.1/DTD/svg11.dtd">
<svg width="150.0" height="131.2435565298214" viewBox="0 0 150.0 131.2435565298214" xmlns="http://www.w3.org/2000/svg" xmlns:xlink="http://www.w3.org/1999/xlink">
    <polygon points="22.5,35.310889132455344 40.0,65.6217782649107 5.0,65.6217782649107" stroke="black" stroke-linecap="round" stroke-width="1" fill="gold"/>
    <polygon points="5.0,65.62177826491072 40.0,65.62177826491072 22.5,95.93266739736606" stroke="black" stroke-linecap="round" stroke-width="1" fill="darkorange"/>
    <polygon points="40.0,5.0 57.5,35.31088913245536 22.5,35.31088913245536" stroke="black" stroke-linecap="round" stroke-width="1" fill="gold"/>
    <polygon points="22.5,35.31088913245536 57.5,35.31088913245536 40.0,65.6217782649107" stroke="black" stroke-linecap="round" stroke-width="1" fill="darkorange"/>
    <polygon points="40.0,65.6217782649107 57.5,95.93266739736606 22.5,95.93266739736606" stroke="black" stroke-linecap="round" stroke-width="1" fill="gold"/>
    <polygon points="22.5,95.93266739736605 57.5,95.93266739736605 40.0,126.2435565298214" stroke="black" stroke-linecap="round" stroke-width="1" fill="darkorange"/>
    <polygon points="57.5,35.310889132455344 75.0,65.6217782649107 40.0,65.6217782649107" stroke="black" stroke-linecap="round" stroke-width="1" fill="gold"/>
    <polygon points="40.0,65.62177826491072 75.0,65.62177826491072 57.5,95.93266739736606" stroke="black" stroke-linecap="round" stroke-width="1" fill="darkorange"/>
    <polygon points="75.0,5.0 92.5,35.31088913245536 57.5,35.31088913245536" stroke="black" stroke-linecap="round" stroke-width="1" fill="gold"/>
    <polygon points="57.5,35.31088913245536 92.5,35.31088913245536 75.0,65.6217782649107" stroke="black" stroke-linecap="round" stroke-width="1" fill="darkorange"/>
    <polygon points="75.0,65.6217782649107 92.5,95.93266739736606 57.5,95.93266739736606" stroke="black" stroke-linecap="round" stroke-width="1" fill="gold"/>
    <polygon points="57.5,95.93266739736605 92.5,95.93266739736605 75.0,126.2435565298214" stroke="black" stroke-linecap="round" stroke-width="1" fill="darkorange"/>
    <polygon points="92.5,35.310889132455344 110.0,65.6217782649107 75.0,65.6217782649107" stroke="black" stroke-linecap="round" stroke-width="1" fill="gold"/>
    <polygon points="75.0,65.62177826491072 110.0,65.62177826491072 92.5,95.93266739736606" stroke="black" stroke-linecap="round" stroke-width="1" fill="darkorange"/>
    <polygon points="110.0,5.0 127.5,35.31088913245536 92.5,35.31088913245536" stroke="black" stroke-linecap="round" stroke-width="1" fill="gold"/>
    <polygon points="92.5,35.31088913245536 127.5,35.31088913245536 110.0,65.6217782649107" stroke="black" stroke-linecap="round" stroke-width="1" fill="darkorange"/>
    <polygon points="110.0,65.6217782649107 127.5,95.93266739736606 92.5,95.93266739736606" stroke="black" stroke-linecap="round" stroke-width="1" fill="gold"/>
    <polygon points="92.5,95.93266739736605 127.5,95.93266739736605 110.0,126.2435565298214" stroke="black" stroke-linecap="round" stroke-width="1" fill="darkorange"/>
    <polygon points="127.5,35.310889132455344 145.0,65.6217782649107 110.0,65.6217782649107" stroke="black" stroke-linecap="round" stroke-width="1" fill="gold"/>
    <polygon points="110.0,65.62177826491072 145.0,65.62177826491072 127.5,95.93266739736606" stroke="black" stroke-linecap="round" stroke-width="1" fill="darkorange"/>
</svg>
