<?xml version="1.0" encoding="UTF-8" standalone="no"?>
<!DOCTYPE svg PUBLIC "-//W3C//DTD SVG 1.1//EN" "http://www.w3.org/Graphics/SVG/1.1/DTD/svg11.dtd">
<svg width="210.0" height="226.50635094610968" viewBox="-5.0 38.30127018922194 205.0 264.8076211353316" xmlns="http://www.w3.org/2000/svg" xmlns:xlink="http://www.w3.org/1999/xlink">
    <polyline points="12.5,43.30127018922194 37.5,43.30127018922194 25.0,64.9519052838329 12.5,43.30127018922194" stroke-linecap="round" stroke="red" stroke-width="2" fill="none" />
    <polyline points="25.0,64.95190528383289 37.5,86.60254037844386 12.5,86.60254037844386 25.0,64.95190528383289" stroke-linecap="round" stroke="red" stroke-width="2" fill="none" />
    <polyline points="37.5,43.30127018922194 62.5,43.30127018922194 75.0,64.9519052838329 62.5,86.60254037844386 37.5,86.60254037844386 25.0,64.9519052838329 37.5,43.30127018922194" stroke-linecap="round" stroke="red" stroke-width="2" fill="none" />
    <polyline points="62.5,43.30127018922194 87.5,43.30127018922194 75.0,64.9519052838329 62.5,43.30127018922194" stroke-linecap="round" stroke="red" stroke-width="2" fill="none" />
    <polyline points="75.0,64.95190528383289 87.5,86.60254037844386 62.5,86.60254037844386 75.0,64.95190528383289" stroke-linecap="round" stroke="red" stroke-width="2" fill="none" />
    <polyline points="87.5,43.30127018922194 112.5,43.30127018922194 125.0,64.9519052838329 112.5,86.60254037844386 87.5,86.60254037844386 75.0,64.9519052838329 87.5,43.30127018922194" stroke-linecap="round" stroke="red" stroke-width="2" fill="none" />
    <polyline points="112.5,43.30127018922194 137.5,43.30127018922194 125.0,64.9519052838329 112.5,43.30127018922194" stroke-linecap="round" stroke="red" stroke-width="2" fill="none" />
    <polyline points="125.0,64.95190528383289 137.5,86.60254037844386 112.5,86.60254037844386 125.0,64.95190528383289" stroke-linecap="round" stroke="red" stroke-width="2" fill="none" />
    <polyline points="137.5,43.30127018922194 162.5,43.30127018922194 175.0,64.9519052838329 162.5,86.60254037844386 137.5,86.60254037844386 125.0,64.9519052838329 137.5,43.30127018922194" stroke-linecap="round" stroke="red" stroke-width="2" fill="none" />
    <polyline points="162.5,43.30127018922194 187.5,43.30127018922194 175.0,64.9519052838329 162.5,43.30127018922194" stroke-linecap="round" stroke="red" stroke-width="2" fill="none" />
    <polyline points="175.0,64.95190528383289 187.5,86.60254037844386 162.5,86.60254037844386 175.0,64.95190528383289" stroke-linecap="round" stroke="red" stroke-width="2" fill="none" />
    <polyline points="12.5,86.60254037844386 37.5,86.60254037844386 50.0,108.25317547305482 37.5,129.90381056766577 12.5,129.90381056766577 0.0,108.25317547305482 12.5,86.60254037844386" stroke-linecap="round" stroke="red" stroke-width="2" fill="none" />
    <polyline points="37.5,86.60254037844385 62.5,86.60254037844385 50.0,108.25317547305482 37.5,86.60254037844385" stroke-linecap="round" stroke="red" stroke-width="2" fill="none" />
    <polyline points="50.0,108.25317547305482 62.5,129.9038105676658 37.5,129.9038105676658 50.0,108.25317547305482" stroke-linecap="round" stroke="red" stroke-width="2" fill="none" />
    <polyline points="62.5,86.60254037844386 87.5,86.60254037844386 100.0,108.25317547305482 87.5,129.90381056766577 62.5,129.90381056766577 50.0,108.25317547305482 62.5,86.60254037844386" stroke-linecap="round" stroke="red" stroke-width="2" fill="none" />
    <polyline points="87.5,86.60254037844385 112.5,86.60254037844385 100.0,108.25317547305482 87.5,86.60254037844385" stroke-linecap="round" stroke="red" stroke-width="2" fill="none" />
    <polyline points="100.0,108.25317547305482 112.5,129.9038105676658 87.5,129.9038105676658 100.0,108.25317547305482" stroke-linecap="round" stroke="red" stroke-width="2" fill="none" />
    <polyline points="112.5,86.60254037844386 137.5,86.60254037844386 150.0,108.25317547305482 137.5,129.90381056766577 112.5,129.90381056766577 100.0,108.25317547305482 112.5,86.60254037844386" stroke-linecap="round" stroke="red" stroke-width="2" fill="none" />
    <polyline points="137.5,86.60254037844385 162.5,86.60254037844385 150.0,108.25317547305482 137.5,86.60254037844385" stroke-linecap="round" stroke="red" stroke-width="2" fill="none" />
    <polyline points="150.0,108.25317547305482 162.5,129.9038105676658 137.5,129.9038105676658 150.0,108.25317547305482" stroke-linecap="round" stroke="red" stroke-width="2" fill="none" />
    <polyline points="162.5,86.60254037844386 187.5,86.60254037844386 200.0,108.25317547305482 187.5,129.90381056766577 162.5,129.90381056766577 150.0,108.25317547305482 162.5,86.60254037844386" stroke-linecap="round" stroke="red" stroke-width="2" fill="none" />
    <polyline points="12.5,129.90381056766577 37.5,129.90381056766577 25.0,151.55444566227675 12.5,129.90381056766577" stroke-linecap="round" stroke="red" stroke-width="2" fill="none" />
    <polyline points="25.0,151.55444566227675 37.5,173.20508075688775 12.5,173.20508075688775 25.0,151.55444566227675" stroke-linecap="round" stroke="red" stroke-width="2" fill="none" />
    <polyline points="37.5,129.9038105676658 62.5,129.9038105676658 75.0,151.55444566227675 62.5,173.20508075688772 37.5,173.20508075688772 25.0,151.55444566227675 37.5,129.9038105676658" stroke-linecap="round" stroke="red" stroke-width="2" fill="none" />
    <polyline points="62.5,129.90381056766577 87.5,129.90381056766577 75.0,151.55444566227675 62.5,129.90381056766577" stroke-linecap="round" stroke="red" stroke-width="2" fill="none" />
    <polyline points="75.0,151.55444566227675 87.5,173.20508075688775 62.5,173.20508075688775 75.0,151.55444566227675" stroke-linecap="round" stroke="red" stroke-width="2" fill="none" />
    <polyline points="87.5,129.9038105676658 112.5,129.9038105676658 125.0,151.55444566227675 112.5,173.20508075688772 87.5,173.20508075688772 75.0,151.55444566227675 87.5,129.9038105676658" stroke-linecap="round" stroke="red" stroke-width="2" fill="none" />
    <polyline points="112.5,129.90381056766577 137.5,129.90381056766577 125.0,151.55444566227675 112.5,129.90381056766577" stroke-linecap="round" stroke="red" stroke-width="2" fill="none" />
    <polyline points="125.0,151.55444566227675 137.5,173.20508075688775 112.5,173.20508075688775 125.0,151.55444566227675" stroke-linecap="round" stroke="red" stroke-width="2" fill="none" />
    <polyline points="137.5,129.9038105676658 162.5,129.9038105676658 175.0,151.55444566227675 162.5,173.20508075688772 137.5,173.20508075688772 125.0,151.55444566227675 137.5,129.9038105676658" stroke-linecap="round" stroke="red" stroke-width="2" fill="none" />
    <polyline points="162.5,129.90381056766577 187.5,129.90381056766577 175.0,151.55444566227675 162.5,129.90381056766577" stroke-linecap="round" stroke="red" stroke-width="2" fill="none" />
    <polyline points="175.0,151.55444566227675 187.5,173.20508075688775 162.5,173.20508075688775 175.0,151.55444566227675" stroke-linecap="round" stroke="red" stroke-width="2" fill="none" />
    <polyline points="12.5,173.20508075688772 37.5,173.20508075688772 50.0,194.85571585149867 37.5,216.50635094610965 12.5,216.50635094610965 0.0,194.85571585149867 12.5,173.20508075688772" stroke-linecap="round" stroke="red" stroke-width="2" fill="none" />
    <polyline points="37.5,173.20508075688772 62.5,173.20508075688772 50.0,194.8557158514987 37.5,173.20508075688772" stroke-linecap="round" stroke="red" stroke-width="2" fill="none" />
    <polyline points="50.0,194.85571585149864 62.5,216.50635094610965 37.5,216.50635094610965 50.0,194.85571585149864" stroke-linecap="round" stroke="red" stroke-width="2" fill="none" />
    <polyline points="62.5,173.20508075688772 87.5,173.20508075688772 100.0,194.85571585149867 87.5,216.50635094610965 62.5,216.50635094610965 50.0,194.85571585149867 62.5,173.20508075688772" stroke-linecap="round" stroke="red" stroke-width="2" fill="none" />
    <polyline points="87.5,173.20508075688772 112.5,173.20508075688772 100.0,194.8557158514987 87.5,173.20508075688772" stroke-linecap="round" stroke="red" stroke-width="2" fill="none" />
    <polyline points="100.0,194.85571585149864 112.5,216.50635094610965 87.5,216.50635094610965 100.0,194.85571585149864" stroke-linecap="round" stroke="red" stroke-width="2" fill="none" />
    <polyline points="112.5,173.20508075688772 137.5,173.20508075688772 150.0,194.85571585149867 137.5,216.50635094610965 112.5,216.50635094610965 100.0,194.85571585149867 112.5,173.20508075688772" stroke-linecap="round" stroke="red" stroke-width="2" fill="none" />
    <polyline points="137.5,173.20508075688772 162.5,173.20508075688772 150.0,194.8557158514987 137.5,173.20508075688772" stroke-linecap="round" stroke="red" stroke-width="2" fill="none" />
    <polyline points="150.0,194.85571585149864 162.5,216.50635094610965 137.5,216.50635094610965 150.0,194.85571585149864" stroke-linecap="round" stroke="red" stroke-width="2" fill="none" />
    <polyline points="162.5,173.20508075688772 187.5,173.20508075688772 200.0,194.85571585149867 187.5,216.50635094610965 162.5,216.50635094610965 150.0,194.85571585149867 162.5,173.20508075688772" stroke-linecap="round" stroke="red" stroke-width="2" fill="none" />
    <polyline points="12.5,216.50635094610965 37.5,216.50635094610965 25.0,238.15698604072062 12.5,216.50635094610965" stroke-linecap="round" stroke="red" stroke-width="2" fill="none" />
    <polyline points="25.0,238.15698604072057 37.5,259.80762113533154 12.5,259.80762113533154 25.0,238.15698604072057" stroke-linecap="round" stroke="red" stroke-width="2" fill="none" />
    <polyline points="37.5,216.50635094610965 62.5,216.50635094610965 75.0,238.15698604072062 62.5,259.8076211353316 37.5,259.8076211353316 25.0,238.15698604072062 37.5,216.50635094610965" stroke-linecap="round" stroke="red" stroke-width="2" fill="none" />
    <polyline points="62.5,216.50635094610965 87.5,216.50635094610965 75.0,238.15698604072062 62.5,216.50635094610965" stroke-linecap="round" stroke="red" stroke-width="2" fill="none" />
    <polyline points="75.0,238.15698604072057 87.5,259.80762113533154 62.5,259.80762113533154 75.0,238.15698604072057" stroke-linecap="round" stroke="red" stroke-width="2" fill="none" />
    <polyline points="87.5,216.50635094610965 112.5,216.50635094610965 125.0,238.15698604072062 112.5,259.8076211353316 87.5,259.8076211353316 75.0,238.15698604072062 87.5,216.50635094610965" stroke-linecap="round" stroke="red" stroke-width="2" fill="none" />
    <polyline points="112.5,216.50635094610965 137.5,216.50635094610965 125.0,238.15698604072062 112.5,216.50635094610965" stroke-linecap="round" stroke="red" stroke-width="2" fill="none" />
    <polyline points="125.0,238.15698604072057 137.5,259.80762113533154 112.5,259.80762113533154 125.0,238.15698604072057" stroke-linecap="round" stroke="red" stroke-width="2" fill="none" />
    <polyline points="137.5,216.50635094610965 162.5,216.50635094610965 175.0,238.15698604072062 162.5,259.8076211353316 137.5,259.8076211353316 125.0,238.15698604072062 137.5,216.50635094610965" stroke-linecap="round" stroke="red" stroke-width="2" fill="none" />
    <polyline points="162.5,216.50635094610965 187.5,216.50635094610965 175.0,238.15698604072062 162.5,216.50635094610965" stroke-linecap="round" stroke="red" stroke-width="2" fill="none" />
    <polyline points="175.0,238.15698604072057 187.5,259.80762113533154 162.5,259.80762113533154 175.0,238.15698604072057" stroke-linecap="round" stroke="red" stroke-width="2" fill="none" />
</svg>
