<?xml version="1.0" encoding="UTF-8" standalone="no"?>
<!DOCTYPE svg PUBLIC "-//W3C//DTD SVG 1.1//EN" "http://www.w3.org/Graphics/SVG/1.1/DTD/svg11.dtd">
<svg width="210.0" height="226.50635094610965" viewBox="-5.0 -5.000000000000002 205.0 221.50635094610965" xmlns="http://www.w3.org/2000/svg" xmlns:xlink="http://www.w3.org/1999/xlink">
    <polyline points="12.5,0.0 37.5,0.0 50.0,21.650635094610966 37.5,43.30127018922193 12.5,43.30127018922193 0.0,21.650635094610966 12.5,0.0" stroke-linecap="round" stroke="red" stroke-width="2" fill="none" />
    <polyline points="37.5,-1.3877787807814457E-15 62.5,-1.3877787807814457E-15 50.0,21.65063509461097 37.5,-1.3877787807814457E-15" stroke-linecap="round" stroke="red" stroke-width="2" fill="none" />
    <polyline points="50.0,21.650635094610955 62.5,43.301270189221924 37.5,43.301270189221924 50.0,21.650635094610955" stroke-linecap="round" stroke="red" stroke-width="2" fill="none" />
    <polyline points="62.5,0.0 87.5,0.0 100.0,21.650635094610966 87.5,43.30127018922193 62.5,43.30127018922193 50.0,21.650635094610966 62.5,0.0" stroke-linecap="round" stroke="red" stroke-width="2" fill="none" />
    <polyline points="87.5,-1.3877787807814457E-15 112.5,-1.3877787807814457E-15 100.0,21.65063509461097 87.5,-1.3877787807814457E-15" stroke-linecap="round" stroke="red" stroke-width="2" fill="none" />
    <polyline points="100.0,21.650635094610955 112.5,43.301270189221924 87.5,43.301270189221924 100.0,21.650635094610955" stroke-linecap="round" stroke="red" stroke-width="2" fill="none" />
    <polyline points="112.5,0.0 137.5,0.0 150.0,21.650635094610966 137.5,43.30127018922193 112.5,43.30127018922193 100.0,21.650635094610966 112.5,0.0" stroke-linecap="round" stroke="red" stroke-width="2" fill="none" />
    <polyline points="137.5,-1.3877787807814457E-15 162.5,-1.3877787807814457E-15 150.0,21.65063509461097 137.5,-1.3877787807814457E-15" stroke-linecap="round" stroke="red" stroke-width="2" fill="none" />
    <polyline points="150.0,21.650635094610955 162.5,43.301270189221924 137.5,43.301270189221924 150.0,21.650635094610955" stroke-linecap="round" stroke="red" stroke-width="2" fill="none" />
    <polyline points="162.5,0.0 187.5,0.0 200.0,21.650635094610966 187.5,43.30127018922193 162.5,43.30127018922193 150.0,21.650635094610966 162.5,0.0" stroke-linecap="round" stroke="red" stroke-width="2" fill="none" />
    <polyline points="12.5,43.30127018922194 37.5,43.30127018922194 25.0,64.9519052838329 12.5,43.30127018922194" stroke-linecap="round" stroke="red" stroke-width="2" fill="none" />
    <polyline points="25.0,64.95190528383289 37.5,86.60254037844386 12.5,86.60254037844386 25.0,64.95190528383289" stroke-linecap="round" stroke="red" stroke-width="2" fill="none" />
    <polyline points="37.5,43.30127018922194 62.5,43.30127018922194 75.0,64.9519052838329 62.5,86.60254037844386 37.5,86.60254037844386 25.0,64.9519052838329 37.5,43.30127018922194" stroke-linecap="round" stroke="red" stroke-width="2" fill="none" />
    <polyline points="62.5,43.30127018922194 87.5,43.30127018922194 75.0,64.9519052838329 62.5,43.30127018922194" stroke-linecap="round" stroke="red" stroke-width="2" fill="none" />
    <polyline points="75.0,64.95190528383289 87.5,86.60254037844386 62.5,86.60254037844386 75.0,64.95190528383289" stroke-linecap="round" stroke="red" stroke-width="2" fill="none" />
    <polyline points="87.5,43.30127018922194 112.5,43.30127018922194 125.0,64.9519052838329 112.5,86.60254037844386 87.5,86.60254037844386 75.0,64.9519052838329 87.5,43.30127018922194" stroke-linecap="round" stroke="red" stroke-width="2" fill="none" />
    <polyline points="112.5,43.30127018922194 137.5,43.30127018922194 125.0,64.9519052838329 112.5,43.30127018922194" stroke-linecap="round" stroke="red" stroke-width="2" fill="none" />
    <polyline points="125.0,64.95190528383289 137.5,86.60254037844386 112.5,86.60254037844386 125.0,64.95190528383289" stroke-linecap="round" stroke="red" stroke-width="2" fill="none" />
    <polyline points="137.5,43.30127018922194 162.5,43.30127018922194 175.0,64.9519052838329 162.5,86.60254037844386 137.5,86.60254037844386 125.0,64.9519052838329 137.5,43.30127018922194" stroke-linecap="round" stroke="red" stroke-width="2" fill="none" />
    <polyline points="162.5,43.30127018922194 187.5,43.30127018922194 175.0,64.9519052838329 162.5,43.30127018922194" stroke-linecap="round" stroke="red" stroke-width="2" fill="none" />
    <polyline points="175.0,64.95190528383289 187.5,86.60254037844386 162.5,86.60254037844386 175.0,64.95190528383289" stroke-linecap="round" stroke="red" stroke-width="2" fill="none" />
    <polyline points="12.5,86.60254037844386 37.5,86.60254037844386 50.0,108.25317547305482 37.5,129.90381056766577 12.5,129.90381056766577 0.0,108.25317547305482 12.5,86.60254037844386" stroke-linecap="round" stroke="red" stroke-width="2" fill="none" />
    <polyline points="37.5,86.60254037844385 62.5,86.60254037844385 50.0,108.25317547305482 37.5,86.60254037844385" stroke-linecap="round" stroke="red" stroke-width="2" fill="none" />
    <polyline points="50.0,108.25317547305482 62.5,129.9038105676658 37.5,129.9038105676658 50.0,108.25317547305482" stroke-linecap="round" stroke="red" stroke-width="2" fill="none" />
    <polyline points="62.5,86.60254037844386 87.5,86.60254037844386 100.0,108.25317547305482 87.5,129.90381056766577 62.5,129.90381056766577 50.0,108.25317547305482 62.5,86.60254037844386" stroke-linecap="round" stroke="red" stroke-width="2" fill="none" />
    <polyline points="87.5,86.60254037844385 112.5,86.60254037844385 100.0,108.25317547305482 87.5,86.60254037844385" stroke-linecap="round" stroke="red" stroke-width="2" fill="none" />
    <polyline points="100.0,108.25317547305482 112.5,129.9038105676658 87.5,129.9038105676658 100.0,108.25317547305482" stroke-linecap="round" stroke="red" stroke-width="2" fill="none" />
    <polyline points="112.5,86.60254037844386 137.5,86.60254037844386 150.0,108.25317547305482 137.5,129.90381056766577 112.5,129.90381056766577 100.0,108.25317547305482 112.5,86.60254037844386" stroke-linecap="round" stroke="red" stroke-width="2" fill="none" />
    <polyline points="137.5,86.60254037844385 162.5,86.60254037844385 150.0,108.25317547305482 137.5,86.60254037844385" stroke-linecap="round" stroke="red" stroke-width="2" fill="none" />
    <polyline points="150.0,108.25317547305482 162.5,129.9038105676658 137.5,129.9038105676658 150.0,108.25317547305482" stroke-linecap="round" stroke="red" stroke-width="2" fill="none" />
    <polyline points="162.5,86.60254037844386 187.5,86.60254037844386 200.0,108.25317547305482 187.5,129.90381056766577 162.5,129.90381056766577 150.0,108.25317547305482 162.5,86.60254037844386" stroke-linecap="round" stroke="red" stroke-width="2" fill="none" />
    <polyline points="12.5,129.90381056766577 37.5,129.90381056766577 25.0,151.55444566227675 12.5,129.90381056766577" stroke-linecap="round" stroke="red" stroke-width="2" fill="none" />
    <polyline points="25.0,151.55444566227675 37.5,173.20508075688775 12.5,173.20508075688775 25.0,151.55444566227675" stroke-linecap="round" stroke="red" stroke-width="2" fill="none" />
    <polyline points="37.5,129.9038105676658 62.5,129.9038105676658 75.0,151.55444566227675 62.5,173.20508075688772 37.5,173.20508075688772 25.0,151.55444566227675 37.5,129.9038105676658" stroke-linecap="round" stroke="red" stroke-width="2" fill="none" />
    <polyline points="62.5,129.90381056766577 87.5,129.90381056766577 75.0,151.55444566227675 62.5,129.90381056766577" stroke-linecap="round" stroke="red" stroke-width="2" fill="none" />
    <polyline points="75.0,151.55444566227675 87.5,173.20508075688775 62.5,173.20508075688775 75.0,151.55444566227675" stroke-linecap="round" stroke="red" stroke-width="2" fill="none" />
    <polyline points="87.5,129.9038105676658 112.5,129.9038105676658 125.0,151.55444566227675 112.5,173.20508075688772 87.5,173.20508075688772 75.0,151.55444566227675 87.5,129.9038105676658" stroke-linecap="round" stroke="red" stroke-width="2" fill="none" />
    <polyline points="112.5,129.90381056766577 137.5,129.90381056766577 125.0,151.55444566227675 112.5,129.90381056766577" stroke-linecap="round" stroke="red" stroke-width="2" fill="none" />
    <polyline points="125.0,151.55444566227675 137.5,173.20508075688775 112.5,173.20508075688775 125.0,151.55444566227675" stroke-linecap="round" stroke="red" stroke-width="2" fill="none" />
    <polyline points="137.5,129.9038105676658 162.5,129.9038105676658 175.0,151.55444566227675 162.5,173.20508075688772 137.5,173.20508075688772 125.0,151.55444566227675 137.5,129.9038105676658" stroke-linecap="round" stroke="red" stroke-width="2" fill="none" />
    <polyline points="162.5,129.90381056766577 187.5,129.90381056766577 175.0,151.55444566227675 162.5,129.90381056766577" stroke-linecap="round" stroke="red" stroke-width="2" fill="none" />
    <polyline points="175.0,151.55444566227675 187.5,173.20508075688775 162.5,173.20508075688775 175.0,151.55444566227675" stroke-linecap="round" stroke="red" stroke-width="2" fill="none" />
    <polyline points="12.5,173.20508075688772 37.5,173.20508075688772 50.0,194.85571585149867 37.5,216.50635094610965 12.5,216.50635094610965 0.0,194.85571585149867 12.5,173.20508075688772" stroke-linecap="round" stroke="red" stroke-width="2" fill="none" />
    <polyline points="37.5,173.20508075688772 62.5,173.20508075688772 50.0,194.8557158514987 37.5,173.20508075688772" stroke-linecap="round" stroke="red" stroke-width="2" fill="none" />
    <polyline points="50.0,194.85571585149864 62.5,216.50635094610965 37.5,216.50635094610965 50.0,194.85571585149864" stroke-linecap="round" stroke="red" stroke-width="2" fill="none" />
    <polyline points="62.5,173.20508075688772 87.5,173.20508075688772 100.0,194.85571585149867 87.5,216.50635094610965 62.5,216.50635094610965 50.0,194.85571585149867 62.5,173.20508075688772" stroke-linecap="round" stroke="red" stroke-width="2" fill="none" />
    <polyline points="87.5,173.20508075688772 112.5,173.20508075688772 100.0,194.8557158514987 87.5,173.20508075688772" stroke-linecap="round" stroke="red" stroke-width="2" fill="none" />
    <polyline points="100.0,194.85571585149864 112.5,216.50635094610965 87.5,216.50635094610965 100.0,194.85571585149864" stroke-linecap="round" stroke="red" stroke-width="2" fill="none" />
    <polyline points="112.5,173.20508075688772 137.5,173.20508075688772 150.0,194.85571585149867 137.5,216.50635094610965 112.5,216.50635094610965 100.0,194.85571585149867 112.5,173.20508075688772" stroke-linecap="round" stroke="red" stroke-width="2" fill="none" />
    <polyline points="137.5,173.20508075688772 162.5,173.20508075688772 150.0,194.8557158514987 137.5,173.20508075688772" stroke-linecap="round" stroke="red" stroke-width="2" fill="none" />
    <polyline points="150.0,194.85571585149864 162.5,216.50635094610965 137.5,216.50635094610965 150.0,194.85571585149864" stroke-linecap="round" stroke="red" stroke-width="2" fill="none" />
    <polyline points="162.5,173.20508075688772 187.5,173.20508075688772 200.0,194.85571585149867 187.5,216.50635094610965 162.5,216.50635094610965 150.0,194.85571585149867 162.5,173.20508075688772" stroke-linecap="round" stroke="red" stroke-width="2" fill="none" />
</svg>
