<?xml version="1.0" encoding="UTF-8" standalone="no"?>
<!DOCTYPE svg PUBLIC "-//W3C//DTD SVG 1.1//EN" "http://www.w3.org/Graphics/SVG/1.1/DTD/svg11.dtd">
<svg width="241.06601717798213" height="241.06601717798213" viewBox="-5.000000000000011 37.67766952966369 236.06601717798213 278.74368670764585" xmlns="http://www.w3.org/2000/svg" xmlns:xlink="http://www.w3.org/1999/xlink">
    <polyline points="17.677669529663685,42.67766952966369 42.67766952966369,42.67766952966369 60.35533905932737,60.35533905932737 60.35533905932737,85.35533905932738 42.67766952966369,103.03300858899105 17.677669529663685,103.03300858899105 0.0,85.35533905932738 -1.1102230246251565E-14,60.35533905932739 17.677669529663685,42.67766952966369" stroke-linecap="round" stroke="red" stroke-width="2" fill="none" />
    <polyline points="60.35533905932737,60.35533905932737 85.35533905932738,60.35533905932737 85.35533905932738,85.35533905932738 60.35533905932737,85.35533905932738 60.35533905932737,60.35533905932737" stroke-linecap="round" stroke="red" stroke-width="2" fill="none" />
    <polyline points="103.03300858899105,42.67766952966369 128.03300858899104,42.67766952966369 145.71067811865476,60.35533905932737 145.71067811865476,85.35533905932738 128.03300858899104,103.03300858899105 103.03300858899105,103.03300858899105 85.35533905932736,85.35533905932738 85.35533905932735,60.35533905932739 103.03300858899105,42.67766952966369" stroke-linecap="round" stroke="red" stroke-width="2" fill="none" />
    <polyline points="145.71067811865476,60.35533905932737 170.71067811865476,60.35533905932737 170.71067811865476,85.35533905932738 145.71067811865476,85.35533905932738 145.71067811865476,60.35533905932737" stroke-linecap="round" stroke="red" stroke-width="2" fill="none" />
    <polyline points="188.38834764831844,42.67766952966369 213.38834764831844,42.67766952966369 231.06601717798213,60.35533905932737 231.06601717798213,85.35533905932738 213.38834764831844,103.03300858899105 188.38834764831844,103.03300858899105 170.71067811865476,85.35533905932738 170.71067811865476,60.35533905932739 188.38834764831844,42.67766952966369" stroke-linecap="round" stroke="red" stroke-width="2" fill="none" />
    <polyline points="17.677669529663685,103.03300858899105 42.67766952966369,103.03300858899105 42.67766952966369,128.03300858899104 17.677669529663685,128.03300858899104 17.677669529663685,103.03300858899105" stroke-linecap="round" stroke="red" stroke-width="2" fill="none" />
    <polyline points="60.35533905932737,85.35533905932736 85.35533905932738,85.35533905932736 103.03300858899105,103.03300858899105 103.03300858899105,128.03300858899104 85.35533905932738,145.71067811865476 60.35533905932737,145.71067811865476 42.67766952966369,128.03300858899104 42.677669529663675,103.03300858899107 60.35533905932737,85.35533905932736" stroke-linecap="round" stroke="red" stroke-width="2" fill="none" />
    <polyline points="103.03300858899105,103.03300858899105 128.03300858899104,103.03300858899105 128.03300858899104,128.03300858899104 103.03300858899105,128.03300858899104 103.03300858899105,103.03300858899105" stroke-linecap="round" stroke="red" stroke-width="2" fill="none" />
    <polyline points="145.71067811865476,85.35533905932736 170.71067811865476,85.35533905932736 188.38834764831844,103.03300858899105 188.38834764831844,128.03300858899104 170.71067811865476,145.71067811865476 145.71067811865476,145.71067811865476 128.03300858899104,128.03300858899104 128.03300858899104,103.03300858899107 145.71067811865476,85.35533905932736" stroke-linecap="round" stroke="red" stroke-width="2" fill="none" />
    <polyline points="188.38834764831844,103.03300858899105 213.38834764831844,103.03300858899105 213.38834764831844,128.03300858899104 188.38834764831844,128.03300858899104 188.38834764831844,103.03300858899105" stroke-linecap="round" stroke="red" stroke-width="2" fill="none" />
    <polyline points="17.677669529663685,128.03300858899104 42.67766952966369,128.03300858899104 60.35533905932737,145.71067811865476 60.35533905932737,170.71067811865476 42.67766952966369,188.38834764831844 17.677669529663685,188.38834764831844 0.0,170.71067811865476 -1.1102230246251565E-14,145.71067811865476 17.677669529663685,128.03300858899104" stroke-linecap="round" stroke="red" stroke-width="2" fill="none" />
    <polyline points="60.35533905932737,145.71067811865476 85.35533905932738,145.71067811865476 85.35533905932738,170.71067811865476 60.35533905932737,170.71067811865476 60.35533905932737,145.71067811865476" stroke-linecap="round" stroke="red" stroke-width="2" fill="none" />
    <polyline points="103.03300858899105,128.03300858899104 128.03300858899104,128.03300858899104 145.71067811865476,145.71067811865476 145.71067811865476,170.71067811865476 128.03300858899104,188.38834764831844 103.03300858899105,188.38834764831844 85.35533905932736,170.71067811865476 85.35533905932735,145.71067811865476 103.03300858899105,128.03300858899104" stroke-linecap="round" stroke="red" stroke-width="2" fill="none" />
    <polyline points="145.71067811865476,145.71067811865476 170.71067811865476,145.71067811865476 170.71067811865476,170.71067811865476 145.71067811865476,170.71067811865476 145.71067811865476,145.71067811865476" stroke-linecap="round" stroke="red" stroke-width="2" fill="none" />
    <polyline points="188.38834764831844,128.03300858899104 213.38834764831844,128.03300858899104 231.06601717798213,145.71067811865476 231.06601717798213,170.71067811865476 213.38834764831844,188.38834764831844 188.38834764831844,188.38834764831844 170.71067811865476,170.71067811865476 170.71067811865476,145.71067811865476 188.38834764831844,128.03300858899104" stroke-linecap="round" stroke="red" stroke-width="2" fill="none" />
    <polyline points="17.677669529663685,188.38834764831844 42.67766952966369,188.38834764831844 42.67766952966369,213.38834764831844 17.677669529663685,213.38834764831844 17.677669529663685,188.38834764831844" stroke-linecap="round" stroke="red" stroke-width="2" fill="none" />
    <polyline points="60.35533905932737,170.71067811865476 85.35533905932738,170.71067811865476 103.03300858899105,188.38834764831844 103.03300858899105,213.38834764831844 85.35533905932738,231.06601717798213 60.35533905932737,231.06601717798213 42.67766952966369,213.38834764831844 42.677669529663675,188.38834764831847 60.35533905932737,170.71067811865476" stroke-linecap="round" stroke="red" stroke-width="2" fill="none" />
    <polyline points="103.03300858899105,188.38834764831844 128.03300858899104,188.38834764831844 128.03300858899104,213.38834764831844 103.03300858899105,213.38834764831844 103.03300858899105,188.38834764831844" stroke-linecap="round" stroke="red" stroke-width="2" fill="none" />
    <polyline points="145.71067811865476,170.71067811865476 170.71067811865476,170.71067811865476 188.38834764831844,188.38834764831844 188.38834764831844,213.38834764831844 170.71067811865476,231.06601717798213 145.71067811865476,231.06601717798213 128.03300858899104,213.38834764831844 128.03300858899104,188.38834764831847 145.71067811865476,170.71067811865476" stroke-linecap="round" stroke="red" stroke-width="2" fill="none" />
    <polyline points="188.38834764831844,188.38834764831844 213.38834764831844,188.38834764831844 213.38834764831844,213.38834764831844 188.38834764831844,213.38834764831844 188.38834764831844,188.38834764831844" stroke-linecap="round" stroke="red" stroke-width="2" fill="none" />
    <polyline points="17.677669529663685,213.38834764831844 42.67766952966369,213.38834764831844 60.35533905932737,231.06601717798213 60.35533905932737,256.06601717798213 42.67766952966369,273.74368670764585 17.677669529663685,273.74368670764585 0.0,256.06601717798213 -1.1102230246251565E-14,231.06601717798213 17.677669529663685,213.38834764831844" stroke-linecap="round" stroke="red" stroke-width="2" fill="none" />
    <polyline points="60.35533905932737,231.06601717798213 85.35533905932738,231.06601717798213 85.35533905932738,256.06601717798213 60.35533905932737,256.06601717798213 60.35533905932737,231.06601717798213" stroke-linecap="round" stroke="red" stroke-width="2" fill="none" />
    <polyline points="103.03300858899105,213.38834764831844 128.03300858899104,213.38834764831844 145.71067811865476,231.06601717798213 145.71067811865476,256.06601717798213 128.03300858899104,273.74368670764585 103.03300858899105,273.74368670764585 85.35533905932736,256.06601717798213 85.35533905932735,231.06601717798213 103.03300858899105,213.38834764831844" stroke-linecap="round" stroke="red" stroke-width="2" fill="none" />
    <polyline points="145.71067811865476,231.06601717798213 170.71067811865476,231.06601717798213 170.71067811865476,256.06601717798213 145.71067811865476,256.06601717798213 145.71067811865476,231.06601717798213" stroke-linecap="round" stroke="red" stroke-width="2" fill="none" />
    <polyline points="188.38834764831844,213.38834764831844 213.38834764831844,213.38834764831844 231.06601717798213,231.06601717798213 231.06601717798213,256.06601717798213 213.38834764831844,273.74368670764585 188.38834764831844,273.74368670764585 170.71067811865476,256.06601717798213 170.71067811865476,231.06601717798213 188.38834764831844,213.38834764831844" stroke-linecap="round" stroke="red" stroke-width="2" fill="none" />
</svg>
