<?xml version="1.0" encoding="UTF-8" standalone="no"?>
<!DOCTYPE svg PUBLIC "-//W3C//DTD SVG 1.1//EN" "http://www.w3.org/Graphics/SVG/1.1/DTD/svg11.dtd">
<svg width="241.06601717798213" height="241.06601717798213" viewBox="0 0 241.06601717798213 241.06601717798213" xmlns="http://www.w3.org/2000/svg" xmlns:xlink="http://www.w3.org/1999/xlink">
    <polygon points="22.677669529663696,5.0 47.677669529663696,5.0 65.35533905932738,22.677669529663685 65.35533905932738,47.67766952966369 47.677669529663696,65.35533905932736 22.677669529663696,65.35533905932736 5.000000000000011,47.67766952966369 5.0,22.67766952966371" stroke="black" stroke-linecap="round" stroke-width="1" fill="#FFC107"/>
    <polygon points="65.35533905932738,22.677669529663685 90.35533905932738,22.677669529663685 90.35533905932738,47.67766952966369 65.35533905932738,47.67766952966369" stroke="black" stroke-linecap="round" stroke-width="1" fill="#347433"/>
    <polygon points="108.03300858899105,5.0 133.03300858899104,5.0 150.71067811865476,22.677669529663685 150.71067811865476,47.67766952966369 133.03300858899104,65.35533905932736 108.03300858899105,65.35533905932736 90.35533905932738,47.67766952966369 90.35533905932736,22.67766952966371" stroke="black" stroke-linecap="round" stroke-width="1" fill="#FFC107"/>
    <polygon points="150.71067811865476,22.677669529663685 175.71067811865476,22.677669529663685 175.71067811865476,47.67766952966369 150.71067811865476,47.67766952966369" stroke="black" stroke-linecap="round" stroke-width="1" fill="#347433"/>
    <polygon points="193.38834764831844,5.0 218.38834764831844,5.0 236.06601717798213,22.677669529663685 236.06601717798213,47.67766952966369 218.38834764831844,65.35533905932736 193.38834764831844,65.35533905932736 175.71067811865476,47.67766952966369 175.71067811865476,22.67766952966371" stroke="black" stroke-linecap="round" stroke-width="1" fill="#FFC107"/>
    <polygon points="22.677669529663696,65.35533905932736 47.677669529663696,65.35533905932736 47.677669529663696,90.35533905932736 22.677669529663696,90.35533905932736" stroke="black" stroke-linecap="round" stroke-width="1" fill="#347433"/>
    <polygon points="65.35533905932738,47.677669529663675 90.35533905932738,47.677669529663675 108.03300858899105,65.35533905932736 108.03300858899105,90.35533905932736 90.35533905932738,108.03300858899105 65.35533905932738,108.03300858899105 47.677669529663696,90.35533905932736 47.67766952966369,65.35533905932738" stroke="black" stroke-linecap="round" stroke-width="1" fill="#FF6F3C"/>
    <polygon points="108.03300858899105,65.35533905932736 133.03300858899104,65.35533905932736 133.03300858899104,90.35533905932736 108.03300858899105,90.35533905932736" stroke="black" stroke-linecap="round" stroke-width="1" fill="#347433"/>
    <polygon points="150.71067811865476,47.677669529663675 175.71067811865476,47.677669529663675 193.38834764831844,65.35533905932736 193.38834764831844,90.35533905932736 175.71067811865476,108.03300858899105 150.71067811865476,108.03300858899105 133.03300858899104,90.35533905932736 133.03300858899104,65.35533905932738" stroke="black" stroke-linecap="round" stroke-width="1" fill="#FF6F3C"/>
    <polygon points="193.38834764831844,65.35533905932736 218.38834764831844,65.35533905932736 218.38834764831844,90.35533905932736 193.38834764831844,90.35533905932736" stroke="black" stroke-linecap="round" stroke-width="1" fill="#347433"/>
    <polygon points="22.677669529663696,90.35533905932736 47.677669529663696,90.35533905932736 65.35533905932738,108.03300858899105 65.35533905932738,133.03300858899104 47.677669529663696,150.71067811865476 22.677669529663696,150.71067811865476 5.000000000000011,133.03300858899104 5.0,108.0330085889911" stroke="black" stroke-linecap="round" stroke-width="1" fill="#FFC107"/>
    <polygon points="65.35533905932738,108.03300858899105 90.35533905932738,108.03300858899105 90.35533905932738,133.03300858899104 65.35533905932738,133.03300858899104" stroke="black" stroke-linecap="round" stroke-width="1" fill="#347433"/>
    <polygon points="108.03300858899105,90.35533905932736 133.03300858899104,90.35533905932736 150.71067811865476,108.03300858899105 150.71067811865476,133.03300858899104 133.03300858899104,150.71067811865476 108.03300858899105,150.71067811865476 90.35533905932738,133.03300858899104 90.35533905932736,108.0330085889911" stroke="black" stroke-linecap="round" stroke-width="1" fill="#FFC107"/>
    <polygon points="150.71067811865476,108.03300858899105 175.71067811865476,108.03300858899105 175.71067811865476,133.03300858899104 150.71067811865476,133.03300858899104" stroke="black" stroke-linecap="round" stroke-width="1" fill="#347433"/>
    <polygon points="193.38834764831844,90.35533905932736 218.38834764831844,90.35533905932736 236.06601717798213,108.03300858899105 236.06601717798213,133.03300858899104 218.38834764831844,150.71067811865476 193.38834764831844,150.71067811865476 175.71067811865476,133.03300858899104 175.71067811865476,108.0330085889911" stroke="black" stroke-linecap="round" stroke-width="1" fill="#FFC107"/>
    <polygon points="22.677669529663696,150.71067811865476 47.677669529663696,150.71067811865476 47.677669529663696,175.71067811865476 22.677669529663696,175.71067811865476" stroke="black" stroke-linecap="round" stroke-width="1" fill="#347433"/>
    <polygon points="65.35533905932738,133.03300858899104 90.35533905932738,133.03300858899104 108.03300858899105,150.71067811865476 108.03300858899105,175.71067811865476 90.35533905932738,193.38834764831844 65.35533905932738,193.38834764831844 47.677669529663696,175.71067811865476 47.67766952966369,150.71067811865478" stroke="black" stroke-linecap="round" stroke-width="1" fill="#FF6F3C"/>
    <polygon points="108.03300858899105,150.71067811865476 133.03300858899104,150.71067811865476 133.03300858899104,175.71067811865476 108.03300858899105,175.71067811865476" stroke="black" stroke-linecap="round" stroke-width="1" fill="#347433"/>
    <polygon points="150.71067811865476,133.03300858899104 175.71067811865476,133.03300858899104 193.38834764831844,150.71067811865476 193.38834764831844,175.71067811865476 175.71067811865476,193.38834764831844 150.71067811865476,193.38834764831844 133.03300858899104,175.71067811865476 133.03300858899104,150.71067811865478" stroke="black" stroke-linecap="round" stroke-width="1" fill="#FF6F3C"/>
    <polygon points="193.38834764831844,150.71067811865476 218.38834764831844,150.71067811865476 218.38834764831844,175.71067811865476 193.38834764831844,175.71067811865476" stroke="black" stroke-linecap="round" stroke-width="1" fill="#347433"/>
    <polygon points="22.677669529663696,175.71067811865476 47.677669529663696,175.71067811865476 65.35533905932738,193.38834764831844 65.35533905932738,218.38834764831844 47.677669529663696,236.06601717798213 22.677669529663696,236.06601717798213 5.000000000000011,218.38834764831844 5.0,193.38834764831844" stroke="black" stroke-linecap="round" stroke-width="1" fill="#FFC107"/>
    <polygon points="65.35533905932738,193.38834764831844 90.35533905932738,193.38834764831844 90.35533905932738,218.38834764831844 65.35533905932738,218.38834764831844" stroke="black" stroke-linecap="round" stroke-width="1" fill="#347433"/>
    <polygon points="108.03300858899105,175.71067811865476 133.03300858899104,175.71067811865476 150.71067811865476,193.38834764831844 150.71067811865476,218.38834764831844 133.03300858899104,236.06601717798213 108.03300858899105,236.06601717798213 90.35533905932738,218.38834764831844 90.35533905932736,193.38834764831844" stroke="black" stroke-linecap="round" stroke-width="1" fill="#FFC107"/>
    <polygon points="150.71067811865476,193.38834764831844 175.71067811865476,193.38834764831844 175.71067811865476,218.38834764831844 150.71067811865476,218.38834764831844" stroke="black" stroke-linecap="round" stroke-width="1" fill="#347433"/>
    <polygon points="193.38834764831844,175.71067811865476 218.38834764831844,175.71067811865476 236.06601717798213,193.38834764831844 236.06601717798213,218.38834764831844 218.38834764831844,236.06601717798213 193.38834764831844,236.06601717798213 175.71067811865476,218.38834764831844 175.71067811865476,193.38834764831844" stroke="black" stroke-linecap="round" stroke-width="1" fill="#FFC107"/>
</svg>
