<?xml version="1.0" encoding="UTF-8" standalone="no"?>
<!DOCTYPE svg PUBLIC "-//W3C//DTD SVG 1.1//EN" "http://www.w3.org/Graphics/SVG/1.1/DTD/svg11.dtd">
<svg width="241.06601717798213" height="241.06601717798213" viewBox="0 0 241.06601717798213 241.06601717798213" xmlns="http://www.w3.org/2000/svg" xmlns:xlink="http://www.w3.org/1999/xlink">
    <polyline points="22.677669529663696,22.677669529663685 47.677669529663696,22.677669529663685 47.677669529663696,47.67766952966369 22.677669529663696,47.67766952966369 22.677669529663696,22.677669529663685" stroke="red" stroke-linecap="round" stroke-width="2" fill="none" />
    <polyline points="65.35533905932738,5.0 90.35533905932738,5.0 108.03300858899105,22.677669529663685 108.03300858899105,47.67766952966369 90.35533905932738,65.35533905932738 65.35533905932738,65.35533905932738 47.677669529663696,47.67766952966369 47.67766952966369,22.677669529663703 65.35533905932738,5.0" stroke="red" stroke-linecap="round" stroke-width="2" fill="none" />
    <polyline points="108.03300858899105,22.677669529663685 133.03300858899104,22.677669529663685 133.03300858899104,47.67766952966369 108.03300858899105,47.67766952966369 108.03300858899105,22.677669529663685" stroke="red" stroke-linecap="round" stroke-width="2" fill="none" />
    <polyline points="150.71067811865476,5.0 175.71067811865476,5.0 193.38834764831844,22.677669529663685 193.38834764831844,47.67766952966369 175.71067811865476,65.35533905932738 150.71067811865476,65.35533905932738 133.03300858899104,47.67766952966369 133.03300858899104,22.677669529663703 150.71067811865476,5.0" stroke="red" stroke-linecap="round" stroke-width="2" fill="none" />
    <polyline points="193.38834764831844,22.677669529663685 218.38834764831844,22.677669529663685 218.38834764831844,47.67766952966369 193.38834764831844,47.67766952966369 193.38834764831844,22.677669529663685" stroke="red" stroke-linecap="round" stroke-width="2" fill="none" />
    <polyline points="22.677669529663696,47.67766952966369 47.677669529663696,47.67766952966369 65.35533905932738,65.35533905932738 65.35533905932738,90.35533905932738 47.677669529663696,108.03300858899105 22.677669529663696,108.03300858899105 5.000000000000011,90.35533905932738 5.0,65.35533905932739 22.677669529663696,47.67766952966369" stroke="red" stroke-linecap="round" stroke-width="2" fill="none" />
    <polyline points="65.35533905932738,65.35533905932738 90.35533905932738,65.35533905932738 90.35533905932738,90.35533905932738 65.35533905932738,90.35533905932738 65.35533905932738,65.35533905932738" stroke="red" stroke-linecap="round" stroke-width="2" fill="none" />
    <polyline points="108.03300858899105,47.67766952966369 133.03300858899104,47.67766952966369 150.71067811865476,65.35533905932738 150.71067811865476,90.35533905932738 133.03300858899104,108.03300858899105 108.03300858899105,108.03300858899105 90.35533905932738,90.35533905932738 90.35533905932736,65.35533905932739 108.03300858899105,47.67766952966369" stroke="red" stroke-linecap="round" stroke-width="2" fill="none" />
    <polyline points="150.71067811865476,65.35533905932738 175.71067811865476,65.35533905932738 175.71067811865476,90.35533905932738 150.71067811865476,90.35533905932738 150.71067811865476,65.35533905932738" stroke="red" stroke-linecap="round" stroke-width="2" fill="none" />
    <polyline points="193.38834764831844,47.67766952966369 218.38834764831844,47.67766952966369 236.06601717798213,65.35533905932738 236.06601717798213,90.35533905932738 218.38834764831844,108.03300858899105 193.38834764831844,108.03300858899105 175.71067811865476,90.35533905932738 175.71067811865476,65.35533905932739 193.38834764831844,47.67766952966369" stroke="red" stroke-linecap="round" stroke-width="2" fill="none" />
    <polyline points="22.677669529663696,108.03300858899105 47.677669529663696,108.03300858899105 47.677669529663696,133.03300858899104 22.677669529663696,133.03300858899104 22.677669529663696,108.03300858899105" stroke="red" stroke-linecap="round" stroke-width="2" fill="none" />
    <polyline points="65.35533905932738,90.35533905932736 90.35533905932738,90.35533905932736 108.03300858899105,108.03300858899105 108.03300858899105,133.03300858899104 90.35533905932738,150.71067811865476 65.35533905932738,150.71067811865476 47.677669529663696,133.03300858899104 47.67766952966369,108.03300858899107 65.35533905932738,90.35533905932736" stroke="red" stroke-linecap="round" stroke-width="2" fill="none" />
    <polyline points="108.03300858899105,108.03300858899105 133.03300858899104,108.03300858899105 133.03300858899104,133.03300858899104 108.03300858899105,133.03300858899104 108.03300858899105,108.03300858899105" stroke="red" stroke-linecap="round" stroke-width="2" fill="none" />
    <polyline points="150.71067811865476,90.35533905932736 175.71067811865476,90.35533905932736 193.38834764831844,108.03300858899105 193.38834764831844,133.03300858899104 175.71067811865476,150.71067811865476 150.71067811865476,150.71067811865476 133.03300858899104,133.03300858899104 133.03300858899104,108.03300858899107 150.71067811865476,90.35533905932736" stroke="red" stroke-linecap="round" stroke-width="2" fill="none" />
    <polyline points="193.38834764831844,108.03300858899105 218.38834764831844,108.03300858899105 218.38834764831844,133.03300858899104 193.38834764831844,133.03300858899104 193.38834764831844,108.03300858899105" stroke="red" stroke-linecap="round" stroke-width="2" fill="none" />
    <polyline points="22.677669529663696,133.03300858899104 47.677669529663696,133.03300858899104 65.35533905932738,150.71067811865476 65.35533905932738,175.71067811865476 47.677669529663696,193.38834764831844 22.677669529663696,193.38834764831844 5.000000000000011,175.71067811865476 5.0,150.71067811865476 22.677669529663696,133.03300858899104" stroke="red" stroke-linecap="round" stroke-width="2" fill="none" />
    <polyline points="65.35533905932738,150.71067811865476 90.35533905932738,150.71067811865476 90.35533905932738,175.71067811865476 65.35533905932738,175.71067811865476 65.35533905932738,150.71067811865476" stroke="red" stroke-linecap="round" stroke-width="2" fill="none" />
    <polyline points="108.03300858899105,133.03300858899104 133.03300858899104,133.03300858899104 150.71067811865476,150.71067811865476 150.71067811865476,175.71067811865476 133.03300858899104,193.38834764831844 108.03300858899105,193.38834764831844 90.35533905932738,175.71067811865476 90.35533905932736,150.71067811865476 108.03300858899105,133.03300858899104" stroke="red" stroke-linecap="round" stroke-width="2" fill="none" />
    <polyline points="150.71067811865476,150.71067811865476 175.71067811865476,150.71067811865476 175.71067811865476,175.71067811865476 150.71067811865476,175.71067811865476 150.71067811865476,150.71067811865476" stroke="red" stroke-linecap="round" stroke-width="2" fill="none" />
    <polyline points="193.38834764831844,133.03300858899104 218.38834764831844,133.03300858899104 236.06601717798213,150.71067811865476 236.06601717798213,175.71067811865476 218.38834764831844,193.38834764831844 193.38834764831844,193.38834764831844 175.71067811865476,175.71067811865476 175.71067811865476,150.71067811865476 193.38834764831844,133.03300858899104" stroke="red" stroke-linecap="round" stroke-width="2" fill="none" />
    <polyline points="22.677669529663696,193.38834764831844 47.677669529663696,193.38834764831844 47.677669529663696,218.38834764831844 22.677669529663696,218.38834764831844 22.677669529663696,193.38834764831844" stroke="red" stroke-linecap="round" stroke-width="2" fill="none" />
    <polyline points="65.35533905932738,175.71067811865476 90.35533905932738,175.71067811865476 108.03300858899105,193.38834764831844 108.03300858899105,218.38834764831844 90.35533905932738,236.06601717798213 65.35533905932738,236.06601717798213 47.677669529663696,218.38834764831844 47.67766952966369,193.38834764831847 65.35533905932738,175.71067811865476" stroke="red" stroke-linecap="round" stroke-width="2" fill="none" />
    <polyline points="108.03300858899105,193.38834764831844 133.03300858899104,193.38834764831844 133.03300858899104,218.38834764831844 108.03300858899105,218.38834764831844 108.03300858899105,193.38834764831844" stroke="red" stroke-linecap="round" stroke-width="2" fill="none" />
    <polyline points="150.71067811865476,175.71067811865476 175.71067811865476,175.71067811865476 193.38834764831844,193.38834764831844 193.38834764831844,218.38834764831844 175.71067811865476,236.06601717798213 150.71067811865476,236.06601717798213 133.03300858899104,218.38834764831844 133.03300858899104,193.38834764831847 150.71067811865476,175.71067811865476" stroke="red" stroke-linecap="round" stroke-width="2" fill="none" />
    <polyline points="193.38834764831844,193.38834764831844 218.38834764831844,193.38834764831844 218.38834764831844,218.38834764831844 193.38834764831844,218.38834764831844 193.38834764831844,193.38834764831844" stroke="red" stroke-linecap="round" stroke-width="2" fill="none" />
</svg>
